<svg xmlns="http://www.w3.org/2000/svg" width="387.9" height="82.6" viewBox="0 0 387.9 82.6">
  <g id="arctouch_horizontal_logo" transform="translate(-133.6 -102.9)">
    <g id="Agrupar_1" data-name="Agrupar 1">
      <path id="Caminho_1" data-name="Caminho 1" d="M204.7,185.5H174.9a41.3,41.3,0,0,1,0-82.6c23.1,0,41.3,17.6,41.3,40.1v42.3h-6.4V143c0-18.9-15.3-33.7-34.9-33.7a34.9,34.9,0,0,0,0,69.8h29.8Z" fill="#ff8300"/>
      <path id="Caminho_2" data-name="Caminho 2" d="M194.1,174.9H174.8a30.7,30.7,0,0,1,0-61.4c17.2,0,30.7,13.2,30.7,30.1v31.2h-6.4V143.6c0-13.3-10.7-23.7-24.3-23.7a24.3,24.3,0,0,0,0,48.6h19.3Z" fill="#ffa34e"/>
      <path id="Caminho_3" data-name="Caminho 3" d="M183.6,164.3h-8.7A20.1,20.1,0,1,1,195,144.2v20h-6.4v-20a13.7,13.7,0,1,0-13.7,13.7h8.7v6.4Z" fill="#ffc894"/>
    </g>
    <g id="Agrupar_4" data-name="Agrupar 4">
      <g id="Agrupar_2" data-name="Agrupar 2">
        <path id="Caminho_4" data-name="Caminho 4" d="M253.9,141.5H264l-5.1-9.8Zm12,4H251.8l-3.5,6.9h-4.6l13.5-26.5h3.3l13.6,26.5h-4.7Z" fill="#55565a"/>
        <path id="Caminho_5" data-name="Caminho 5" d="M289,129.7v7.5h11.2c3.1,0,4.6-1.3,4.6-3.7s-1.5-3.8-4.4-3.8Zm9.5,11.5H289v11.2h-4.3V125.9h15.7c5.4,0,8.8,2.8,8.8,7.6a7.577,7.577,0,0,1-6,7.5l6.7,11.4h-4.8Z" fill="#55565a"/>
        <path id="Caminho_6" data-name="Caminho 6" d="M319.8,139.2c0-8.1,6-13.9,14.2-13.9a14.355,14.355,0,0,1,12.3,6.6l-3.6,2.5a9.391,9.391,0,0,0-8.6-5.1c-5.6,0-9.8,4.1-9.8,10a9.536,9.536,0,0,0,9.8,9.9c3.9,0,7.1-1.9,9.4-6.1l3.4,2.5a13.982,13.982,0,0,1-12.8,7.5c-8.3-.1-14.3-5.9-14.3-13.9" fill="#55565a"/>
        <path id="Caminho_7" data-name="Caminho 7" d="M370.1,152.4h-2.3V128H356.7v-2.1h24.6V128H370.1Z" fill="#55565a"/>
        <path id="Caminho_8" data-name="Caminho 8" d="M391.3,139.2c0,6.8,4.7,11.6,10.8,11.6,6.2,0,10.9-4.9,10.9-11.6,0-6.8-4.6-11.7-10.8-11.7s-10.9,4.9-10.9,11.7m-2.4,0c0-8.1,5.6-13.9,13.2-13.9,7.7,0,13.3,5.8,13.3,13.9s-5.6,13.9-13.3,13.9c-7.6-.1-13.2-5.9-13.2-13.9" fill="#55565a"/>
        <path id="Caminho_9" data-name="Caminho 9" d="M427.2,144.1V125.9h2.3v17.3c0,6,1.9,7.7,8.1,7.7,6.3,0,8.1-1.6,8.1-7.7V125.9h2.4v18.2c0,6.4-2.8,9-10.4,9-7.7-.1-10.5-2.7-10.5-9" fill="#55565a"/>
        <path id="Caminho_10" data-name="Caminho 10" d="M461.6,139.2c0-8.1,5.6-13.9,13.2-13.9a12.623,12.623,0,0,1,10.9,5.8l-1.9,1.4a10.081,10.081,0,0,0-9-5c-6.2,0-10.8,4.9-10.8,11.7s4.6,11.6,10.8,11.6c4.1,0,7.5-2.1,9.7-6l1.9,1.4a12.644,12.644,0,0,1-11.6,6.8c-7.6,0-13.2-5.8-13.2-13.8" fill="#55565a"/>
        <path id="Caminho_11" data-name="Caminho 11" d="M516.4,138.9H499.8v13.5h-2.4V125.9h2.4v10.8h16.6V125.9h2.3v26.5h-2.3Z" fill="#55565a"/>
      </g>
      <g id="Agrupar_3" data-name="Agrupar 3">
        <path id="Caminho_12" data-name="Caminho 12" d="M244.2,175.3h1.9l3,4.7,3-4.7H254v10h-1.8v-7.2l-3.2,4.7h0l-3.1-4.7v7.1h-1.7Z" fill="#ff8300"/>
        <path id="Caminho_13" data-name="Caminho 13" d="M256.1,180.3h0a5.164,5.164,0,0,1,5.2-5.2,5.081,5.081,0,0,1,5.2,5.1h0a5.164,5.164,0,0,1-5.2,5.2A5.021,5.021,0,0,1,256.1,180.3Zm8.6,0h0a3.4,3.4,0,1,0-6.8-.1h0a3.48,3.48,0,0,0,3.4,3.6A3.282,3.282,0,0,0,264.7,180.3Z" fill="#ff8300"/>
        <path id="Caminho_14" data-name="Caminho 14" d="M268.7,175.3h4.5a3.573,3.573,0,0,1,2.6.9,2.413,2.413,0,0,1,.7,1.7h0a2.4,2.4,0,0,1-1.4,2.2,2.452,2.452,0,0,1,2,2.4h0c0,1.8-1.5,2.7-3.7,2.7h-4.6v-9.9Zm4.1,4.2c1.1,0,1.9-.4,1.9-1.4h0c0-.8-.6-1.3-1.8-1.3h-2.5v2.7Zm.5,4.3c1.2,0,1.9-.5,1.9-1.4h0c0-.8-.7-1.3-2.1-1.3h-2.8v2.7Z" fill="#ff8300"/>
        <path id="Caminho_15" data-name="Caminho 15" d="M279.1,175.3h1.8v10h-1.8Z" fill="#ff8300"/>
        <path id="Caminho_16" data-name="Caminho 16" d="M283.5,175.3h1.8v8.4h5.2v1.6h-7Z" fill="#ff8300"/>
        <path id="Caminho_17" data-name="Caminho 17" d="M292.3,175.3h7.4v1.6h-5.6v2.6h5v1.6h-5v2.7h5.7v1.6h-7.5Z" fill="#ff8300"/>
        <path id="Caminho_18" data-name="Caminho 18" d="M311.7,184.2a4.572,4.572,0,0,1-3.1,1.3c-1.9,0-3.3-1.1-3.3-2.9h0a3.065,3.065,0,0,1,2.1-2.8,3.093,3.093,0,0,1-.8-2.1h0a2.651,2.651,0,0,1,2.9-2.5,2.512,2.512,0,0,1,2.7,2.4h0c0,1.3-.9,2.1-2.2,2.6l1.7,1.7c.4-.6.7-1.2,1.1-1.9l1.3.7a10.886,10.886,0,0,1-1.4,2.3l1.6,1.6-1.3.9Zm-1-1.1-2.2-2.3a1.854,1.854,0,0,0-1.3,1.7h0a1.59,1.59,0,0,0,1.7,1.5A2.422,2.422,0,0,0,310.7,183.1Zm0-5.4h0a1.135,1.135,0,0,0-1.1-1.2,1.155,1.155,0,0,0-1.2,1.2h0a2.039,2.039,0,0,0,.8,1.5C310.1,178.9,310.7,178.4,310.7,177.7Z" fill="#ff8300"/>
        <path id="Caminho_19" data-name="Caminho 19" d="M319.9,180.3h0a5.044,5.044,0,0,1,5.2-5.2,4.886,4.886,0,0,1,3.9,1.6l-1.1,1.3a4.2,4.2,0,0,0-2.8-1.2,3.375,3.375,0,0,0-3.3,3.5h0a3.4,3.4,0,0,0,3.3,3.6,4.107,4.107,0,0,0,2.9-1.3l1.1,1.1a5.244,5.244,0,0,1-9.2-3.4Z" fill="#ff8300"/>
        <path id="Caminho_20" data-name="Caminho 20" d="M330.1,180.3h0a5.164,5.164,0,0,1,5.2-5.2,5.081,5.081,0,0,1,5.2,5.1h0a5.164,5.164,0,0,1-5.2,5.2A5.021,5.021,0,0,1,330.1,180.3Zm8.6,0h0a3.4,3.4,0,1,0-6.8-.1h0a3.48,3.48,0,0,0,3.4,3.6A3.229,3.229,0,0,0,338.7,180.3Z" fill="#ff8300"/>
        <path id="Caminho_21" data-name="Caminho 21" d="M342.7,175.3h1.6l5.4,6.9v-6.9h1.7v10h-1.5l-5.5-7.1v7.1h-1.7Z" fill="#ff8300"/>
        <path id="Caminho_22" data-name="Caminho 22" d="M354,175.3h1.6l5.4,6.9v-6.9h1.7v10h-1.5l-5.5-7.1v7.1H354Z" fill="#ff8300"/>
        <path id="Caminho_23" data-name="Caminho 23" d="M365.2,175.3h7.4v1.6H367v2.6h5v1.6h-5v2.7h5.7v1.6h-7.5Z" fill="#ff8300"/>
        <path id="Caminho_24" data-name="Caminho 24" d="M374.4,180.3h0a5.044,5.044,0,0,1,5.2-5.2,4.886,4.886,0,0,1,3.9,1.6l-1.1,1.3a4.2,4.2,0,0,0-2.8-1.2,3.375,3.375,0,0,0-3.3,3.5h0a3.4,3.4,0,0,0,3.3,3.6,4.107,4.107,0,0,0,2.9-1.3l1.1,1.1a5.121,5.121,0,0,1-4.1,1.8A5.02,5.02,0,0,1,374.4,180.3Z" fill="#ff8300"/>
        <path id="Caminho_25" data-name="Caminho 25" d="M387.8,176.9h-3.2v-1.6h8.1v1.6h-3.2v8.4h-1.8v-8.4Z" fill="#ff8300"/>
        <path id="Caminho_26" data-name="Caminho 26" d="M394.6,175.3H402v1.6h-5.6v2.6h5v1.6h-5v2.7h5.7v1.6h-7.5Z" fill="#ff8300"/>
        <path id="Caminho_27" data-name="Caminho 27" d="M404.1,175.3h3.7a5.027,5.027,0,0,1,5.3,5h0a5.027,5.027,0,0,1-5.3,5h-3.7Zm3.7,8.4a3.282,3.282,0,0,0,3.5-3.4h0a3.282,3.282,0,0,0-3.5-3.4h-2v6.8h2Z" fill="#ff8300"/>
        <path id="Caminho_28" data-name="Caminho 28" d="M419.6,175.3H427v1.6h-5.6v2.6h5v1.6h-5v2.7h5.7v1.6h-7.5Z" fill="#ff8300"/>
        <path id="Caminho_29" data-name="Caminho 29" d="M432,180.2l-3.5-4.9h2.1l2.5,3.6,2.5-3.6h2l-3.5,4.9,3.6,5.1h-2.1l-2.6-3.8-2.6,3.8h-2Z" fill="#ff8300"/>
        <path id="Caminho_30" data-name="Caminho 30" d="M439.5,175.3h3.9c2.3,0,3.8,1.3,3.8,3.3h0c0,2.2-1.8,3.4-4,3.4h-2v3.2h-1.8v-9.9Zm3.8,5.2c1.3,0,2.2-.7,2.2-1.8h0c0-1.2-.8-1.8-2.2-1.8h-2v3.6Z" fill="#ff8300"/>
        <path id="Caminho_31" data-name="Caminho 31" d="M449,175.3h7.4v1.6h-5.6v2.6h5v1.6h-5v2.7h5.7v1.6H449Z" fill="#ff8300"/>
        <path id="Caminho_32" data-name="Caminho 32" d="M458.6,175.3h4.5a4.223,4.223,0,0,1,2.9,1,3.113,3.113,0,0,1,.8,2.2h0a3.015,3.015,0,0,1-2.4,3l2.7,3.8H465l-2.5-3.5h-2.2v3.5h-1.8v-10Zm4.3,5c1.3,0,2.1-.7,2.1-1.7h0c0-1.1-.8-1.7-2.1-1.7h-2.6v3.4Z" fill="#ff8300"/>
        <path id="Caminho_33" data-name="Caminho 33" d="M469,175.3h1.8v10H469Z" fill="#ff8300"/>
        <path id="Caminho_34" data-name="Caminho 34" d="M473.4,175.3h7.4v1.6h-5.6v2.6h5v1.6h-5v2.7h5.7v1.6h-7.5Z" fill="#ff8300"/>
        <path id="Caminho_35" data-name="Caminho 35" d="M483,175.3h1.6l5.4,6.9v-6.9h1.7v10h-1.5l-5.5-7.1v7.1H483Z" fill="#ff8300"/>
        <path id="Caminho_36" data-name="Caminho 36" d="M493.8,180.3h0a5.044,5.044,0,0,1,5.2-5.2,4.886,4.886,0,0,1,3.9,1.6l-1.1,1.3a4.2,4.2,0,0,0-2.8-1.2,3.375,3.375,0,0,0-3.3,3.5h0a3.4,3.4,0,0,0,3.3,3.6,4.107,4.107,0,0,0,2.9-1.3l1.1,1.1a5.244,5.244,0,0,1-9.2-3.4Z" fill="#ff8300"/>
        <path id="Caminho_37" data-name="Caminho 37" d="M504.8,175.3h7.4v1.6h-5.6v2.6h5v1.6h-5v2.7h5.7v1.6h-7.5Z" fill="#ff8300"/>
        <path id="Caminho_38" data-name="Caminho 38" d="M513.6,183.9l1.1-1.3a4.816,4.816,0,0,0,3.2,1.3c1.1,0,1.8-.5,1.8-1.3h0c0-.7-.4-1.1-2.3-1.5-2.1-.5-3.3-1.1-3.3-3h0c0-1.7,1.4-2.9,3.4-2.9a4.991,4.991,0,0,1,3.6,1.3l-.9,1.3a4.317,4.317,0,0,0-2.7-1c-1,0-1.6.5-1.6,1.2h0c0,.8.5,1.1,2.4,1.6,2.1.5,3.2,1.3,3.2,2.9h0c0,1.9-1.5,3-3.6,3A7.322,7.322,0,0,1,513.6,183.9Z" fill="#ff8300"/>
      </g>
    </g>
  </g>
</svg>
