<?xml version="1.0" encoding="UTF-8"?>
<svg width="170px" height="34px" viewBox="0 0 170 34" version="1.1" xmlns="http://www.w3.org/2000/svg" xmlns:xlink="http://www.w3.org/1999/xlink">
    <!-- Generator: sketchtool 55.2 (78181) - https://sketchapp.com -->
    <title>752D2792-375E-4922-8C16-A30DDE96E90E</title>
    <desc>Created with sketchtool.</desc>
    <defs>
        <polygon id="path-1" points="3.39773484e-05 0.00668221186 49.8257202 0.00668221186 49.8257202 33.1845377 3.39773484e-05 33.1845377"></polygon>
        <polygon id="path-3" points="0.0598001332 0.00668221186 49.8854863 0.00668221186 49.8854863 33.1845377 0.0598001332 33.1845377"></polygon>
        <polygon id="path-5" points="0.00920786143 0.0732098601 12.3451033 0.0732098601 12.3451033 16.1566143 0.00920786143 16.1566143"></polygon>
    </defs>
    <g id="Site" stroke="none" stroke-width="1" fill="none" fill-rule="evenodd">
        <g id="Login---Desktop" transform="translate(-221.000000, -110.000000)">
            <g id="Logo-Mercos" transform="translate(221.000000, 110.000000)">
                <g id="Group-3" transform="translate(0.000000, 0.106576)">
                    <mask id="mask-2" fill="white">
                        <use xlink:href="#path-1"></use>
                    </mask>
                    <g id="Clip-2"></g>
                    <path d="M49.8257202,24.877014 C48.3898374,26.2236496 45.8250007,26.4583198 44.4306835,25.0641159 L20.3470859,0.980405063 C19.1459867,-0.220580946 17.2556003,-0.310394404 15.9504171,0.709379081 C15.9346742,0.721157895 15.9191579,0.73338974 15.9036416,0.745621586 C15.8980919,0.750151899 15.8925423,0.754682212 15.8869927,0.759212525 C15.8158668,0.816181213 15.7467795,0.876094604 15.681543,0.94144437 C11.9861666,4.63670753 2.22934444,14.3970406 1.00899134,15.6176203 C0.997439041,15.6287195 0.985660227,15.6392525 0.974334444,15.6505783 C-0.324732845,16.9495323 -0.324732845,19.0559014 0.974334444,20.3548554 C0.984754164,20.3652751 0.995626915,20.3749021 1.00615989,20.3850953 C1.01884477,20.3982332 1.0308501,20.4117109 1.04387475,20.4246223 C1.11817189,20.4991459 8.1845543,27.5654151 8.1845543,27.5654151 C6.79340839,26.1742692 6.65659294,23.8519174 8.0507968,22.4578268 L15.7960466,14.7124637 C17.0378055,13.4707049 19.1569727,13.6741159 20.3638481,14.8453151 C25.1726622,19.6753085 37.6463131,32.1277801 37.7294444,32.2109114 C38.7288314,33.2102985 40.2057135,33.4398721 41.4255003,32.9016709 C41.8326622,32.7362012 42.2140013,32.4887328 42.5442612,32.158473 C42.6186716,32.0841759 49.8257202,24.877014 49.8257202,24.877014" id="Fill-1" fill="#00CC62" mask="url(#mask-2)"></path>
                </g>
                <g id="Group-6" transform="translate(5.436376, 0.106576)">
                    <mask id="mask-4" fill="white">
                        <use xlink:href="#path-3"></use>
                    </mask>
                    <g id="Clip-5"></g>
                    <path d="M0.0598001332,24.877014 C1.49568288,26.2236496 4.06051965,26.4583198 5.45472352,25.0641159 L29.5384344,0.980405063 C30.7395336,-0.220580946 32.6299201,-0.310394404 33.9351033,0.709379081 C33.9508461,0.721157895 33.9663624,0.73338974 33.9818787,0.745621586 C33.9874284,0.750151899 33.992978,0.754682212 33.9985276,0.759212525 C34.0696536,0.816181213 34.1387408,0.876094604 34.2039773,0.94144437 C37.8993538,4.63670753 47.6561759,14.3970406 48.876529,15.6176203 C48.8880813,15.6287195 48.8998601,15.6392525 48.9111859,15.6505783 C50.2102532,16.9495323 50.2102532,19.0559014 48.9111859,20.3548554 C48.9007662,20.3652751 48.8898934,20.3749021 48.8793604,20.3850953 C48.8666755,20.3982332 48.8546702,20.4117109 48.8416456,20.4246223 C48.7673484,20.4991459 41.700966,27.5654151 41.700966,27.5654151 C43.0921119,26.1742692 43.2289274,23.8519174 41.8347235,22.4578268 L34.0894737,14.7124637 C32.8477149,13.4707049 30.7285476,13.6741159 29.521559,14.8453151 C24.7128581,19.6753085 12.2392072,32.1277801 12.1560759,32.2109114 C11.1566889,33.2102985 9.6798068,33.4398721 8.46001999,32.9016709 C8.05285809,32.7362012 7.67151899,32.4887328 7.34125916,32.158473 C7.26684877,32.0841759 0.0598001332,24.877014 0.0598001332,24.877014" id="Fill-4" fill="#663991" mask="url(#mask-4)"></path>
                </g>
                <path d="M84.1010273,10.2590753 C87.4763371,10.2590753 89.5916536,12.2968101 89.5916536,17.0407275 L89.5916536,26.0616003 C89.5916536,26.0793817 89.5773831,26.0936522 89.5597149,26.0936522 L85.4549114,26.0936522 C85.4373564,26.0936522 85.4229727,26.0793817 85.4229727,26.0616003 L85.4229727,18.0520067 C85.4229727,15.5633924 84.6608608,14.0079094 82.700934,14.0079094 C80.9433991,14.0079094 79.527563,15.5167302 79.527563,18.3010606 L79.527563,26.0620533 C79.527563,26.0797215 79.5132925,26.0938787 79.4956243,26.0938787 L75.3911606,26.0938787 C75.3734923,26.0938787 75.3591086,26.0797215 75.3591086,26.0620533 L75.3591086,18.0523464 C75.3591086,15.5636189 74.5501079,14.0082492 72.6058108,14.0082492 C70.7393218,14.0082492 69.3234857,15.51707 69.3234857,18.3012871 L69.3234857,26.0467635 C69.3234857,26.0644317 69.3091019,26.0787022 69.291547,26.0787022 L65.1867435,26.0787022 C65.1691885,26.0787022 65.1548048,26.0644317 65.1548048,26.0467635 L65.1548048,10.5559241 C65.1548048,10.5382558 65.1691885,10.5238721 65.1867435,10.5238721 L67.3018334,10.5238721 C68.4183291,10.5238721 69.3234857,11.4290286 69.3234857,12.5455243 C69.3234857,12.5631925 69.3377562,12.5775763 69.3554244,12.5775763 C69.364938,12.5775763 69.3739987,12.5732725 69.3798881,12.5659107 C70.6079427,11.0642252 72.2991086,10.2595283 74.0211939,10.2595283 C76.0682159,10.2595283 77.6821399,11.0326262 78.6320333,12.7478028 C78.6376962,12.7577695 78.6482292,12.7642252 78.6597815,12.7642252 L78.6723531,12.7642252 C78.6820933,12.7642252 78.6912672,12.7596949 78.6972698,12.7519933 C79.9727795,11.1266302 81.8819667,10.2595283 84.1008008,10.2595283 L84.1010273,10.2590753 Z" id="Fill-7" fill="#663991"></path>
                <path d="M96.8468481,16.6522305 L103.706761,16.6522305 C103.286462,15.0034231 102.151165,13.9301919 100.346742,13.9301919 C98.6513851,13.9301919 97.3289867,14.8478068 96.8468481,16.6522305 L96.8468481,16.6522305 Z M107.844183,18.1610513 C107.844183,18.6585929 107.813037,19.3744957 107.735342,19.6542425 L96.8315583,19.6542425 C97.3292132,21.5052152 98.8068881,22.6254484 100.797961,22.6407382 C101.797348,22.6502518 102.645309,22.3802452 103.34898,21.9304983 C104.147787,21.4198188 105.189986,21.5113311 105.883803,22.1572405 L107.221945,23.4031899 C105.899773,25.0829167 103.62884,26.3429101 100.502245,26.3429101 C95.9447495,26.3429101 92.4917448,23.1389594 92.4917448,18.2857482 C92.4917448,13.5571206 95.7892465,10.2595057 100.206868,10.2595057 C104.780106,10.2595057 107.84441,13.6037828 107.84441,18.1615043 L107.844183,18.1610513 Z" id="Fill-9" fill="#663991"></path>
                <path d="M119.840181,10.259517 C119.964538,10.259517 120.073378,10.259517 120.166703,10.2751466 L120.166703,14.8483844 C119.746856,14.8172385 119.29575,14.8017222 119.062213,14.8017222 C116.49579,14.8017222 115.095697,16.5438541 115.095697,18.861449 L115.095697,26.0786909 L110.927129,26.0786909 L110.927129,10.5238608 L113.02138,10.5238608 C114.166983,10.5238608 115.095697,11.4526882 115.095697,12.5982911 L115.095697,12.8105363 L115.142359,12.8105363 C116.324205,11.1617288 118.004498,10.259517 119.839841,10.259517 L119.840181,10.259517 Z" id="Fill-11" fill="#663991"></path>
                <path d="M130.102065,26.3429101 C125.497907,26.3429101 122.106968,23.0920706 122.106968,18.3167808 C122.106968,13.541491 125.482278,10.2593924 130.30423,10.2593924 C132.777441,10.2593924 135.343863,11.270445 136.914976,13.2458881 L135.437981,14.5190193 C134.752884,15.1094324 133.760406,15.1941492 132.994556,14.71303 C132.296662,14.2746089 131.455722,14.0082265 130.475476,14.0082265 C127.986861,14.0082265 126.338167,15.7657615 126.338167,18.2859747 C126.338167,20.8367675 128.033524,22.5946422 130.506735,22.5946422 C131.496722,22.5946422 132.335396,22.3254284 133.005769,21.9318574 C133.774676,21.4804117 134.747901,21.5804184 135.416915,22.1695856 L136.977381,23.5437428 C135.639806,25.0989993 133.228773,26.3431366 130.102065,26.3431366 L130.102065,26.3429101 Z" id="Fill-13" fill="#663991"></path>
                <path d="M147.309734,22.6100453 C149.565151,22.6100453 151.353945,20.8366542 151.353945,18.3167808 C151.353945,15.7657615 149.611926,14.0082265 147.309847,14.0082265 C144.883298,14.0082265 143.250007,15.8590859 143.250007,18.3167808 C143.250007,20.72804 144.930074,22.6101586 147.309847,22.6101586 L147.309734,22.6100453 Z M147.309847,26.3429101 C142.363538,26.3429101 139.034777,22.9521972 139.034777,18.3168941 C139.034777,13.6664144 142.363538,10.2595057 147.309847,10.2595057 C152.147542,10.2595057 155.585144,13.5416043 155.585144,18.3168941 C155.585144,23.0768941 152.147542,26.3431366 147.309847,26.3431366 L147.309847,26.3429101 Z" id="Fill-15" fill="#663991"></path>
                <g id="Group-19" transform="translate(157.541639, 10.186522)">
                    <mask id="mask-6" fill="white">
                        <use xlink:href="#path-5"></use>
                    </mask>
                    <g id="Clip-18"></g>
                    <path d="M6.30872152,16.1563877 C3.819994,16.1563877 1.70467755,15.3633564 0.00920786143,13.8701652 L0.815716855,12.7225237 C1.42266556,11.8587062 2.58582345,11.5811113 3.50808195,12.0947355 C4.36046036,12.5695123 5.28034044,12.8126769 6.33998068,12.8126769 C7.55342505,12.8126769 8.25347169,12.2835363 8.25347169,11.5214244 C8.25347169,10.8059747 7.44447102,10.4481932 5.42247901,9.79492205 C2.85616989,8.95488874 0.631786143,7.74178414 0.631786143,4.73977215 C0.631786143,1.9242958 3.05856163,0.0732098601 6.23159294,0.0732098601 C8.39402465,0.0732098601 10.1515596,0.664642239 11.9249507,2.03336309 L11.0786882,3.30932578 C10.4962032,4.18764024 9.34550366,4.49366289 8.40863491,4.01118454 C7.64516389,3.61795336 6.87614324,3.43311659 6.18538374,3.43311659 C5.50096669,3.43311659 4.66104664,3.79101133 4.66104664,4.59967222 C4.66104664,5.25305663 5.46993404,5.70416256 6.99427115,6.27973884 C10.3695809,7.5241026 12.3451372,8.25506862 12.3451372,11.3193724 C12.3451372,14.0726702 10.3850973,16.1566143 6.3098541,16.1566143 L6.30872152,16.1563877 Z" id="Fill-17" fill="#663991" mask="url(#mask-6)"></path>
                </g>
            </g>
        </g>
    </g>
</svg>