<svg id="Capa_1" data-name="Capa 1" xmlns="http://www.w3.org/2000/svg" viewBox="0 0 507.84 162.07"><defs><style>.cls-1{fill:#083366;}.cls-2{fill:#f25641;}.cls-3{fill:#ce0658;}.cls-4{fill:#f2cd33;}.cls-5{fill:#fc8e2b;}</style></defs><title>Mesa de trabajo 4 copia</title><path class="cls-1" d="M80.12,123.59a70.76,70.76,0,0,1,17.63-3.17,2,2,0,0,0,.09-.63q0-40.22,0-80.41v-1H78.39V91.42c-.36-.45-.55-.68-.72-.92L63.57,71Q51.51,54.36,39.45,37.67A1.28,1.28,0,0,0,38,37c-1.24.22-2.51.27-3.76.47A51.78,51.78,0,0,0,20.9,41.27a1.55,1.55,0,0,0-.9,1.41q0,40.21,0,80.41v1H39.5V70.48l.82,1.14,36.27,50.81A3.13,3.13,0,0,0,80.12,123.59Z"/><path class="cls-1" d="M211.83,133.1V123q0-37.33,0-74.67a30.6,30.6,0,0,1,.39-4.69,5.46,5.46,0,0,1,4.26-4.44,26.07,26.07,0,0,1,5.11-.7c9.16-.07,18.32-.18,27.48,0a38.3,38.3,0,0,1,17,4.09c7.45,3.84,11.69,9.93,12.56,18.28.71,6.85-.37,13.34-4.26,19.18a27.35,27.35,0,0,1-10.32,9l-1.81.93c.15.25.28.49.43.7q4.95,7.08,9.92,14.16c.64.91,1.35,1.76,2.06,2.62a13.14,13.14,0,0,0,11,4.93c.4,0,.79,0,1.19,0,.63,4.87-.37,8.73-5.65,11.28-3.72,1.8-7.73,1.93-11.77,1.65a16.22,16.22,0,0,1-12.3-6.94c-1.34-1.81-2.59-3.68-3.77-5.6-2.81-4.56-5.56-9.16-8.36-13.74a1.3,1.3,0,0,0-.86-.63c-4.1,0-8.2,0-12.42,0v20.69a3.52,3.52,0,0,1-.94,2.38A45.39,45.39,0,0,1,211.83,133.1Zm19.85-78.44v1.26q0,11.94,0,23.87c0,.83-.26,2,.17,2.39s1.62.25,2.46.23A100.33,100.33,0,0,0,245,82.05c7.95-1,14-6.61,13.42-15.75-.27-4.48-2.33-7.86-6.54-9.72a17.56,17.56,0,0,0-2.69-.95C243.47,54.13,237.62,54.91,231.68,54.66Z"/><path class="cls-1" d="M483.06,124.06c-.43,0-.7,0-1,0-6.79,0-13.57,0-20.36,0a1,1,0,0,1-1.17-.83c-1.46-4.41-3-8.81-4.44-13.22-.21-.63-.46-.93-1.21-.93q-15.78,0-31.55,0h-.87L419.68,119c-.43,1.51-.84,3-1.32,4.52a1,1,0,0,1-.72.58c-7,0-14,0-21,0a2.06,2.06,0,0,1-.35-.07c.34-1.13.68-2.24,1-3.35,7.57-23.32,16.41-46.12,27.66-67.94a26.22,26.22,0,0,0,1.38-3.33,11.68,11.68,0,0,0,.47-7.58c2.59-.88,5.11-1.86,7.7-2.59a66.46,66.46,0,0,1,14-2.12,1.08,1.08,0,0,1,1.27.83q16.46,42,32.95,83.91A9.93,9.93,0,0,1,483.06,124.06ZM450.32,93c-3.51-10.31-7-20.48-10.51-30.86-4.53,10.25-8.56,20.41-12.1,30.86Z"/><path class="cls-1" d="M313.15,75.33H343V89.69H313.12c0,.41-.05.73-.05,1.06,0,2.8,0,5.61,0,8.42a14.72,14.72,0,0,0,.24,2.57c.73,3.84,2.89,5.65,7.17,6,.8.07,1.6.07,2.4.07h28.76v16.27h-1q-16.6,0-33.21,0a45.58,45.58,0,0,1-11.92-1.28c-6.48-1.74-10.28-6-11.5-12.49a49.3,49.3,0,0,1-.91-8.9c-.09-17.85-.06-35.71,0-53.57a24.31,24.31,0,0,1,.5-4.49,5.05,5.05,0,0,1,4.19-4.18,32,32,0,0,1,5.84-.75c6.94-.13,13.88-.14,20.82-.17,6.41,0,12.83,0,19.25,0,.55,0,1.11,0,1.66.08a4.79,4.79,0,0,1,4.72,4,22.79,22.79,0,0,1,.69,4.18c.14,2.4.13,4.81.17,7.22,0,.24,0,.48-.05.8H313.15Z"/><path class="cls-1" d="M385,124.08H365.24c0-.36,0-.69,0-1q0-37.71,0-75.4a29.57,29.57,0,0,1,.41-4.78,5,5,0,0,1,4.1-4.24A22.06,22.06,0,0,1,374.2,38c3.57-.09,7.14,0,10.78,0Z"/><path class="cls-2" d="M151.36,19.83a.43.43,0,0,1,.78,0l11.7,24.3,2.68,5.62a27.43,27.43,0,0,0-14.31,7.58c-1.49,1.07-13.4,10.29-13.4,46.71,0,2.17.05,4.3.13,6.39a330.32,330.32,0,0,1,2.16-69.29Z"/><path class="cls-3" d="M141.1,41.14,103,120.22h.24c7.27.3,14.93,2.09,22.85,4.42,4.39,1.2,9.34,2.73,14.83,4.67a133,133,0,0,1-2-18.88A330.42,330.42,0,0,1,141.1,41.14Z"/><path class="cls-4" d="M152.37,57.21s16.44,11,54.94,77.24l-40.79-84.7A28.36,28.36,0,0,0,152.37,57.21Z"/><path class="cls-5" d="M154.43,58.93c3.8,3.88,11.49,15.4,11.49,45.11,0,12.09-1.33,23.11-3.51,31.42a91.6,91.6,0,0,0,20,2.46,86.8,86.8,0,0,0,24.88-3.47C176.6,81.64,159.93,63.94,154.43,58.93Z"/></svg>