<svg xmlns="http://www.w3.org/2000/svg" xmlns:xlink="http://www.w3.org/1999/xlink" viewBox="0 0 546.31 266.75">
  <defs>
    <clipPath id="clip-path" transform="translate(-4 -9.76)">
      <path d="M.19,133.74c16.85-22.19,49.37-46.36,99.88-9C119.66,139.29,139.44,150,155,151a42.91,42.91,0,0,0,15.41-2.58c-.07,0-.12.07.08,0,7.12-2.7,12-5.27,18.12-12.8,19.62-27.1,19.9-69.35,50.19-84.48L209.32,23.48,166.8,9.76,123.57,0,73.76,16.25,36.54,30,5,71.94,0,101.68Z" style="fill: none"/>
    </clipPath>
    <clipPath id="clip-path-2" transform="translate(-4 -9.76)">
      <path d="M18.3,209.15c10-21.56,40.13-67.53,104.22-25.11,76,50.3,96.48-46.64,98.13-54.46,7.67-36.37,21.69-52.07,32.47-58.85l16.55,45v71.88L218.08,252l-59.49,31L63.67,265.56,30,236.51Z" style="fill: none"/>
    </clipPath>
  </defs>
  <title>logo-ness</title>
  <g id="Layer_2" data-name="Layer 2">
    <g id="Layer_1-2" data-name="Layer 1">
      <g>
        <g>
          <g style="clip-path: url(#clip-path)">
            <g>
              <g>
                <g style="opacity: 0.17">
                  <path d="M82.26,236.51c40.91,0,80.09-36,78.2-78.2s-34.36-78.2-78.2-78.2c-40.9,0-80.09,36-78.19,78.2s34.35,78.2,78.19,78.2Z" transform="translate(-4 -9.76)" style="fill: #029adc"/>
                </g>
                <g style="opacity: 0.17">
                  <path d="M99.48,265.56c40.91,0,80.09-36,78.2-78.2s-34.36-78.2-78.2-78.2c-40.9,0-80.09,36-78.19,78.2s34.35,78.2,78.19,78.2Z" transform="translate(-4 -9.76)" style="fill: #029adc"/>
                </g>
                <g style="opacity: 0.17">
                  <path d="M134.51,276.5c40.91,0,80.09-36,78.2-78.2s-34.36-78.2-78.2-78.2c-40.9,0-80.09,36-78.2,78.2s34.36,78.2,78.2,78.2Z" transform="translate(-4 -9.76)" style="fill: #029adc"/>
                </g>
                <g style="opacity: 0.17">
                  <path d="M156.41,272.12c40.9,0,80.09-36,78.19-78.2s-34.35-78.19-78.19-78.19c-40.91,0-80.09,36-78.2,78.19s34.36,78.2,78.2,78.2Z" transform="translate(-4 -9.76)" style="fill: #029adc"/>
                </g>
                <g style="opacity: 0.17">
                  <path d="M184.87,237.09c40.9,0,80.09-36,78.2-78.19s-34.36-78.2-78.2-78.2c-40.91,0-80.09,36-78.2,78.2s34.36,78.19,78.2,78.19Z" transform="translate(-4 -9.76)" style="fill: #029adc"/>
                </g>
                <g style="opacity: 0.17">
                  <path d="M184.87,208.63c40.9,0,80.09-36,78.2-78.2s-34.36-78.19-78.2-78.19c-40.91,0-80.09,36-78.2,78.19s34.36,78.2,78.2,78.2Z" transform="translate(-4 -9.76)" style="fill: #029adc"/>
                </g>
                <g style="opacity: 0.17">
                  <path d="M160.78,180.17c40.91,0,80.09-36,78.2-78.2s-34.36-78.2-78.2-78.2c-40.9,0-80.09,36-78.19,78.2s34.35,78.2,78.19,78.2Z" transform="translate(-4 -9.76)" style="fill: #029adc"/>
                </g>
                <g style="opacity: 0.17">
                  <path d="M97.13,179.88c40.9,0,80.09-36,78.2-78.2S141,23.48,97.13,23.48c-40.91,0-80.09,36-78.2,78.2s34.36,78.2,78.2,78.2Z" transform="translate(-4 -9.76)" style="fill: #029adc"/>
                </g>
                <g style="opacity: 0.17">
                  <path d="M130.13,166.15c40.91,0,80.09-36,78.2-78.2S174,9.76,130.13,9.76C89.23,9.76,50,45.72,51.94,88s34.35,78.2,78.19,78.2Z" transform="translate(-4 -9.76)" style="fill: #029adc"/>
                </g>
                <g style="opacity: 0.17">
                  <path d="M176.11,182.36c40.9,0,80.09-36,78.2-78.2S220,26,176.11,26c-40.9,0-80.09,36-78.2,78.2s34.36,78.2,78.2,78.2Z" transform="translate(-4 -9.76)" style="fill: #029adc"/>
                </g>
                <g style="opacity: 0.17">
                  <path d="M83.28,199.58c40.9,0,80.09-36,78.19-78.2s-34.36-78.2-78.19-78.2c-40.91,0-80.1,36-78.2,78.2s34.36,78.2,78.2,78.2Z" transform="translate(-4 -9.76)" style="fill: #029adc"/>
                </g>
              </g>
              <g>
                <g style="opacity: 0.17">
                  <path d="M108.24,241.47c40.91,0,80.09-36,78.2-78.2s-34.36-78.19-78.2-78.19c-40.9,0-80.09,36-78.2,78.19s34.36,78.2,78.2,78.2Z" transform="translate(-4 -9.76)" style="fill: #004b6b"/>
                </g>
                <g style="opacity: 0.17">
                  <path d="M156.41,243.66c40.9,0,80.09-36,78.19-78.2s-34.35-78.2-78.19-78.2c-40.91,0-80.09,36-78.2,78.2s34.36,78.2,78.2,78.2Z" transform="translate(-4 -9.76)" style="fill: #004b6b"/>
                </g>
                <g style="opacity: 0.17">
                  <path d="M167.35,213c40.91,0,80.09-36,78.2-78.2s-34.36-78.2-78.2-78.2c-40.9,0-80.09,36-78.2,78.2s34.36,78.2,78.2,78.2Z" transform="translate(-4 -9.76)" style="fill: #004b6b"/>
                </g>
                <g style="opacity: 0.17">
                  <path d="M130.13,195.5c40.91,0,80.09-36,78.2-78.2S174,39.1,130.13,39.1c-40.9,0-80.09,36-78.19,78.2s34.35,78.2,78.19,78.2Z" transform="translate(-4 -9.76)" style="fill: #004b6b"/>
                </g>
                <g style="opacity: 0.17">
                  <path d="M103.86,208.63c40.91,0,80.09-36,78.2-78.2s-34.36-78.19-78.2-78.19c-40.9,0-80.09,36-78.2,78.19s34.36,78.2,78.2,78.2Z" transform="translate(-4 -9.76)" style="fill: #004b6b"/>
                </g>
                <g style="opacity: 0.17">
                  <path d="M88.54,228.34c40.9,0,80.09-36,78.2-78.2s-34.36-78.2-78.2-78.2c-40.91,0-80.09,36-78.2,78.2s34.36,78.2,78.2,78.2Z" transform="translate(-4 -9.76)" style="fill: #004b6b"/>
                </g>
                <g style="opacity: 0.17">
                  <path d="M123.57,232.72c40.9,0,80.09-36,78.2-78.2s-34.36-78.2-78.2-78.2c-40.91,0-80.09,36-78.2,78.2s34.36,78.2,78.2,78.2Z" transform="translate(-4 -9.76)" style="fill: #004b6b"/>
                </g>
                <g style="opacity: 0.17">
                  <path d="M158.59,226.15c40.91,0,80.1-36,78.2-78.2s-34.36-78.2-78.2-78.2c-40.9,0-80.09,36-78.19,78.2s34.36,78.2,78.19,78.2Z" transform="translate(-4 -9.76)" style="fill: #004b6b"/>
                </g>
                <g style="opacity: 0.17">
                  <path d="M154.22,197.69c40.9,0,80.09-36,78.2-78.2s-34.36-78.2-78.2-78.2c-40.91,0-80.09,36-78.2,78.2s34.36,78.2,78.2,78.2Z" transform="translate(-4 -9.76)" style="fill: #004b6b"/>
                </g>
                <g style="opacity: 0.17">
                  <path d="M108.24,206.44c40.91,0,80.09-36,78.2-78.19s-34.36-78.2-78.2-78.2c-40.9,0-80.09,36-78.2,78.2s34.36,78.19,78.2,78.19Z" transform="translate(-4 -9.76)" style="fill: #004b6b"/>
                </g>
                <g style="opacity: 0.17">
                  <path d="M114.81,248c40.9,0,80.09-36,78.2-78.2s-34.36-78.2-78.2-78.2c-40.91,0-80.09,36-78.2,78.2S71,248,114.81,248Z" transform="translate(-4 -9.76)" style="fill: #004b6b"/>
                </g>
              </g>
              <g>
                <g style="opacity: 0.17">
                  <path d="M132.32,224c40.91,0,80.09-36,78.2-78.2s-34.36-78.2-78.2-78.2c-40.9,0-80.09,36-78.2,78.2S88.48,224,132.32,224Z" transform="translate(-4 -9.76)" style="fill: #041e33"/>
                </g>
                <g style="opacity: 0.17">
                  <path d="M123.57,228.34c40.9,0,80.09-36,78.2-78.2s-34.36-78.2-78.2-78.2c-40.91,0-80.09,36-78.2,78.2s34.36,78.2,78.2,78.2Z" transform="translate(-4 -9.76)" style="fill: #041e33"/>
                </g>
                <g style="opacity: 0.17">
                  <path d="M152,234.91c40.9,0,80.09-36,78.2-78.2s-34.36-78.2-78.2-78.2c-40.91,0-80.09,36-78.2,78.2s34.36,78.2,78.2,78.2Z" transform="translate(-4 -9.76)" style="fill: #041e33"/>
                </g>
                <g style="opacity: 0.17">
                  <path d="M134.51,218.49c40.91,0,80.09-36,78.2-78.2s-34.36-78.2-78.2-78.2c-40.9,0-80.09,36-78.2,78.2s34.36,78.2,78.2,78.2Z" transform="translate(-4 -9.76)" style="fill: #041e33"/>
                </g>
              </g>
            </g>
          </g>
          <g style="clip-path: url(#clip-path-2)">
            <g>
              <g>
                <g style="opacity: 0.17">
                  <path d="M82.26,236.51c40.91,0,80.09-36,78.2-78.2s-34.36-78.2-78.2-78.2c-40.9,0-80.09,36-78.19,78.2s34.35,78.2,78.19,78.2Z" transform="translate(-4 -9.76)" style="fill: #029adc"/>
                </g>
                <g style="opacity: 0.17">
                  <path d="M99.48,265.56c40.91,0,80.09-36,78.2-78.2s-34.36-78.2-78.2-78.2c-40.9,0-80.09,36-78.19,78.2s34.35,78.2,78.19,78.2Z" transform="translate(-4 -9.76)" style="fill: #029adc"/>
                </g>
                <g style="opacity: 0.17">
                  <path d="M134.51,276.5c40.91,0,80.09-36,78.2-78.2s-34.36-78.2-78.2-78.2c-40.9,0-80.09,36-78.2,78.2s34.36,78.2,78.2,78.2Z" transform="translate(-4 -9.76)" style="fill: #029adc"/>
                </g>
                <g style="opacity: 0.17">
                  <path d="M156.41,272.12c40.9,0,80.09-36,78.19-78.2s-34.35-78.19-78.19-78.19c-40.91,0-80.09,36-78.2,78.19s34.36,78.2,78.2,78.2Z" transform="translate(-4 -9.76)" style="fill: #029adc"/>
                </g>
                <g style="opacity: 0.17">
                  <path d="M184.87,237.09c40.9,0,80.09-36,78.2-78.19s-34.36-78.2-78.2-78.2c-40.91,0-80.09,36-78.2,78.2s34.36,78.19,78.2,78.19Z" transform="translate(-4 -9.76)" style="fill: #029adc"/>
                </g>
                <g style="opacity: 0.17">
                  <path d="M184.87,208.63c40.9,0,80.09-36,78.2-78.2s-34.36-78.19-78.2-78.19c-40.91,0-80.09,36-78.2,78.19s34.36,78.2,78.2,78.2Z" transform="translate(-4 -9.76)" style="fill: #029adc"/>
                </g>
                <g style="opacity: 0.17">
                  <path d="M160.78,180.17c40.91,0,80.09-36,78.2-78.2s-34.36-78.2-78.2-78.2c-40.9,0-80.09,36-78.19,78.2s34.35,78.2,78.19,78.2Z" transform="translate(-4 -9.76)" style="fill: #029adc"/>
                </g>
                <g style="opacity: 0.17">
                  <path d="M97.13,179.88c40.9,0,80.09-36,78.2-78.2S141,23.48,97.13,23.48c-40.91,0-80.09,36-78.2,78.2s34.36,78.2,78.2,78.2Z" transform="translate(-4 -9.76)" style="fill: #029adc"/>
                </g>
                <g style="opacity: 0.17">
                  <path d="M130.13,166.15c40.91,0,80.09-36,78.2-78.2S174,9.76,130.13,9.76C89.23,9.76,50,45.72,51.94,88s34.35,78.2,78.19,78.2Z" transform="translate(-4 -9.76)" style="fill: #029adc"/>
                </g>
                <g style="opacity: 0.17">
                  <path d="M176.11,182.36c40.9,0,80.09-36,78.2-78.2S220,26,176.11,26c-40.9,0-80.09,36-78.2,78.2s34.36,78.2,78.2,78.2Z" transform="translate(-4 -9.76)" style="fill: #029adc"/>
                </g>
                <g style="opacity: 0.17">
                  <path d="M83.28,199.58c40.9,0,80.09-36,78.19-78.2s-34.36-78.2-78.19-78.2c-40.91,0-80.1,36-78.2,78.2s34.36,78.2,78.2,78.2Z" transform="translate(-4 -9.76)" style="fill: #029adc"/>
                </g>
              </g>
              <g>
                <g style="opacity: 0.17">
                  <path d="M108.24,241.47c40.91,0,80.09-36,78.2-78.2s-34.36-78.19-78.2-78.19c-40.9,0-80.09,36-78.2,78.19s34.36,78.2,78.2,78.2Z" transform="translate(-4 -9.76)" style="fill: #004b6b"/>
                </g>
                <g style="opacity: 0.17">
                  <path d="M156.41,243.66c40.9,0,80.09-36,78.19-78.2s-34.35-78.2-78.19-78.2c-40.91,0-80.09,36-78.2,78.2s34.36,78.2,78.2,78.2Z" transform="translate(-4 -9.76)" style="fill: #004b6b"/>
                </g>
                <g style="opacity: 0.17">
                  <path d="M167.35,213c40.91,0,80.09-36,78.2-78.2s-34.36-78.2-78.2-78.2c-40.9,0-80.09,36-78.2,78.2s34.36,78.2,78.2,78.2Z" transform="translate(-4 -9.76)" style="fill: #004b6b"/>
                </g>
                <g style="opacity: 0.17">
                  <path d="M130.13,195.5c40.91,0,80.09-36,78.2-78.2S174,39.1,130.13,39.1c-40.9,0-80.09,36-78.19,78.2s34.35,78.2,78.19,78.2Z" transform="translate(-4 -9.76)" style="fill: #004b6b"/>
                </g>
                <g style="opacity: 0.17">
                  <path d="M103.86,208.63c40.91,0,80.09-36,78.2-78.2s-34.36-78.19-78.2-78.19c-40.9,0-80.09,36-78.2,78.19s34.36,78.2,78.2,78.2Z" transform="translate(-4 -9.76)" style="fill: #004b6b"/>
                </g>
                <g style="opacity: 0.17">
                  <path d="M88.54,228.34c40.9,0,80.09-36,78.2-78.2s-34.36-78.2-78.2-78.2c-40.91,0-80.09,36-78.2,78.2s34.36,78.2,78.2,78.2Z" transform="translate(-4 -9.76)" style="fill: #004b6b"/>
                </g>
                <g style="opacity: 0.17">
                  <path d="M123.57,232.72c40.9,0,80.09-36,78.2-78.2s-34.36-78.2-78.2-78.2c-40.91,0-80.09,36-78.2,78.2s34.36,78.2,78.2,78.2Z" transform="translate(-4 -9.76)" style="fill: #004b6b"/>
                </g>
                <g style="opacity: 0.17">
                  <path d="M158.59,226.15c40.91,0,80.1-36,78.2-78.2s-34.36-78.2-78.2-78.2c-40.9,0-80.09,36-78.19,78.2s34.36,78.2,78.19,78.2Z" transform="translate(-4 -9.76)" style="fill: #004b6b"/>
                </g>
                <g style="opacity: 0.17">
                  <path d="M154.22,197.69c40.9,0,80.09-36,78.2-78.2s-34.36-78.2-78.2-78.2c-40.91,0-80.09,36-78.2,78.2s34.36,78.2,78.2,78.2Z" transform="translate(-4 -9.76)" style="fill: #004b6b"/>
                </g>
                <g style="opacity: 0.17">
                  <path d="M108.24,206.44c40.91,0,80.09-36,78.2-78.19s-34.36-78.2-78.2-78.2c-40.9,0-80.09,36-78.2,78.2s34.36,78.19,78.2,78.19Z" transform="translate(-4 -9.76)" style="fill: #004b6b"/>
                </g>
                <g style="opacity: 0.17">
                  <path d="M114.81,248c40.9,0,80.09-36,78.2-78.2s-34.36-78.2-78.2-78.2c-40.91,0-80.09,36-78.2,78.2S71,248,114.81,248Z" transform="translate(-4 -9.76)" style="fill: #004b6b"/>
                </g>
              </g>
              <g>
                <g style="opacity: 0.17">
                  <path d="M132.32,224c40.91,0,80.09-36,78.2-78.2s-34.36-78.2-78.2-78.2c-40.9,0-80.09,36-78.2,78.2S88.48,224,132.32,224Z" transform="translate(-4 -9.76)" style="fill: #041e33"/>
                </g>
                <g style="opacity: 0.17">
                  <path d="M123.57,228.34c40.9,0,80.09-36,78.2-78.2s-34.36-78.2-78.2-78.2c-40.91,0-80.09,36-78.2,78.2s34.36,78.2,78.2,78.2Z" transform="translate(-4 -9.76)" style="fill: #041e33"/>
                </g>
                <g style="opacity: 0.17">
                  <path d="M152,234.91c40.9,0,80.09-36,78.2-78.2s-34.36-78.2-78.2-78.2c-40.91,0-80.09,36-78.2,78.2s34.36,78.2,78.2,78.2Z" transform="translate(-4 -9.76)" style="fill: #041e33"/>
                </g>
                <g style="opacity: 0.17">
                  <path d="M134.51,218.49c40.91,0,80.09-36,78.2-78.2s-34.36-78.2-78.2-78.2c-40.9,0-80.09,36-78.2,78.2s34.36,78.2,78.2,78.2Z" transform="translate(-4 -9.76)" style="fill: #041e33"/>
                </g>
              </g>
            </g>
          </g>
        </g>
        <g>
          <g>
            <path d="M355.33,131q-3.76-6-8.56-12.86t-9.94-13.75q-5.13-6.84-10.21-13.19t-9.49-11H305.75v0H298.6v5.46h3.06s3.49.93,4.09,4v67.05h13.69V102q4.65,5.52,9.77,12.42t10.11,14.24q5,7.35,9.6,14.58t8.4,13.52h11.81V80.21h-13.8Z" transform="translate(-4 -9.76)" style="fill: #004b6b"/>
            <polygon points="388.54 112.74 419.89 112.74 419.89 101.15 388.54 101.15 388.54 82.27 423.76 82.27 423.76 70.45 374.62 70.45 374.62 146.97 426.41 146.97 426.41 135.16 388.54 135.16 388.54 112.74" style="fill: #004b6b"/>
            <path d="M484.67,120.79a27.09,27.09,0,0,0-7.18-4.86q-4.25-2-9.66-4c-2.06-.74-4-1.51-5.68-2.32a26.13,26.13,0,0,1-4.53-2.65,10.75,10.75,0,0,1-3-3.26,8.58,8.58,0,0,1-1.05-4.36,7.6,7.6,0,0,1,3.15-6.51q3.15-2.33,8.77-2.32a38.59,38.59,0,0,1,9.22,1.1,33.31,33.31,0,0,1,8.23,3.2l4.3-11.26A39.22,39.22,0,0,0,478.49,80a46.61,46.61,0,0,0-12.76-1.6q-12.36,0-19.54,5.91T439,100.64a19.38,19.38,0,0,0,1.71,8.5,19.67,19.67,0,0,0,4.52,6.07,25.93,25.93,0,0,0,6.52,4.25q3.69,1.71,7.67,3.15t7.07,2.7a28,28,0,0,1,5.24,3,12.28,12.28,0,0,1,3.32,3.59,9.31,9.31,0,0,1,1.15,4.75,8.43,8.43,0,0,1-3.42,7.18q-3.42,2.53-10.93,2.53a39.85,39.85,0,0,1-12.25-1.65,47.25,47.25,0,0,1-8.07-3.31l-4.08,11.37a32,32,0,0,0,3.53,1.71,47,47,0,0,0,5.25,1.82,54.3,54.3,0,0,0,6.95,1.49,56.32,56.32,0,0,0,8.67.61q14.13,0,21.48-5.69t7.34-16.06a24.52,24.52,0,0,0-1.55-9.22A18.91,18.91,0,0,0,484.67,120.79Z" transform="translate(-4 -9.76)" style="fill: #004b6b"/>
            <path d="M548.76,127.41a18.91,18.91,0,0,0-4.47-6.62,27.09,27.09,0,0,0-7.18-4.86q-4.25-2-9.66-4c-2.06-.74-4-1.51-5.68-2.32a26.13,26.13,0,0,1-4.53-2.65,10.75,10.75,0,0,1-3-3.26,8.58,8.58,0,0,1-1-4.36,7.6,7.6,0,0,1,3.15-6.51c2.09-1.55,5-2.32,8.77-2.32a38.59,38.59,0,0,1,9.22,1.1,33.47,33.47,0,0,1,8.23,3.2l4.3-11.26A39.22,39.22,0,0,0,538.11,80a46.61,46.61,0,0,0-12.76-1.6q-12.36,0-19.54,5.91t-7.17,16.29a19.38,19.38,0,0,0,1.71,8.5,19.67,19.67,0,0,0,4.52,6.07,25.93,25.93,0,0,0,6.52,4.25q3.69,1.71,7.67,3.15t7.07,2.7a28,28,0,0,1,5.24,3,12.11,12.11,0,0,1,3.31,3.59,9.21,9.21,0,0,1,1.16,4.75,8.43,8.43,0,0,1-3.42,7.18q-3.42,2.53-10.93,2.53a39.85,39.85,0,0,1-12.25-1.65,47.25,47.25,0,0,1-8.07-3.31l-4.08,11.37a32,32,0,0,0,3.53,1.71,46.34,46.34,0,0,0,5.25,1.82,54.3,54.3,0,0,0,7,1.49,56.23,56.23,0,0,0,8.67.61q14.13,0,21.47-5.69t7.35-16.06A24.52,24.52,0,0,0,548.76,127.41Z" transform="translate(-4 -9.76)" style="fill: #004b6b"/>
          </g>
          <g>
            <path d="M307.39,170.15a10.13,10.13,0,0,1,5.53,1.26,4.62,4.62,0,0,1,1.93,4.15,4.66,4.66,0,0,1-2,4.2,10.15,10.15,0,0,1-5.58,1.29h-1.14v5.39h-3.63V170.56a21.21,21.21,0,0,1,2.51-.32C306,170.18,306.72,170.15,307.39,170.15Zm.23,3.09-.78,0-.66.05V178h1.14a6.16,6.16,0,0,0,2.83-.51,2,2,0,0,0,1-1.91,2.35,2.35,0,0,0-.24-1.12,1.75,1.75,0,0,0-.7-.7,3.1,3.1,0,0,0-1.1-.38A9,9,0,0,0,307.62,173.24Z" transform="translate(-4 -9.76)" style="fill: #00709e"/>
            <path d="M324.36,177.28c-.31-.07-.68-.16-1.1-.24a6.31,6.31,0,0,0-1.35-.13,6,6,0,0,0-.77.06,4.51,4.51,0,0,0-.69.13v9.34H317V174.87a19.38,19.38,0,0,1,2.19-.62A13,13,0,0,1,322,174l.67,0,.79.1c.27,0,.53.08.79.14a4.06,4.06,0,0,1,.68.19Z" transform="translate(-4 -9.76)" style="fill: #00709e"/>
            <path d="M337.7,180.31a7.84,7.84,0,0,1-.42,2.63,5.75,5.75,0,0,1-1.21,2.05,5.35,5.35,0,0,1-1.89,1.31,6.34,6.34,0,0,1-2.48.47,6.22,6.22,0,0,1-2.45-.47,5.26,5.26,0,0,1-1.89-1.31,6.11,6.11,0,0,1-1.24-2.05,7.6,7.6,0,0,1-.44-2.63,7.16,7.16,0,0,1,.46-2.63,5.9,5.9,0,0,1,1.25-2,5.56,5.56,0,0,1,1.91-1.31,6.08,6.08,0,0,1,2.4-.46,6.19,6.19,0,0,1,2.43.46,5.52,5.52,0,0,1,1.9,1.31,6,6,0,0,1,1.23,2A7.6,7.6,0,0,1,337.7,180.31Zm-3.53,0a4.45,4.45,0,0,0-.64-2.53,2.11,2.11,0,0,0-1.83-.92,2.14,2.14,0,0,0-1.84.92,4.37,4.37,0,0,0-.65,2.53,4.42,4.42,0,0,0,.65,2.54,2.11,2.11,0,0,0,1.84.94,2.08,2.08,0,0,0,1.83-.94A4.5,4.5,0,0,0,334.17,180.31Z" transform="translate(-4 -9.76)" style="fill: #00709e"/>
            <path d="M339.49,180.33a7.14,7.14,0,0,1,.43-2.5,6.19,6.19,0,0,1,1.24-2.05,6.08,6.08,0,0,1,2-1.38,6.56,6.56,0,0,1,2.65-.51,9,9,0,0,1,1.79.17,9.67,9.67,0,0,1,1.58.5l-.72,2.77a8.52,8.52,0,0,0-1.07-.32,5.22,5.22,0,0,0-1.3-.15,2.73,2.73,0,0,0-2.29,1,3.93,3.93,0,0,0-.76,2.51,4.1,4.1,0,0,0,.71,2.56,3,3,0,0,0,2.48.9,9.42,9.42,0,0,0,1.35-.11,5.34,5.34,0,0,0,1.32-.38l.49,2.84a7.89,7.89,0,0,1-1.51.44,9.57,9.57,0,0,1-2,.19,7.54,7.54,0,0,1-2.88-.5,5.42,5.42,0,0,1-2-1.36,5.24,5.24,0,0,1-1.14-2A8.62,8.62,0,0,1,339.49,180.33Z" transform="translate(-4 -9.76)" style="fill: #00709e"/>
            <path d="M350.23,180.42a7.59,7.59,0,0,1,.5-2.85,6.08,6.08,0,0,1,1.31-2,5.63,5.63,0,0,1,1.87-1.23,5.87,5.87,0,0,1,2.18-.42,5.39,5.39,0,0,1,4.11,1.59,6.56,6.56,0,0,1,1.51,4.69c0,.2,0,.42,0,.66s0,.45,0,.64h-7.86a2.29,2.29,0,0,0,1,1.7,4.08,4.08,0,0,0,2.37.62,10.57,10.57,0,0,0,1.87-.17,7.42,7.42,0,0,0,1.5-.43L361,186a4.48,4.48,0,0,1-.74.28c-.31.09-.66.17-1,.24s-.78.13-1.22.18a11.2,11.2,0,0,1-1.3.07,7.6,7.6,0,0,1-2.87-.49,5.58,5.58,0,0,1-2-1.34,5.22,5.22,0,0,1-1.19-2A8.1,8.1,0,0,1,350.23,180.42Zm8.14-1.32a4.07,4.07,0,0,0-.15-.86,2.26,2.26,0,0,0-.4-.75,2,2,0,0,0-1.68-.74,2.31,2.31,0,0,0-1,.2,2,2,0,0,0-.7.52,2.33,2.33,0,0,0-.43.75,4.53,4.53,0,0,0-.22.88Z" transform="translate(-4 -9.76)" style="fill: #00709e"/>
            <path d="M367.59,184a3.5,3.5,0,0,0,1.35-.19.7.7,0,0,0,.4-.72.88.88,0,0,0-.51-.73,9.25,9.25,0,0,0-1.56-.71,15,15,0,0,1-1.48-.63,4.52,4.52,0,0,1-1.13-.78,3.25,3.25,0,0,1-.72-1.08,4,4,0,0,1-.25-1.51,3.25,3.25,0,0,1,1.28-2.72,5.53,5.53,0,0,1,3.51-1,11.51,11.51,0,0,1,2.14.2,9.18,9.18,0,0,1,1.62.43l-.6,2.69a12.89,12.89,0,0,0-1.31-.37,7.17,7.17,0,0,0-1.6-.16c-1.08,0-1.62.3-1.62.91a.87.87,0,0,0,.07.37.67.67,0,0,0,.28.31,3.6,3.6,0,0,0,.56.33c.24.12.55.24.92.39a13.5,13.5,0,0,1,1.89.83,4.7,4.7,0,0,1,1.17.88,2.62,2.62,0,0,1,.6,1.06,4.48,4.48,0,0,1,.18,1.34,3.09,3.09,0,0,1-1.36,2.74,6.78,6.78,0,0,1-3.85.93,10.9,10.9,0,0,1-2.71-.28,10.62,10.62,0,0,1-1.5-.47l.58-2.81a11.56,11.56,0,0,0,1.82.55A8.91,8.91,0,0,0,367.59,184Z" transform="translate(-4 -9.76)" style="fill: #00709e"/>
            <path d="M378.57,184a3.57,3.57,0,0,0,1.35-.19.71.71,0,0,0,.39-.72.88.88,0,0,0-.51-.73,9.25,9.25,0,0,0-1.56-.71,14.75,14.75,0,0,1-1.47-.63,4.34,4.34,0,0,1-1.13-.78,3.1,3.1,0,0,1-.72-1.08,4,4,0,0,1-.26-1.51,3.28,3.28,0,0,1,1.28-2.72,5.53,5.53,0,0,1,3.51-1,11.35,11.35,0,0,1,2.14.2,9.57,9.57,0,0,1,1.63.43l-.61,2.69a12.89,12.89,0,0,0-1.31-.37,7,7,0,0,0-1.59-.16c-1.09,0-1.63.3-1.63.91a.87.87,0,0,0,.07.37.8.8,0,0,0,.28.31,4.36,4.36,0,0,0,.57.33c.24.12.54.24.92.39a13.86,13.86,0,0,1,1.88.83,4.52,4.52,0,0,1,1.17.88,2.77,2.77,0,0,1,.61,1.06,4.85,4.85,0,0,1,.17,1.34,3.09,3.09,0,0,1-1.36,2.74,6.76,6.76,0,0,1-3.85.93,10.81,10.81,0,0,1-2.7-.28,10.19,10.19,0,0,1-1.5-.47l.58-2.81a11.45,11.45,0,0,0,1.81.55A8.93,8.93,0,0,0,378.57,184Z" transform="translate(-4 -9.76)" style="fill: #00709e"/>
            <path d="M397.47,180.31a7.84,7.84,0,0,1-.42,2.63,5.75,5.75,0,0,1-1.21,2.05,5.39,5.39,0,0,1-1.9,1.31,6.29,6.29,0,0,1-2.47.47,6.22,6.22,0,0,1-2.45-.47,5.39,5.39,0,0,1-1.9-1.31,6.09,6.09,0,0,1-1.23-2.05,8,8,0,0,1,0-5.26,5.77,5.77,0,0,1,1.26-2,5.62,5.62,0,0,1,1.9-1.31,6.16,6.16,0,0,1,2.41-.46,6.22,6.22,0,0,1,2.43.46,5.48,5.48,0,0,1,1.89,1.31,5.71,5.71,0,0,1,1.23,2A7.37,7.37,0,0,1,397.47,180.31Zm-3.54,0a4.37,4.37,0,0,0-.64-2.53,2.08,2.08,0,0,0-1.82-.92,2.14,2.14,0,0,0-1.84.92,4.37,4.37,0,0,0-.65,2.53,4.42,4.42,0,0,0,.65,2.54,2.11,2.11,0,0,0,1.84.94,2.05,2.05,0,0,0,1.82-.94A4.42,4.42,0,0,0,393.93,180.31Z" transform="translate(-4 -9.76)" style="fill: #00709e"/>
            <path d="M403.35,184a3.57,3.57,0,0,0,1.35-.19.71.71,0,0,0,.39-.72.88.88,0,0,0-.51-.73,9.25,9.25,0,0,0-1.56-.71,14.75,14.75,0,0,1-1.47-.63,4.34,4.34,0,0,1-1.13-.78,3.1,3.1,0,0,1-.72-1.08,4,4,0,0,1-.26-1.51,3.28,3.28,0,0,1,1.28-2.72,5.53,5.53,0,0,1,3.51-1,11.35,11.35,0,0,1,2.14.2,9.57,9.57,0,0,1,1.63.43l-.61,2.69a12.89,12.89,0,0,0-1.31-.37,7,7,0,0,0-1.59-.16c-1.09,0-1.63.3-1.63.91a.87.87,0,0,0,.07.37.8.8,0,0,0,.28.31,4.36,4.36,0,0,0,.57.33c.24.12.54.24.92.39a13.86,13.86,0,0,1,1.88.83,4.52,4.52,0,0,1,1.17.88,2.77,2.77,0,0,1,.61,1.06,4.85,4.85,0,0,1,.17,1.34,3.09,3.09,0,0,1-1.36,2.74,6.76,6.76,0,0,1-3.85.93,10.81,10.81,0,0,1-2.7-.28,10.19,10.19,0,0,1-1.5-.47l.58-2.81a11.45,11.45,0,0,0,1.81.55A8.93,8.93,0,0,0,403.35,184Z" transform="translate(-4 -9.76)" style="fill: #00709e"/>
            <path d="M415.51,180.42a7.6,7.6,0,0,1,.49-2.85,6.26,6.26,0,0,1,1.32-2,5.43,5.43,0,0,1,1.87-1.23,5.82,5.82,0,0,1,2.17-.42,5.42,5.42,0,0,1,4.12,1.59,6.61,6.61,0,0,1,1.51,4.69c0,.2,0,.42,0,.66s0,.45-.05.64h-7.86a2.32,2.32,0,0,0,1,1.7,4.08,4.08,0,0,0,2.37.62,10.49,10.49,0,0,0,1.87-.17,7.05,7.05,0,0,0,1.5-.43l.47,2.81a5,5,0,0,1-.75.28,10.53,10.53,0,0,1-1,.24c-.38.07-.79.13-1.22.18a11.33,11.33,0,0,1-1.3.07,7.6,7.6,0,0,1-2.87-.49,5.62,5.62,0,0,1-2-1.34,5.2,5.2,0,0,1-1.18-2A7.81,7.81,0,0,1,415.51,180.42Zm8.13-1.32a3.52,3.52,0,0,0-.15-.86,2.24,2.24,0,0,0-.39-.75,2.26,2.26,0,0,0-.68-.53,2.19,2.19,0,0,0-1-.21,2.35,2.35,0,0,0-1,.2,2,2,0,0,0-.7.52,2.53,2.53,0,0,0-.43.75,5.39,5.39,0,0,0-.22.88Z" transform="translate(-4 -9.76)" style="fill: #00709e"/>
            <path d="M446.82,170.33v3.09H442v13h-3.63v-13h-4.86v-3.09Z" transform="translate(-4 -9.76)" style="fill: #00709e"/>
            <path d="M446.28,180.42a7.59,7.59,0,0,1,.5-2.85,6.26,6.26,0,0,1,1.32-2,5.43,5.43,0,0,1,1.87-1.23,5.82,5.82,0,0,1,2.17-.42,5.42,5.42,0,0,1,4.12,1.59,6.61,6.61,0,0,1,1.51,4.69c0,.2,0,.42,0,.66s0,.45-.05.64h-7.86a2.32,2.32,0,0,0,1,1.7,4.08,4.08,0,0,0,2.37.62,10.49,10.49,0,0,0,1.87-.17,7.05,7.05,0,0,0,1.5-.43l.47,2.81a5,5,0,0,1-.75.28,10.53,10.53,0,0,1-1,.24c-.38.07-.79.13-1.22.18a11.33,11.33,0,0,1-1.3.07,7.6,7.6,0,0,1-2.87-.49,5.62,5.62,0,0,1-2-1.34,5.2,5.2,0,0,1-1.18-2A7.81,7.81,0,0,1,446.28,180.42Zm8.14-1.32a3.52,3.52,0,0,0-.15-.86,2.24,2.24,0,0,0-.39-.75,2.26,2.26,0,0,0-.68-.53,2.19,2.19,0,0,0-1-.21,2.35,2.35,0,0,0-1,.2,2,2,0,0,0-.7.52,2.53,2.53,0,0,0-.43.75,5.39,5.39,0,0,0-.22.88Z" transform="translate(-4 -9.76)" style="fill: #00709e"/>
            <path d="M459.56,180.33a7.14,7.14,0,0,1,.43-2.5,6.19,6.19,0,0,1,1.24-2.05,6,6,0,0,1,2-1.38,6.52,6.52,0,0,1,2.65-.51,9,9,0,0,1,1.79.17,9.67,9.67,0,0,1,1.58.5l-.72,2.77a9.05,9.05,0,0,0-1.07-.32,5.22,5.22,0,0,0-1.3-.15,2.73,2.73,0,0,0-2.29,1,3.87,3.87,0,0,0-.76,2.51,4.1,4.1,0,0,0,.71,2.56,3,3,0,0,0,2.48.9,9.18,9.18,0,0,0,1.34-.11,5.29,5.29,0,0,0,1.33-.38l.49,2.84a7.89,7.89,0,0,1-1.51.44,9.57,9.57,0,0,1-2,.19,7.54,7.54,0,0,1-2.88-.5,5.42,5.42,0,0,1-2-1.36,5.24,5.24,0,0,1-1.14-2A8.62,8.62,0,0,1,459.56,180.33Z" transform="translate(-4 -9.76)" style="fill: #00709e"/>
            <path d="M471.46,174.63a20.53,20.53,0,0,1,5.21-.69,7.16,7.16,0,0,1,2.59.4,4,4,0,0,1,1.64,1.15,4.57,4.57,0,0,1,.86,1.77,9.42,9.42,0,0,1,.25,2.28v6.9h-3.46V180a4.69,4.69,0,0,0-.44-2.37,1.79,1.79,0,0,0-1.65-.7l-.79,0c-.28,0-.53.05-.75.09v9.43h-3.46Z" transform="translate(-4 -9.76)" style="fill: #00709e"/>
            <path d="M496.29,180.31a7.84,7.84,0,0,1-.42,2.63,5.75,5.75,0,0,1-1.21,2.05,5.44,5.44,0,0,1-1.89,1.31,6.37,6.37,0,0,1-2.48.47,6.22,6.22,0,0,1-2.45-.47,5.39,5.39,0,0,1-1.9-1.31,6.09,6.09,0,0,1-1.23-2.05,7.6,7.6,0,0,1-.44-2.63,7.37,7.37,0,0,1,.45-2.63,5.92,5.92,0,0,1,1.26-2,5.62,5.62,0,0,1,1.9-1.31,6.16,6.16,0,0,1,2.41-.46,6.22,6.22,0,0,1,2.43.46,5.39,5.39,0,0,1,1.89,1.31,5.88,5.88,0,0,1,1.24,2A7.6,7.6,0,0,1,496.29,180.31Zm-3.54,0a4.37,4.37,0,0,0-.64-2.53,2.08,2.08,0,0,0-1.82-.92,2.14,2.14,0,0,0-1.84.92,4.37,4.37,0,0,0-.65,2.53,4.42,4.42,0,0,0,.65,2.54,2.11,2.11,0,0,0,1.84.94,2.05,2.05,0,0,0,1.82-.94A4.42,4.42,0,0,0,492.75,180.31Z" transform="translate(-4 -9.76)" style="fill: #00709e"/>
            <path d="M503.54,186.68a8.83,8.83,0,0,1-2.45-.33,3.59,3.59,0,0,1-1.49-.85,2.79,2.79,0,0,1-.74-1.32,6.81,6.81,0,0,1-.2-1.76V169l3.46-.56v13.32a5.28,5.28,0,0,0,.07.84,1.51,1.51,0,0,0,.27.63,1.42,1.42,0,0,0,.57.42,3.34,3.34,0,0,0,1,.21Z" transform="translate(-4 -9.76)" style="fill: #00709e"/>
            <path d="M517.14,180.31a7.84,7.84,0,0,1-.42,2.63,5.75,5.75,0,0,1-1.21,2.05,5.35,5.35,0,0,1-1.89,1.31,6.34,6.34,0,0,1-2.48.47,6.26,6.26,0,0,1-2.45-.47A5.26,5.26,0,0,1,506.8,185a6.11,6.11,0,0,1-1.24-2.05,7.6,7.6,0,0,1-.44-2.63,7.16,7.16,0,0,1,.46-2.63,5.9,5.9,0,0,1,1.25-2,5.66,5.66,0,0,1,1.91-1.31,6.57,6.57,0,0,1,4.83,0,5.52,5.52,0,0,1,1.9,1.31,5.86,5.86,0,0,1,1.23,2A7.6,7.6,0,0,1,517.14,180.31Zm-3.53,0a4.45,4.45,0,0,0-.64-2.53,2.28,2.28,0,0,0-3.66,0,4.29,4.29,0,0,0-.65,2.53,4.35,4.35,0,0,0,.65,2.54,2.25,2.25,0,0,0,3.66,0A4.5,4.5,0,0,0,513.61,180.31Z" transform="translate(-4 -9.76)" style="fill: #00709e"/>
            <path d="M530.06,184.91a5.87,5.87,0,0,1-1.52,4.45,6.58,6.58,0,0,1-4.7,1.45,13,13,0,0,1-2.24-.19,14.88,14.88,0,0,1-2.07-.53l.61-2.9a11.33,11.33,0,0,0,1.71.51,10.28,10.28,0,0,0,2,.18,2.82,2.82,0,0,0,2.11-.65,2.37,2.37,0,0,0,.61-1.67v-.44a5.17,5.17,0,0,1-1.15.38,5.81,5.81,0,0,1-1.29.13,5,5,0,0,1-3.88-1.5,6.06,6.06,0,0,1-1.35-4.2,6.85,6.85,0,0,1,.42-2.45,5.06,5.06,0,0,1,1.22-1.89,5.3,5.3,0,0,1,2-1.22,7.48,7.48,0,0,1,2.63-.43c.42,0,.85,0,1.29.05s.88.09,1.31.16.85.13,1.25.22.74.17,1,.26Zm-7.6-5c0,1.94.78,2.91,2.35,2.91a3.55,3.55,0,0,0,1-.14,3.93,3.93,0,0,0,.79-.32v-5.54c-.17,0-.37-.06-.6-.08s-.51,0-.82,0a2.39,2.39,0,0,0-2,.9A3.76,3.76,0,0,0,522.46,179.93Z" transform="translate(-4 -9.76)" style="fill: #00709e"/>
            <path d="M536.81,170.68a1.89,1.89,0,0,1-.62,1.5,2.19,2.19,0,0,1-2.9,0,1.86,1.86,0,0,1-.62-1.5,1.89,1.89,0,0,1,.62-1.5,2.22,2.22,0,0,1,2.9,0A1.92,1.92,0,0,1,536.81,170.68Zm-.33,15.76H533V174.21h3.46Z" transform="translate(-4 -9.76)" style="fill: #00709e"/>
            <path d="M543.83,173.89a8,8,0,0,1,2.55.35,3.83,3.83,0,0,1,1.64,1,3.65,3.65,0,0,1,.87,1.58,7.82,7.82,0,0,1,.26,2.07v7.2q-.75.16-2.07.39a20.71,20.71,0,0,1-3.21.22,10.18,10.18,0,0,1-2.15-.21,4.69,4.69,0,0,1-1.66-.69,3.06,3.06,0,0,1-1.07-1.24,4.26,4.26,0,0,1-.37-1.88,3.55,3.55,0,0,1,.43-1.82,3.25,3.25,0,0,1,1.15-1.18,5,5,0,0,1,1.65-.64,9.36,9.36,0,0,1,1.93-.2,10.68,10.68,0,0,1,1.2.06,5.81,5.81,0,0,1,.85.15v-.32a1.9,1.9,0,0,0-.54-1.42,2.58,2.58,0,0,0-1.86-.54,12.5,12.5,0,0,0-1.74.13,8.15,8.15,0,0,0-1.49.36l-.44-2.79.75-.2c.31-.07.63-.13,1-.18s.73-.1,1.13-.14A11.76,11.76,0,0,1,543.83,173.89Zm.28,10.14c.34,0,.66,0,1,0a6,6,0,0,0,.75-.07v-2.62a4.39,4.39,0,0,0-.63-.1,7.23,7.23,0,0,0-.77,0,9,9,0,0,0-.92.05,2.55,2.55,0,0,0-.75.22,1.34,1.34,0,0,0-.52.45,1.22,1.22,0,0,0-.18.69,1.18,1.18,0,0,0,.55,1.13A3,3,0,0,0,544.11,184Z" transform="translate(-4 -9.76)" style="fill: #00709e"/>
          </g>
          <g>
            <path d="M316.92,207.23a9.89,9.89,0,0,1-.71,3.93,7.48,7.48,0,0,1-2,2.79,8.39,8.39,0,0,1-3.06,1.67,12.67,12.67,0,0,1-3.9.56c-.71,0-1.46,0-2.23-.11a14.74,14.74,0,0,1-2.06-.34V198.78a12.17,12.17,0,0,1,2.06-.36,21.69,21.69,0,0,1,2.23-.12,13,13,0,0,1,3.9.56,8.39,8.39,0,0,1,3.06,1.67,7.65,7.65,0,0,1,2,2.79A9.85,9.85,0,0,1,316.92,207.23Zm-12.22,7.28.77.1a18.36,18.36,0,0,0,2,.08,9.76,9.76,0,0,0,3.32-.52,6.47,6.47,0,0,0,2.39-1.49,6.08,6.08,0,0,0,1.44-2.34,9.18,9.18,0,0,0,.49-3.11,9,9,0,0,0-.49-3.09,6.15,6.15,0,0,0-1.44-2.34,6.58,6.58,0,0,0-2.39-1.48,9.53,9.53,0,0,0-3.32-.52,16.06,16.06,0,0,0-2,.08l-.77.1Z" transform="translate(-4 -9.76)" style="fill: #98b1b7"/>
            <path d="M333.2,216V198.46h10.15V200h-8.42v6.11h7.5v1.47h-7.5v7H344V216Z" transform="translate(-4 -9.76)" style="fill: #98b1b7"/>
            <path d="M363.48,214.91a5.8,5.8,0,0,0,3.2-.75,2.69,2.69,0,0,0,1.14-2.42,3.18,3.18,0,0,0-.37-1.62,3.4,3.4,0,0,0-1-1.09,6.15,6.15,0,0,0-1.39-.76l-1.65-.67a18.13,18.13,0,0,1-1.95-.88,6.36,6.36,0,0,1-1.47-1,3.84,3.84,0,0,1-.93-1.31,4.38,4.38,0,0,1-.32-1.73,4.07,4.07,0,0,1,1.5-3.42,6.6,6.6,0,0,1,4.16-1.17,9.09,9.09,0,0,1,1.39.11,9.49,9.49,0,0,1,1.29.26c.39.11.76.24,1.09.37a4.75,4.75,0,0,1,.82.43l-.61,1.45a6,6,0,0,0-1.79-.81,7.81,7.81,0,0,0-2.26-.31,6.66,6.66,0,0,0-1.54.17,3.21,3.21,0,0,0-1.2.53,2.53,2.53,0,0,0-.8.92,3.18,3.18,0,0,0,0,2.72,3,3,0,0,0,.85,1,6.73,6.73,0,0,0,1.28.74c.49.22,1,.45,1.6.68s1.34.58,2,.86a6.93,6.93,0,0,1,1.61,1,4.25,4.25,0,0,1,1.09,1.42,4.68,4.68,0,0,1,.41,2,4.14,4.14,0,0,1-1.66,3.58,7.62,7.62,0,0,1-4.5,1.19,11.58,11.58,0,0,1-1.85-.13,12.3,12.3,0,0,1-1.5-.31,8.83,8.83,0,0,1-1.12-.4,6.73,6.73,0,0,1-.71-.35l.56-1.5q.26.15.69.36a9.35,9.35,0,0,0,2.33.71A10.09,10.09,0,0,0,363.48,214.91Z" transform="translate(-4 -9.76)" style="fill: #98b1b7"/>
            <path d="M399.19,207.23a10.06,10.06,0,0,1-.71,3.93,7.48,7.48,0,0,1-2,2.79,8.47,8.47,0,0,1-3.06,1.67,12.67,12.67,0,0,1-3.9.56c-.71,0-1.46,0-2.24-.11a14.58,14.58,0,0,1-2.05-.34V198.78a12,12,0,0,1,2.05-.36,22,22,0,0,1,2.24-.12,13,13,0,0,1,3.9.56,8.47,8.47,0,0,1,3.06,1.67,7.65,7.65,0,0,1,2,2.79A10,10,0,0,1,399.19,207.23ZM387,214.51l.77.1a18.23,18.23,0,0,0,2,.08,9.76,9.76,0,0,0,3.32-.52,6.47,6.47,0,0,0,2.39-1.49,6.08,6.08,0,0,0,1.44-2.34,9.44,9.44,0,0,0,.48-3.11,9.28,9.28,0,0,0-.48-3.09,6.15,6.15,0,0,0-1.44-2.34,6.58,6.58,0,0,0-2.39-1.48,9.53,9.53,0,0,0-3.32-.52,16,16,0,0,0-2,.08l-.77.1Z" transform="translate(-4 -9.76)" style="fill: #98b1b7"/>
            <path d="M415.47,216V198.46h10.14V200H417.2v6.11h7.5v1.47h-7.5v7h9.07V216Z" transform="translate(-4 -9.76)" style="fill: #98b1b7"/>
            <path d="M460.6,202.06a11.53,11.53,0,0,0,2.72-1.36,11.91,11.91,0,0,0,2.36-2.24h1.17V216H465.2V201a5.3,5.3,0,0,1-.72.63,9.3,9.3,0,0,1-1,.65c-.37.21-.76.41-1.17.61a7.24,7.24,0,0,1-1.22.46Z" transform="translate(-4 -9.76)" style="fill: #98b1b7"/>
            <path d="M497.05,205.43q0,5.3-2.53,8t-7.41,2.68l-.05-1.37a11.78,11.78,0,0,0,3.07-.38,6.75,6.75,0,0,0,2.42-1.18,6.17,6.17,0,0,0,1.68-2.05,9.16,9.16,0,0,0,.87-3,9.39,9.39,0,0,1-1.65.62,7.58,7.58,0,0,1-2.05.26,5.8,5.8,0,0,1-2.41-.44,4.31,4.31,0,0,1-1.6-1.18,4.76,4.76,0,0,1-.89-1.7,7.37,7.37,0,0,1-.28-2,6.72,6.72,0,0,1,.31-1.95,5.23,5.23,0,0,1,1-1.79,5.11,5.11,0,0,1,1.62-1.31,5,5,0,0,1,2.32-.51,4.89,4.89,0,0,1,4.2,1.94A9,9,0,0,1,497.05,205.43Zm-5.5,2.08a6.91,6.91,0,0,0,2-.27,12.68,12.68,0,0,0,1.64-.62c0-.2,0-.4,0-.58s0-.4,0-.64a14.68,14.68,0,0,0-.17-2.25,5.62,5.62,0,0,0-.61-1.88,3.45,3.45,0,0,0-1.17-1.28,3.49,3.49,0,0,0-1.88-.47,3.41,3.41,0,0,0-1.6.34,3,3,0,0,0-1.06.9,3.78,3.78,0,0,0-.6,1.3,5.86,5.86,0,0,0-.19,1.52,4.25,4.25,0,0,0,.9,3A3.45,3.45,0,0,0,491.55,207.51Z" transform="translate(-4 -9.76)" style="fill: #98b1b7"/>
            <path d="M523.78,205.43q0,5.3-2.53,8t-7.41,2.68l-.05-1.37a11.78,11.78,0,0,0,3.07-.38,6.75,6.75,0,0,0,2.42-1.18A6.17,6.17,0,0,0,521,211.1a9.16,9.16,0,0,0,.87-3,9.09,9.09,0,0,1-1.65.62,7.53,7.53,0,0,1-2,.26,5.8,5.8,0,0,1-2.41-.44,4.31,4.31,0,0,1-1.6-1.18,4.76,4.76,0,0,1-.89-1.7,7.37,7.37,0,0,1-.28-2,6.72,6.72,0,0,1,.31-1.95,5.23,5.23,0,0,1,1-1.79,5.11,5.11,0,0,1,1.62-1.31,5,5,0,0,1,2.32-.51,4.89,4.89,0,0,1,4.2,1.94A9,9,0,0,1,523.78,205.43Zm-5.5,2.08a6.91,6.91,0,0,0,2-.27,12.68,12.68,0,0,0,1.64-.62c0-.2,0-.4,0-.58s0-.4,0-.64a14.68,14.68,0,0,0-.17-2.25,5.62,5.62,0,0,0-.61-1.88,3.37,3.37,0,0,0-1.17-1.28,3.47,3.47,0,0,0-1.88-.47,3.41,3.41,0,0,0-1.6.34,3,3,0,0,0-1.06.9,4,4,0,0,0-.6,1.3,5.86,5.86,0,0,0-.19,1.52,4.25,4.25,0,0,0,.9,3A3.45,3.45,0,0,0,518.28,207.51Z" transform="translate(-4 -9.76)" style="fill: #98b1b7"/>
            <path d="M540.79,202.06a11.73,11.73,0,0,0,2.72-1.36,12.19,12.19,0,0,0,2.36-2.24H547V216h-1.65V201a6,6,0,0,1-.72.63,10.38,10.38,0,0,1-1,.65c-.37.21-.76.41-1.17.61a7.58,7.58,0,0,1-1.22.46Z" transform="translate(-4 -9.76)" style="fill: #98b1b7"/>
          </g>
        </g>
      </g>
    </g>
  </g>
</svg>
