<svg width="858" height="475" viewBox="0 0 858 475" fill="none" xmlns="http://www.w3.org/2000/svg">
<path d="M5.62329 475H97.9425V447.448H39.5491V334.636H5.62329V475Z" fill="#EC0F86"/>
<path d="M137.851 334.636H103.925V475H137.851V334.636Z" fill="#EC0F86"/>
<path d="M179.438 334.636H141.469L188.828 475H233.994L281.353 334.636H243.383L211.993 437.442H210.828L179.438 334.636Z" fill="#EC0F86"/>
<path d="M284.885 475H382.756V447.448H318.811V418.594H377.753V390.974H318.811V362.188H382.756V334.636H284.885V475Z" fill="#EC0F86"/>
<path d="M39.9602 0.636353H1.71659L44.1409 70.8182L0.619995 141H39.2748L65.593 96.1768H66.6896L93.0078 141H131.937L88.2102 70.8182L130.566 0.636353H92.5966L66.6896 44.9797H65.593L39.9602 0.636353Z" fill="white"/>
<path d="M166.893 141L176.146 111.529H224.601L233.854 141H270.316L222.957 0.636353H177.791L130.432 141H166.893ZM184.233 85.7592L199.791 36.0014H200.888L216.514 85.7592H184.233Z" fill="white"/>
<path d="M273.848 0.636353V141H306.883V54.3008H308.048L341.768 140.109H362.877L396.598 54.7805H397.763V141H430.798V0.636353H388.784L353.145 87.5412H351.5L315.861 0.636353H273.848Z" fill="white"/>
<path d="M470.74 141L479.993 111.529H528.448L537.701 141H574.162L526.803 0.636353H481.638L434.279 141H470.74ZM488.08 85.7592L503.638 36.0014H504.734L520.361 85.7592H488.08Z" fill="white"/>
<path d="M577.695 141H611.621V92.9556H629.029L654.662 141H691.672L662.543 87.5412C677.964 80.5504 686.874 66.7745 686.874 47.3785C686.874 18.5245 667.204 0.636353 635.677 0.636353H577.695V141ZM611.621 66.2262V27.9826H628.344C643.559 27.9826 651.715 34.3565 651.715 47.3785C651.715 60.4006 643.559 66.2262 628.344 66.2262H611.621Z" fill="white"/>
<path d="M727.828 0.636353H693.902V141H727.828V0.636353Z" fill="white"/>
<path d="M857.005 0.636353H823.148V81.5099H821.983L766.742 0.636353H737.546V141H771.471V59.9893H772.362L828.22 141H857.005V0.636353Z" fill="white"/>
<path d="M81.4936 206.718H113.98C113.706 180.468 92.8022 162.717 60.1786 162.717C28.1033 162.717 5.00636 180.194 5.21197 206.307C5.14343 227.622 20.0845 239.616 44.3466 245.167L59.0135 248.594C74.4343 252.158 81.3565 256.339 81.4936 264.221C81.3565 272.788 73.3377 278.75 59.6988 278.75C44.6892 278.75 34.8199 271.76 34.066 258.258H1.57951C1.99073 291.087 24.8135 306.782 60.1101 306.782C95.0639 306.782 115.762 290.95 115.899 264.289C115.762 241.877 100.615 228.17 72.9265 222.07L60.864 219.329C48.1161 216.587 40.0287 212.338 40.3029 203.977C40.3714 196.3 46.951 190.749 60.1101 190.749C73.3377 190.749 80.6026 196.712 81.4936 206.718Z" fill="white"/>
<path d="M206.371 164.636V252.227C206.371 266.825 196.022 277.311 180.875 277.311C165.66 277.311 155.379 266.825 155.379 252.227V164.636H121.453V255.174C121.453 286.564 145.167 306.782 180.875 306.782C216.308 306.782 240.228 286.564 240.228 255.174V164.636H206.371Z" fill="white"/>
<path d="M249.911 164.636V305H282.946V218.301H284.111L317.832 304.109H338.941L372.661 218.781H373.826V305H406.861V164.636H364.848L329.209 251.541H327.564L291.925 164.636H249.911Z" fill="white"/>
<path d="M416.442 164.636V305H449.477V218.301H450.642L484.362 304.109H505.471L539.191 218.781H540.357V305H573.391V164.636H531.378L495.739 251.541H494.094L458.455 164.636H416.442Z" fill="white"/>
<path d="M616.898 164.636H582.972V305H616.898V164.636Z" fill="white"/>
<path d="M622.024 192.188H664.654V305H698.1V192.188H740.661V164.636H622.024V192.188Z" fill="white"/>
</svg>
