<svg width="657" height="302" viewBox="0 0 657 302" fill="none" xmlns="http://www.w3.org/2000/svg">
<path d="M418.716 212.655H414.156V215.879H418.555V217.783H414.156V224.17H412.181V210.752H418.716V212.655Z" fill="#FBD499"/>
<path d="M422.989 210.752V222.267H426.837V224.17H421.013V210.752H422.989Z" fill="#FBD499"/>
<path d="M427.515 217.4C427.515 215.512 428.19 213.889 429.541 212.534C430.886 211.178 432.502 210.5 434.39 210.5C436.254 210.5 437.854 211.184 439.187 212.551C440.527 213.918 441.196 215.561 441.196 217.478C441.196 219.408 440.524 221.044 439.179 222.388C437.828 223.738 436.198 224.413 434.288 224.413C432.598 224.413 431.081 223.814 429.736 222.614C428.255 221.288 427.515 219.55 427.515 217.4ZM429.507 217.426C429.507 218.909 429.993 220.129 430.965 221.085C431.931 222.041 433.047 222.519 434.313 222.519C435.686 222.519 436.845 222.032 437.789 221.059C438.732 220.074 439.204 218.875 439.204 217.461C439.204 216.03 438.738 214.831 437.806 213.863C436.879 212.89 435.732 212.403 434.364 212.403C433.002 212.403 431.852 212.89 430.914 213.863C429.976 214.825 429.507 216.013 429.507 217.426Z" fill="#FBD499"/>
<path d="M448.113 218.452L452.165 224.17H449.749L446.011 218.678H445.655V224.17H443.68V210.752H445.994C447.723 210.752 448.972 211.085 449.741 211.752C450.588 212.493 451.012 213.472 451.012 214.689C451.012 215.639 450.746 216.456 450.215 217.139C449.684 217.823 448.983 218.261 448.113 218.452ZM445.655 216.914H446.282C448.153 216.914 449.088 216.181 449.088 214.715C449.088 213.342 448.178 212.655 446.358 212.655H445.655V216.914Z" fill="#FBD499"/>
<path d="M456.115 210.752V224.17H454.14V210.752H456.115Z" fill="#FBD499"/>
<path d="M466.948 220.911H461.345L459.887 224.17H457.759L464.235 209.909L470.483 224.17H468.321L466.948 220.911ZM466.143 219.008L464.202 214.446L462.167 219.008H466.143Z" fill="#FBD499"/>
<path d="M472.127 224.17V209.84L481.672 220.077V210.752H483.647V224.987L474.102 214.776V224.17H472.127Z" fill="#FBD499"/>
<path d="M486.258 217.4C486.258 215.512 486.933 213.889 488.283 212.534C489.628 211.178 491.245 210.5 493.132 210.5C494.997 210.5 496.596 211.184 497.93 212.551C499.269 213.918 499.939 215.561 499.939 217.478C499.939 219.408 499.266 221.044 497.921 222.388C496.571 223.738 494.94 224.413 493.03 224.413C491.341 224.413 489.823 223.814 488.478 222.614C486.998 221.288 486.258 219.55 486.258 217.4ZM488.25 217.426C488.25 218.909 488.736 220.129 489.708 221.085C490.674 222.041 491.79 222.519 493.056 222.519C494.429 222.519 495.587 222.032 496.531 221.059C497.475 220.074 497.947 218.875 497.947 217.461C497.947 216.03 497.481 214.831 496.548 213.863C495.621 212.89 494.474 212.403 493.107 212.403C491.745 212.403 490.595 212.89 489.657 213.863C488.719 214.825 488.25 216.013 488.25 217.426ZM496.107 207.146L492.649 209.544L491.708 208.736L494.429 205.938L496.107 207.146Z" fill="#FBD499"/>
<path d="M504.397 218.721V224.17H502.422V210.752H504.66C505.757 210.752 506.584 210.83 507.144 210.987C507.709 211.143 508.206 211.439 508.636 211.873C509.387 212.626 509.763 213.576 509.763 214.724C509.763 215.952 509.362 216.925 508.559 217.644C507.757 218.362 506.675 218.721 505.313 218.721H504.397ZM504.397 216.844H505.135C506.949 216.844 507.856 216.129 507.856 214.698C507.856 213.313 506.921 212.621 505.05 212.621H504.397V216.844Z" fill="#FBD499"/>
<path d="M511.145 217.4C511.145 215.512 511.82 213.889 513.171 212.534C514.516 211.178 516.132 210.5 518.019 210.5C519.884 210.5 521.483 211.184 522.817 212.551C524.156 213.918 524.826 215.561 524.826 217.478C524.826 219.408 524.153 221.044 522.809 222.388C521.458 223.738 519.828 224.413 517.918 224.413C516.228 224.413 514.711 223.814 513.366 222.614C511.885 221.288 511.145 219.55 511.145 217.4ZM513.137 217.426C513.137 218.909 513.623 220.129 514.595 221.085C515.561 222.041 516.677 222.519 517.943 222.519C519.316 222.519 520.475 222.032 521.418 221.059C522.362 220.074 522.834 218.875 522.834 217.461C522.834 216.03 522.368 214.831 521.435 213.863C520.509 212.89 519.361 212.403 517.994 212.403C516.632 212.403 515.482 212.89 514.544 213.863C513.606 214.825 513.137 216.013 513.137 217.426Z" fill="#FBD499"/>
<path d="M529.285 210.752V222.267H533.133V224.17H527.31V210.752H529.285Z" fill="#FBD499"/>
<path d="M536.981 210.752V224.17H535.006V210.752H536.981Z" fill="#FBD499"/>
<path d="M547.526 212.751L545.924 213.724C545.625 213.191 545.339 212.844 545.068 212.681C544.785 212.496 544.421 212.403 543.975 212.403C543.426 212.403 542.971 212.563 542.61 212.881C542.248 213.194 542.067 213.588 542.067 214.063C542.067 214.718 542.542 215.245 543.491 215.645L544.797 216.192C545.859 216.633 546.636 217.171 547.128 217.809C547.619 218.44 547.865 219.216 547.865 220.138C547.865 221.372 547.464 222.391 546.662 223.197C545.853 224.008 544.85 224.413 543.652 224.413C542.517 224.413 541.578 224.069 540.838 223.379C540.109 222.69 539.654 221.719 539.473 220.468L541.474 220.016C541.564 220.804 541.723 221.348 541.949 221.65C542.355 222.229 542.949 222.519 543.729 222.519C544.345 222.519 544.856 222.307 545.263 221.884C545.67 221.461 545.873 220.926 545.873 220.277C545.873 220.016 545.837 219.778 545.763 219.564C545.695 219.344 545.585 219.144 545.432 218.964C545.286 218.779 545.093 218.608 544.856 218.452C544.619 218.289 544.336 218.136 544.008 217.991L542.745 217.452C540.954 216.676 540.058 215.54 540.058 214.046C540.058 213.038 540.434 212.195 541.186 211.517C541.937 210.833 542.873 210.491 543.991 210.491C545.5 210.491 546.679 211.245 547.526 212.751Z" fill="#FBD499"/>
<path d="M558.385 222.267H563.259V224.17H554.468L559.012 218.53C559.458 217.968 559.831 217.481 560.131 217.07C560.436 216.659 560.668 216.314 560.826 216.036C561.148 215.491 561.309 215.002 561.309 214.567C561.309 213.941 561.094 213.417 560.665 212.994C560.235 212.571 559.704 212.36 559.071 212.36C557.749 212.36 556.992 213.162 556.8 214.767H554.833C555.149 211.94 556.542 210.526 559.012 210.526C560.204 210.526 561.205 210.914 562.013 211.691C562.826 212.467 563.233 213.429 563.233 214.576C563.233 215.306 563.044 216.021 562.665 216.722C562.473 217.087 562.191 217.522 561.818 218.026C561.45 218.524 560.984 219.115 560.419 219.799L558.385 222.267Z" fill="#FBD499"/>
<path d="M565.488 217.374C565.488 215.236 565.974 213.53 566.946 212.256C567.816 211.103 568.87 210.526 570.108 210.526C571.345 210.526 572.399 211.103 573.27 212.256C574.241 213.53 574.727 215.265 574.727 217.461C574.727 219.651 574.241 221.383 573.27 222.658C572.399 223.811 571.348 224.387 570.116 224.387C568.884 224.387 567.828 223.811 566.946 222.658C565.974 221.383 565.488 219.622 565.488 217.374ZM567.429 217.383C567.429 218.872 567.681 220.109 568.184 221.094C568.687 222.061 569.328 222.545 570.108 222.545C570.882 222.545 571.523 222.061 572.032 221.094C572.541 220.132 572.795 218.918 572.795 217.452C572.795 215.987 572.541 214.77 572.032 213.802C571.523 212.841 570.882 212.36 570.108 212.36C569.339 212.36 568.701 212.841 568.192 213.802C567.683 214.758 567.429 215.952 567.429 217.383Z" fill="#FBD499"/>
<path d="M578.83 212.647H576.567L577.652 210.752H580.805V224.17H578.83V212.647Z" fill="#FBD499"/>
<path d="M587.332 224.63L585.883 223.527L589.01 219.156C588.841 219.179 588.697 219.196 588.578 219.208C588.46 219.219 588.363 219.225 588.29 219.225C587.233 219.225 586.318 218.811 585.544 217.982C584.775 217.16 584.391 216.169 584.391 215.01C584.391 213.776 584.817 212.722 585.671 211.847C586.53 210.967 587.558 210.526 588.756 210.526C589.949 210.526 590.986 210.961 591.867 211.83C592.749 212.693 593.189 213.713 593.189 214.889C593.189 215.932 592.76 217.058 591.901 218.269L587.332 224.63ZM586.315 214.863C586.315 215.587 586.555 216.195 587.035 216.688C587.521 217.186 588.106 217.435 588.79 217.435C589.474 217.435 590.056 217.189 590.536 216.696C591.022 216.198 591.265 215.598 591.265 214.897C591.265 214.196 591.022 213.597 590.536 213.099C590.056 212.606 589.471 212.36 588.782 212.36C588.103 212.36 587.524 212.606 587.044 213.099C586.558 213.597 586.315 214.185 586.315 214.863Z" fill="#FBD499"/>
<path d="M366.413 94.3742L351.843 72H366.847L373.171 84.3948L380.983 72H395.987L380.549 94.3742L397.971 119.927H383.153L373.791 104.29L362.817 119.927H348.123L366.413 94.3742Z" fill="#FD3D00"/>
<path d="M424.551 102.129L419.095 86.1746L413.639 102.129H424.551ZM427.775 111.6H410.415L407.625 119.927H394.667L412.461 72H425.729L443.523 119.927H430.565L427.775 111.6Z" fill="#FD3D00"/>
<path d="M443.012 119.927L450.948 72H462.976L472.338 97.5523L481.638 72H493.666L501.602 119.927H489.512L485.482 92.3402L474.446 119.927H469.61L459.132 92.3402L455.102 119.927H443.012Z" fill="#FD3D00"/>
<path d="M531 102.129L525.544 86.1746L520.088 102.129H531ZM534.224 111.6H516.864L514.074 119.927H501.116L518.91 72H532.178L549.972 119.927H537.014L534.224 111.6Z" fill="#FD3D00"/>
<path d="M563.721 93.4207H566.015C568.412 93.4207 570.251 92.9122 571.533 91.8952C572.814 90.8782 573.455 89.4163 573.455 87.5094C573.455 85.6025 572.814 84.1405 571.533 83.1235C570.251 82.1065 568.412 81.598 566.015 81.598H563.721V93.4207ZM590.443 119.927H575.315L563.721 101.493V119.927H551.569V72H570.479C573.083 72 575.356 72.4026 577.299 73.2077C579.241 73.9705 580.833 75.0298 582.073 76.3858C583.354 77.7419 584.305 79.3097 584.925 81.0895C585.586 82.8693 585.917 84.7762 585.917 86.8102C585.917 90.4545 585.049 93.4207 583.313 95.709C581.618 97.9549 579.097 99.4804 575.749 100.286L590.443 119.927Z" fill="#FD3D00"/>
<path d="M603.958 72V119.927H591.806V72H603.958Z" fill="#FD3D00"/>
<path d="M610.004 119.927V72H622.156L644.6 101.303V72H656.69V119.927H644.6L622.156 90.624V119.927H610.004Z" fill="#FD3D00"/>
<path d="M380.233 146.521L374.511 149.997C373.441 148.094 372.422 146.852 371.453 146.273C370.444 145.611 369.143 145.28 367.548 145.28C365.591 145.28 363.966 145.849 362.674 146.987C361.383 148.104 360.737 149.511 360.737 151.208C360.737 153.546 362.432 155.429 365.823 156.856L370.485 158.812C374.279 160.384 377.054 162.308 378.81 164.584C380.566 166.84 381.444 169.612 381.444 172.902C381.444 177.309 380.011 180.951 377.145 183.827C374.259 186.724 370.676 188.172 366.398 188.172C362.341 188.172 358.991 186.941 356.347 184.479C353.744 182.017 352.119 178.551 351.473 174.082L358.618 172.468C358.94 175.282 359.506 177.227 360.313 178.303C361.766 180.372 363.885 181.406 366.67 181.406C368.87 181.406 370.697 180.651 372.15 179.141C373.603 177.63 374.329 175.716 374.329 173.399C374.329 172.468 374.198 171.619 373.936 170.854C373.694 170.068 373.3 169.354 372.755 168.712C372.231 168.05 371.544 167.44 370.697 166.881C369.849 166.302 368.84 165.754 367.669 165.236L363.159 163.312C356.761 160.539 353.562 156.484 353.562 151.146C353.562 147.545 354.904 144.535 357.588 142.114C360.273 139.672 363.613 138.452 367.609 138.452C372.997 138.452 377.205 141.141 380.233 146.521Z" fill="#FD9800"/>
<path d="M408.784 139.383V168.247C408.784 172.364 409.44 175.375 410.752 177.278C412.71 180.03 415.465 181.406 419.017 181.406C422.589 181.406 425.354 180.03 427.312 177.278C428.623 175.437 429.279 172.426 429.279 168.247V139.383H436.333V170.233C436.333 175.282 434.799 179.441 431.732 182.71C428.28 186.351 424.042 188.172 419.017 188.172C413.991 188.172 409.763 186.351 406.332 182.71C403.264 179.441 401.731 175.282 401.731 170.233V139.383H408.784Z" fill="#FD9800"/>
<path d="M457.71 187.303L467.549 135.782L483.594 173.026L500.214 135.782L509.054 187.303H501.818L497.307 158.377L483.472 189.507L470.031 158.346L465.006 187.303H457.71Z" fill="#FD9800"/>
<path d="M529.128 187.303L538.967 135.782L555.012 173.026L571.632 135.782L580.472 187.303H573.237L568.726 158.377L554.891 189.507L541.45 158.346L536.424 187.303H529.128Z" fill="#FD9800"/>
<path d="M609.236 139.383V187.303H602.182V139.383H609.236Z" fill="#FD9800"/>
<path d="M645.144 146.18V187.303H638.09V146.18H627.343V139.383H655.86V146.18H645.144Z" fill="#FD9800"/>
<line x1="604.68" y1="216.813" x2="656.76" y2="216.813" stroke="#FBD499" stroke-width="2"/>
<line x1="348" y1="216.813" x2="400.08" y2="216.813" stroke="#FBD499" stroke-width="2"/>
<mask id="mask0" mask-type="alpha" maskUnits="userSpaceOnUse" x="0" y="0" width="307" height="302">
<path d="M306.28 136.605C306.28 227.557 237.717 301.289 153.14 301.289C68.5631 301.289 0 227.557 0 136.605C0 45.6522 68.5631 11.472 153.14 11.472C237.717 11.472 306.28 45.6522 306.28 136.605Z" fill="white"/>
<path d="M306.28 136.605C306.28 227.557 237.717 301.289 153.14 301.289C68.5631 301.289 0 227.557 0 136.605C0 45.6522 68.5631 11.472 153.14 11.472C237.717 11.472 306.28 45.6522 306.28 136.605Z" fill="white"/>
<path d="M0 19.7621C0 8.84779 8.22757 0 18.3768 0H287.903C298.052 0 306.28 8.84779 306.28 19.7621V142.094C306.28 153.008 298.052 161.856 287.903 161.856H18.3768C8.22757 161.856 0 153.008 0 142.094V19.7621Z" fill="white"/>
<path d="M0 19.7621C0 8.84779 8.22757 0 18.3768 0H287.903C298.052 0 306.28 8.84779 306.28 19.7621V142.094C306.28 153.008 298.052 161.856 287.903 161.856H18.3768C8.22757 161.856 0 153.008 0 142.094V19.7621Z" fill="white"/>
</mask>
<g mask="url(#mask0)">
<path d="M209.196 276.796C209.196 276.796 209.221 276.775 209.259 276.743C209.221 276.775 209.196 276.796 209.196 276.796Z" fill="url(#paint0_linear)"/>
<path d="M301.582 148.821C299.537 136.719 298.173 121.919 285.559 121.919C284.178 121.919 282.97 122.041 281.896 122.246C281.941 153.076 276.249 192.449 261.696 215.879C253.725 228.711 246.786 238.831 240.793 246.826C240.787 246.834 240.781 246.844 240.775 246.852C240.77 246.858 240.764 246.865 240.759 246.871C218.324 276.788 209.195 276.797 209.195 276.797C209.195 276.797 242.945 280.583 276.695 236.873C310.446 193.163 303.628 160.923 301.582 148.821Z" fill="url(#paint1_linear)"/>
<path d="M139.549 169.756C138.872 168.314 138.059 166.731 137.206 165.029C138.059 166.731 138.872 168.314 139.549 169.756Z" fill="url(#paint2_linear)"/>
<path d="M143.432 179.21C143.432 179.21 143.491 178.977 143.603 178.527L143.102 178.248C143.318 178.877 143.432 179.21 143.432 179.21Z" fill="url(#paint3_linear)"/>
<path d="M106.272 117.915C104.253 115.488 102.155 113.097 99.9849 110.792C102.155 113.097 104.253 115.488 106.272 117.915Z" fill="url(#paint4_linear)"/>
<path d="M60.7697 89.8521C60.7567 89.8544 60.7315 89.8588 60.6985 89.8644C60.7327 89.8588 60.7571 89.8544 60.7697 89.8521Z" fill="url(#paint5_linear)"/>
<path d="M57.272 90.3769C57.0558 90.4262 56.8377 90.47 56.6176 90.5087C56.5038 90.5335 56.3971 90.5458 56.2865 90.5604C56.3971 90.5458 56.5038 90.5335 56.6176 90.5087C56.8381 90.4696 57.0558 90.4262 57.272 90.3769L57.6137 90.2979L58.2705 90.2056L57.6137 90.2979L57.272 90.3769Z" fill="url(#paint6_linear)"/>
<path d="M42.3577 110.075C42.3981 109.451 42.4944 108.842 42.557 108.224C42.6063 107.599 42.6817 106.986 42.7764 106.383C42.6817 106.986 42.6067 107.6 42.557 108.224C42.4944 108.842 42.3981 109.451 42.3577 110.075Z" fill="url(#paint7_linear)"/>
<path d="M54.7454 90.947L55.1437 90.8464L55.5374 90.7371L55.1437 90.8464L54.7454 90.947Z" fill="url(#paint8_linear)"/>
<path d="M50.4138 128.249C51.1226 128.766 51.8364 129.242 52.5393 129.679C51.836 129.242 51.1222 128.766 50.4138 128.249Z" fill="url(#paint9_linear)"/>
<path d="M63.7195 134.124C63.6042 134.111 63.4326 134.092 63.2059 134.066C63.0933 134.048 62.9681 134.025 62.8309 133.999C62.9681 134.025 63.0933 134.048 63.2059 134.066C63.4326 134.092 63.6046 134.111 63.7195 134.124Z" fill="url(#paint10_linear)"/>
<path d="M109.244 121.589C116.047 130.2 121.921 139.027 126.851 146.94C127.556 148.073 128.24 149.19 128.902 150.287C128.24 149.19 127.557 148.073 126.851 146.94C121.922 139.027 116.047 130.2 109.244 121.589Z" fill="url(#paint11_linear)"/>
<path d="M42.202 113.522C42.2012 113.523 42.2042 113.548 42.2071 113.57C42.2042 113.548 42.2012 113.523 42.202 113.522Z" fill="url(#paint12_linear)"/>
<path d="M60.3366 89.9282C60.2688 89.9406 60.23 89.9479 60.2601 89.9439C60.23 89.9479 60.2688 89.9406 60.3366 89.9282Z" fill="url(#paint13_linear)"/>
<path d="M24.3675 106.364C24.4461 107.275 24.6138 108.142 24.742 109.015C24.8862 109.881 25.002 110.748 25.1732 111.578C25.3694 112.395 25.5641 113.204 25.7568 114.006C25.9773 114.887 26.1959 115.76 26.412 116.624C26.7005 117.448 26.9863 118.263 27.269 119.07C27.6446 120.159 28.0657 120.944 28.4754 121.8C28.932 122.623 29.3694 123.439 29.898 124.18C30.8925 125.702 32.0477 127.019 33.2287 128.183C35.6384 130.465 38.1465 132.124 40.5945 133.226C45.4792 135.467 49.8435 136.029 53.342 136.118C56.8486 136.194 59.5405 135.711 61.3067 135.191C62.1906 134.953 62.8415 134.654 63.2657 134.468C63.6797 134.255 63.8935 134.144 63.8935 134.144C40.7857 138.44 27.8311 116.756 38.74 94.3854C49.6489 72.0144 88.5127 72.3585 105.558 97.4832C122.604 122.608 137.329 148.404 143.603 178.527C143.706 178.075 143.906 177.412 144.072 176.534C144.369 174.74 144.734 172.023 144.746 168.642C144.821 165.23 144.6 161.105 144.001 156.426C143.39 151.751 142.47 146.49 140.982 140.883C138.028 129.666 133.21 116.856 125.449 104.105C121.558 97.7425 116.918 91.3934 111.236 85.4801C105.56 79.5865 98.8183 74.0631 90.7617 69.906C82.7163 65.7948 73.112 63.3774 63.6554 63.7792C62.4737 63.7603 61.3122 63.9418 60.1508 64.0764C58.9932 64.2271 57.8388 64.3779 56.6867 64.5283L56.4721 64.5599C56.5351 64.5468 55.5139 64.7268 55.9092 64.6601L55.8279 64.6798L55.5042 64.7584L54.8568 64.9155L53.5648 65.2292L52.9201 65.3859L51.9843 65.6531L50.0926 66.223C49.4772 66.4223 48.815 66.6066 48.2513 66.8375L46.5773 67.5353L44.9214 68.2472C44.3721 68.5038 43.8248 68.8124 43.2818 69.097C42.1958 69.687 41.1184 70.2289 40.0871 70.9799L38.5441 72.0467L37.7838 72.5855L37.0531 73.1976C33.1348 76.3522 29.8424 80.4567 27.8022 84.8143C25.7084 89.1564 24.697 93.5752 24.2768 97.673C24.2119 98.6889 24.1826 99.6878 24.1458 100.678C24.1318 101.172 24.1177 101.664 24.104 102.154C24.131 102.63 24.1576 103.104 24.1841 103.576C24.2459 104.512 24.3069 105.442 24.3675 106.364Z" fill="url(#paint14_linear)"/>
<path d="M139.549 169.756C140.262 171.201 140.807 172.509 141.333 173.662C141.52 174.093 141.683 174.491 141.837 174.873C141.683 174.491 141.52 174.093 141.333 173.662C140.807 172.509 140.262 171.201 139.549 169.756Z" fill="url(#paint15_linear)"/>
<path d="M63.616 89.8337C63.7696 89.8393 63.9232 89.8519 64.0769 89.8764C64.6887 89.9024 65.3009 89.9454 65.9127 90.0062C65.3005 89.9458 64.6887 89.9024 64.0769 89.8764C63.9236 89.8523 63.77 89.8393 63.616 89.8337Z" fill="url(#paint16_linear)"/>
<path d="M65.9131 90.0063C70.1984 90.4294 74.4924 91.6999 78.8266 93.8903C80.0608 94.5245 81.2922 95.2243 82.5174 95.9824C81.2922 95.2243 80.0608 94.5245 78.8266 93.8903C74.4924 91.6999 70.1981 90.4298 65.9131 90.0063Z" fill="url(#paint17_linear)"/>
<path d="M42.2384 112.898L42.2827 111.96C42.3072 111.337 42.332 110.709 42.3569 110.075C42.332 110.709 42.3072 111.337 42.2827 111.96L42.2384 112.898Z" fill="url(#paint18_linear)"/>
<path d="M60.3353 89.9285C60.4022 89.9162 60.4979 89.8996 60.5831 89.8845C60.4979 89.8996 60.4022 89.9162 60.3353 89.9285Z" fill="url(#paint19_linear)"/>
<path d="M-60.5501 240.396C-59.9832 241.334 -59.3351 242.378 -58.6001 243.52C-57.8546 244.647 -57.0036 245.848 -56.0653 247.14C-54.1967 249.738 -51.9207 252.633 -49.1987 255.717C-38.3516 268.08 -20.4248 283.693 4.80539 296.887C17.4195 303.463 31.8444 309.458 48.1582 313.815C64.4615 318.133 82.7128 320.91 102.83 319.96C107.851 319.725 112.997 319.241 118.213 318.424C123.432 317.593 128.764 316.577 134.114 315.057C144.818 312.125 155.784 307.729 166.196 301.458C176.605 295.226 186.432 287.161 194.716 277.779C203.035 268.42 209.776 257.842 214.866 247.03C216.145 244.323 217.329 241.606 218.41 238.874C218.964 237.508 219.453 236.143 219.969 234.775L220.774 232.494L221.512 230.331L222.651 226.664L223.719 222.961C224.457 220.512 225.073 217.992 225.693 215.478C228.156 205.419 229.94 195.022 230.796 184.42C232.49 163.251 230.425 141.06 223.443 120.802C222.641 118.264 221.621 115.784 220.672 113.322C219.617 110.882 218.64 108.444 217.476 106.084C215.305 101.314 212.682 96.8093 210.031 92.4545C207.325 88.1214 204.399 84.0208 201.313 80.1692C200.566 79.1884 199.749 78.2677 198.971 77.3268C198.174 76.4001 197.422 75.4474 196.588 74.5681C194.949 72.7849 193.321 71.031 191.625 69.3754C189.971 67.6811 188.231 66.1091 186.536 64.5348C184.783 63.0185 183.051 61.5191 181.273 60.1188C177.759 57.2697 174.144 54.7209 170.525 52.3825C166.885 50.0776 163.275 47.9326 159.605 46.1112C155.974 44.2302 152.333 42.601 148.73 41.1688C134.306 35.4417 120.497 32.9707 108.361 32.5539C96.2151 32.1198 85.7042 33.8216 77.5135 36.3724C75.4626 37.0026 73.5553 37.7296 71.7945 38.4191C70.033 39.1773 68.4244 39.9236 66.9588 40.6912C64.0252 42.1985 61.6953 43.7227 59.9224 45.0985C59.4764 45.4387 59.0639 45.7382 58.6781 46.0528C58.3016 46.38 57.951 46.6851 57.6257 46.9676C56.9772 47.5241 56.485 48.0033 56.1046 48.4109C55.3314 49.2232 54.9326 49.6423 54.9326 49.6423C65.784 45.0997 120.194 39.791 155.208 73.504C189.763 106.775 201.127 178.922 167.263 233.772C117.49 314.389 5.84174 289.186 -63.7041 234.463C-63.7041 234.463 -63.4684 234.997 -62.9656 236.011C-62.4457 237.007 -61.6943 238.531 -60.5501 240.396Z" fill="url(#paint20_linear)"/>
<path d="M240.759 246.871C240.771 246.856 240.782 246.841 240.793 246.826C248.072 237.452 273.969 131.556 273.969 131.556C273.969 131.556 273.167 123.92 281.897 122.246C281.884 113.156 281.377 104.802 280.446 97.8271C276.355 67.1957 246.137 37.7312 238.855 40.0061C232.707 41.9266 234.272 49.8776 236.881 56.5767C231.567 46.8169 222.147 32.4265 209.878 25.5505C195.151 17.2976 179.536 22.4528 187.037 36.9083C194.537 51.3635 235.787 68.9164 243.969 154.959C251.977 239.183 210.996 275.255 209.259 276.742C210.567 275.626 233.692 255.846 240.759 246.871Z" fill="url(#paint21_linear)"/>
<path d="M273.968 131.557C273.968 131.557 248.072 237.452 240.793 246.826C246.786 238.831 253.725 228.711 261.696 215.879C276.249 192.45 281.941 153.076 281.896 122.246C273.166 123.919 273.968 131.557 273.968 131.557Z" fill="url(#paint22_linear)"/>
<path d="M273.968 131.557C273.968 131.557 248.072 237.452 240.793 246.826C246.786 238.831 253.725 228.711 261.696 215.879C276.249 192.45 281.941 153.076 281.896 122.246C273.166 123.919 273.968 131.557 273.968 131.557Z" fill="url(#paint23_linear)"/>
<path d="M240.76 246.871C233.692 255.846 210.567 275.626 209.259 276.743C209.221 276.775 209.195 276.797 209.195 276.797C209.195 276.797 218.324 276.788 240.76 246.871Z" fill="url(#paint24_linear)"/>
<path d="M240.76 246.871C233.692 255.846 210.567 275.626 209.259 276.743C209.221 276.775 209.195 276.797 209.195 276.797C209.195 276.797 218.324 276.788 240.76 246.871Z" fill="url(#paint25_linear)"/>
<path d="M-114.073 248.145C-102.595 236.97 -83.6469 247.887 -58.846 276.707C-34.0451 305.526 -14.6124 312.678 14.8762 319.475C14.8762 319.475 14.1608 319.091 12.8191 318.371C11.4923 317.678 9.54623 316.661 7.06892 315.367C4.6131 314.086 1.67449 312.498 -1.62064 310.661C-4.91265 308.815 -8.55103 306.69 -12.3657 304.245C-16.1823 301.806 -20.1929 299.08 -24.214 295.996C-28.2437 292.922 -32.2906 289.511 -36.2835 285.792C-40.2714 282.061 -44.19 278.005 -48.081 273.676C-51.9797 269.35 -55.8194 264.715 -59.8897 259.935C-63.9921 255.167 -68.2552 250.174 -73.5812 245.437C-76.2505 243.091 -79.2071 240.809 -82.5691 238.884C-85.91 236.955 -89.6773 235.414 -93.5397 234.584C-95.4678 234.177 -97.406 233.889 -99.3055 233.818L-99.6617 233.797L-100.001 233.773H-100.136L-100.675 233.774L-101.838 233.778L-103.282 233.807L-104.636 233.893C-108.203 234.174 -111.961 234.871 -115.697 236.689C-117.548 237.595 -119.38 238.818 -120.984 240.356C-122.582 241.892 -123.962 243.736 -124.847 245.721C-125.746 247.697 -126.247 249.732 -126.405 251.629C-126.566 253.532 -126.463 255.312 -126.151 256.943C-124.833 263.448 -121.452 267.752 -118.085 270.804C-114.649 273.825 -110.976 275.453 -107.895 276.037C-104.803 276.651 -102.386 276.288 -100.881 275.884C-100.12 275.689 -99.5643 275.468 -99.198 275.311C-98.8348 275.157 -98.6472 275.077 -98.6472 275.077C-98.6472 275.077 -98.8473 275.045 -99.2355 274.982C-114.057 279.877 -125.551 259.32 -114.073 248.145Z" fill="url(#paint26_linear)"/>
<path d="M271.774 299.424C271.16 298.316 270.454 297.199 269.617 296.084C269.203 295.522 268.743 294.975 268.24 294.429C267.992 294.155 267.734 293.881 267.456 293.611L267.034 293.199L266.506 292.74C266.076 292.384 265.963 292.259 265.742 292.057L265.665 291.987C265.581 291.933 265.798 292.059 265.467 291.856L265.418 291.817L265.218 291.657L264.817 291.336C264.271 290.907 263.72 290.475 263.164 290.038C261.992 289.237 260.782 288.403 259.456 287.691C256.832 286.232 253.884 284.99 250.748 284.173C244.473 282.497 237.577 282.337 231.117 283.336C224.623 284.312 218.417 286.254 212.624 288.658C206.804 291.06 201.349 293.911 196.176 296.939C185.841 302.988 176.62 309.66 168.289 315.527C164.124 318.457 160.182 321.199 156.46 323.546C154.599 324.731 152.791 325.828 151.039 326.788C149.287 327.767 147.583 328.646 145.936 329.368C144.286 330.118 142.681 330.736 141.126 331.215C139.56 331.756 138.053 332.038 136.574 332.297C133.631 332.763 130.848 332.691 128.461 332.375C127.86 332.308 127.284 332.225 126.756 332.099C126.208 331.991 125.694 331.891 125.216 331.797C124.3 331.545 123.458 331.375 122.769 331.152C121.399 330.699 120.644 330.489 120.644 330.489C132.49 340.125 159.763 343.723 196.241 314.39C232.718 285.058 275.673 290.22 271.241 324.81C271.241 324.81 271.353 324.654 271.57 324.351C271.79 324.047 272.118 323.589 272.483 322.95C273.217 321.678 274.199 319.669 274.765 316.786C275.048 315.349 275.236 313.695 275.182 311.873C275.148 310.048 274.92 308.04 274.359 305.948C273.828 303.842 273.009 301.633 271.774 299.424Z" fill="url(#paint27_linear)"/>
<path d="M167.263 233.772C201.127 178.923 189.763 106.776 155.209 73.5047C120.195 39.7916 65.7849 45.1003 54.9331 49.6429C54.9331 49.6429 55.5085 49.6165 56.623 49.5652C57.177 49.5182 57.8713 49.4949 58.6598 49.5214C59.4491 49.5344 60.3302 49.5383 61.3631 49.6019C63.3908 49.6816 65.8747 49.997 68.6621 50.4579C71.4588 50.9576 74.5975 51.7331 77.981 52.796C84.7453 54.9272 92.5275 58.2854 100.587 63.1327C101.592 63.754 102.608 64.3436 103.615 65.0232C104.631 65.6606 105.65 66.3142 106.663 67.0202C108.696 68.3968 110.723 69.8934 112.755 71.4244C114.763 73.0145 116.785 74.6271 118.76 76.3688C119.251 76.8029 119.745 77.239 120.241 77.6783C120.724 78.1294 121.21 78.5833 121.699 79.0391C122.69 79.9157 123.63 80.8818 124.594 81.8097C126.475 83.7412 128.358 85.679 130.138 87.7503C131.935 89.8006 133.638 91.9554 135.306 94.1285C136.104 95.2525 136.935 96.3426 137.691 97.497C138.49 98.6108 139.237 99.7675 139.972 100.929C141.418 103.274 142.807 105.644 144.06 108.084C145.336 110.511 146.437 113.03 147.51 115.535C148.013 116.809 148.528 118.07 148.956 119.374C149.43 120.652 149.836 121.961 150.266 123.251C151.815 128.503 153.024 133.845 153.636 139.413L153.883 141.495L154.048 143.607C154.198 144.999 154.181 146.451 154.277 147.866C154.373 150.736 154.4 153.634 154.219 156.603C153.985 162.524 153.269 168.624 152.103 174.913C150.932 181.197 149.36 187.649 147.388 194.206C146.895 195.845 146.405 197.485 145.84 199.141L145.03 201.622L144.164 204.101L143.534 205.749C143.264 206.388 143.022 207.053 142.744 207.676C142.204 208.939 141.672 210.183 141.091 211.366C138.814 216.145 136.219 220.234 133.346 223.865C130.462 227.493 127.215 230.647 123.41 233.538C119.605 236.403 115.234 239.048 110.241 241.269C107.747 242.354 105.13 243.441 102.389 244.363C99.6369 245.26 96.7996 246.147 93.8574 246.889C82.0909 249.888 69.089 251.35 56.2579 251.807C43.4007 252.268 30.6689 251.769 18.7327 250.8C6.78627 249.823 -4.38333 248.361 -14.3688 246.725C-24.3535 245.081 -33.1612 243.252 -40.4539 241.466C-44.0978 240.569 -47.3777 239.703 -50.244 238.891C-53.0899 238.051 -55.5438 237.293 -57.5387 236.636C-61.5137 235.298 -63.7032 234.463 -63.7032 234.463C5.84218 289.187 117.491 314.39 167.263 233.772Z" fill="url(#paint28_linear)"/>
<path d="M167.263 233.772C201.127 178.923 189.763 106.776 155.209 73.5047C120.195 39.7916 65.7849 45.1003 54.9331 49.6429C54.9331 49.6429 55.5085 49.6165 56.623 49.5652C57.177 49.5182 57.8713 49.4949 58.6598 49.5214C59.4491 49.5344 60.3302 49.5383 61.3631 49.6019C63.3908 49.6816 65.8747 49.997 68.6621 50.4579C71.4588 50.9576 74.5975 51.7331 77.981 52.796C84.7453 54.9272 92.5275 58.2854 100.587 63.1327C101.592 63.754 102.608 64.3436 103.615 65.0232C104.631 65.6606 105.65 66.3142 106.663 67.0202C108.696 68.3968 110.723 69.8934 112.755 71.4244C114.763 73.0145 116.785 74.6271 118.76 76.3688C119.251 76.8029 119.745 77.239 120.241 77.6783C120.724 78.1294 121.21 78.5833 121.699 79.0391C122.69 79.9157 123.63 80.8818 124.594 81.8097C126.475 83.7412 128.358 85.679 130.138 87.7503C131.935 89.8006 133.638 91.9554 135.306 94.1285C136.104 95.2525 136.935 96.3426 137.691 97.497C138.49 98.6108 139.237 99.7675 139.972 100.929C141.418 103.274 142.807 105.644 144.06 108.084C145.336 110.511 146.437 113.03 147.51 115.535C148.013 116.809 148.528 118.07 148.956 119.374C149.43 120.652 149.836 121.961 150.266 123.251C151.815 128.503 153.024 133.845 153.636 139.413L153.883 141.495L154.048 143.607C154.198 144.999 154.181 146.451 154.277 147.866C154.373 150.736 154.4 153.634 154.219 156.603C153.985 162.524 153.269 168.624 152.103 174.913C150.932 181.197 149.36 187.649 147.388 194.206C146.895 195.845 146.405 197.485 145.84 199.141L145.03 201.622L144.164 204.101L143.534 205.749C143.264 206.388 143.022 207.053 142.744 207.676C142.204 208.939 141.672 210.183 141.091 211.366C138.814 216.145 136.219 220.234 133.346 223.865C130.462 227.493 127.215 230.647 123.41 233.538C119.605 236.403 115.234 239.048 110.241 241.269C107.747 242.354 105.13 243.441 102.389 244.363C99.6369 245.26 96.7996 246.147 93.8574 246.889C82.0909 249.888 69.089 251.35 56.2579 251.807C43.4007 252.268 30.6689 251.769 18.7327 250.8C6.78627 249.823 -4.38333 248.361 -14.3688 246.725C-24.3535 245.081 -33.1612 243.252 -40.4539 241.466C-44.0978 240.569 -47.3777 239.703 -50.244 238.891C-53.0899 238.051 -55.5438 237.293 -57.5387 236.636C-61.5137 235.298 -63.7032 234.463 -63.7032 234.463C5.84218 289.187 117.491 314.39 167.263 233.772Z" fill="url(#paint29_linear)"/>
<path d="M142.274 175.959C142.138 175.621 141.992 175.255 141.837 174.872C141.992 175.255 142.138 175.621 142.274 175.959Z" fill="url(#paint30_linear)"/>
<path d="M142.274 175.959C142.364 176.185 142.452 176.4 142.538 176.608C142.771 177.285 142.958 177.83 143.102 178.248C142.959 177.83 142.771 177.285 142.538 176.608C142.452 176.401 142.364 176.185 142.274 175.959Z" fill="url(#paint31_linear)"/>
<path d="M60.2599 89.944L60.3744 89.9436L60.2599 89.944Z" fill="url(#paint32_linear)"/>
<path d="M91.5261 102.647C89.7723 101.141 87.9827 99.7258 86.1699 98.4246C87.9823 99.7258 89.7723 101.142 91.5261 102.647Z" fill="url(#paint33_linear)"/>
<path d="M128.902 150.287C130.887 153.578 132.678 156.699 134.271 159.585C134.826 160.542 135.325 161.481 135.802 162.391C135.325 161.481 134.826 160.542 134.271 159.585C132.677 156.699 130.888 153.578 128.902 150.287Z" fill="url(#paint34_linear)"/>
<path d="M137.206 165.028C136.736 164.183 136.279 163.301 135.802 162.391C136.279 163.301 136.736 164.183 137.206 165.028Z" fill="url(#paint35_linear)"/>
<path d="M48.7485 93.9377C49.4268 93.3872 50.1637 92.9084 50.9678 92.4688L51.2505 92.2888L50.9678 92.4688C50.1637 92.9084 49.4268 93.3872 48.7485 93.9377Z" fill="url(#paint36_linear)"/>
<path d="M53.6281 91.3128C53.1589 91.4955 52.6359 91.6289 52.2379 91.8554C52.6359 91.6285 53.1589 91.4955 53.6281 91.3128C53.8708 91.2287 54.0913 91.1229 54.3466 91.0472L54.7453 90.9465L54.3466 91.0472C54.0913 91.1229 53.8704 91.2287 53.6281 91.3128Z" fill="url(#paint37_linear)"/>
<path d="M91.526 102.647C92.1108 103.149 92.6913 103.661 93.2672 104.182C94.4204 105.225 95.5572 106.301 96.6772 107.404C95.5572 106.301 94.4204 105.225 93.2672 104.182C92.6913 103.661 92.1104 103.149 91.526 102.647Z" fill="url(#paint38_linear)"/>
<path d="M58.2705 90.2058L59.5867 90.0207L60.2462 89.928L59.5867 90.0207L58.2705 90.2058Z" fill="url(#paint39_linear)"/>
<path d="M55.5374 90.7366L55.9311 90.6273C56.0608 90.5922 56.1754 90.5748 56.2864 90.5598C56.1754 90.5748 56.0608 90.5922 55.9311 90.6273L55.5374 90.7366Z" fill="url(#paint40_linear)"/>
<path d="M42.8295 118.864C42.6856 118.454 42.5624 118.042 42.4823 117.617C42.4248 117.413 42.3888 117.201 42.3572 116.988C42.3888 117.201 42.4248 117.412 42.4823 117.617C42.5624 118.043 42.6856 118.454 42.8295 118.864Z" fill="url(#paint41_linear)"/>
<path d="M43.301 120.096C44.0192 121.728 45.102 123.249 46.3471 124.629C45.102 123.25 44.0195 121.728 43.301 120.096Z" fill="url(#paint42_linear)"/>
<path d="M60.6579 89.8706L60.5756 89.882L60.2461 89.9281L60.5756 89.882L60.6579 89.8706C60.768 89.8521 60.7914 89.8481 60.7684 89.8525C60.7938 89.8477 60.7704 89.8513 60.6579 89.8706Z" fill="url(#paint43_linear)"/>
<path d="M45.3071 98.2854C44.8263 99.1864 44.3912 100.17 44.0054 101.221C44.3912 100.17 44.8263 99.1864 45.3071 98.2854Z" fill="url(#paint44_linear)"/>
<path d="M59.1552 132.94C59.6849 133.137 60.1794 133.304 60.6325 133.443C60.179 133.304 59.6849 133.136 59.1552 132.94Z" fill="url(#paint45_linear)"/>
<path d="M54.6003 130.875C55.2735 131.233 55.9252 131.556 56.5491 131.846C55.9252 131.556 55.2735 131.233 54.6003 130.875Z" fill="url(#paint46_linear)"/>
<path d="M56.5492 131.846C57.4855 132.282 58.3604 132.644 59.1547 132.939C58.3604 132.644 57.4855 132.282 56.5492 131.846Z" fill="url(#paint47_linear)"/>
<path d="M45.3073 98.2856C45.7877 97.3842 46.3135 96.5648 46.8804 95.8406C47.1654 95.4763 47.4629 95.1385 47.7741 94.8228C47.4629 95.1385 47.1654 95.4763 46.8804 95.8406C46.3135 96.5648 45.7877 97.3842 45.3073 98.2856Z" fill="url(#paint48_linear)"/>
<path d="M60.3763 89.9435L62.2309 89.8847C62.539 89.8745 62.847 89.848 63.1547 89.8362C62.847 89.848 62.539 89.8745 62.2309 89.8847L60.3763 89.9435Z" fill="url(#paint49_linear)"/>
<path d="M63.1547 89.8366C63.3097 89.8307 63.4643 89.8287 63.619 89.8343C63.4647 89.8283 63.3097 89.8307 63.1547 89.8366Z" fill="url(#paint50_linear)"/>
<path d="M38.7401 94.3857C27.8308 116.757 40.7854 138.44 63.8936 134.144C63.8936 134.144 63.835 134.138 63.7201 134.125C63.6047 134.112 63.4331 134.092 63.2064 134.066C63.0938 134.048 62.9687 134.026 62.8315 133.999C62.4198 133.92 61.8987 133.803 61.2807 133.632C61.0754 133.576 60.8588 133.513 60.6325 133.443C60.1794 133.304 59.6849 133.137 59.1552 132.94C58.3604 132.645 57.4855 132.283 56.5496 131.847C55.9257 131.557 55.274 131.233 54.6008 130.875C53.9351 130.514 53.2428 130.116 52.5395 129.679C51.8366 129.242 51.1228 128.767 50.414 128.25C48.9965 127.216 47.5993 126.015 46.3472 124.63C45.1021 123.25 44.0196 121.729 43.301 120.096C43.138 119.681 42.9735 119.274 42.8296 118.864C42.6857 118.455 42.5626 118.043 42.4824 117.618C42.425 117.414 42.389 117.201 42.3573 116.988C42.3257 116.776 42.2979 116.563 42.2573 116.358C42.2319 115.939 42.1466 115.454 42.208 115.199L42.2201 114.977L42.2221 114.869L42.2143 114.628C42.1982 114.277 42.1822 113.923 42.1662 113.568L42.1537 113.301C42.2166 113.662 42.2123 113.621 42.2061 113.568C42.2037 113.547 42.2006 113.523 42.2014 113.522C42.2014 113.522 42.2033 113.528 42.2065 113.542L42.2092 113.483L42.2151 113.367L42.2377 112.899L42.2823 111.96C42.3069 111.338 42.3319 110.709 42.357 110.075C42.3976 109.451 42.4946 108.842 42.5575 108.224C42.6071 107.599 42.683 106.986 42.7784 106.383C43.0649 104.573 43.5301 102.856 44.0047 101.221C44.3906 100.17 44.8261 99.1865 45.3065 98.2855C45.787 97.384 46.3128 96.5647 46.8796 95.8405C47.1646 95.4762 47.4621 95.1384 47.7733 94.8226C48.0841 94.5069 48.4085 94.2137 48.7479 93.9382C49.4261 93.3876 50.163 92.9089 50.9672 92.4692L51.2498 92.2893L51.5841 92.1495L52.2369 91.8559C52.6353 91.6294 53.1583 91.496 53.627 91.3132C53.8698 91.2292 54.0903 91.1234 54.3456 91.0476L54.7443 90.947L55.1431 90.8463L55.5367 90.737L55.9304 90.6277C56.0602 90.5926 56.1747 90.5752 56.2857 90.5602C56.3964 90.5456 56.5031 90.5334 56.6169 90.5085C56.8373 90.4698 57.0555 90.426 57.2713 90.3767L57.613 90.2977L58.2697 90.2054L59.586 90.0207L60.2451 89.9279L60.575 89.8818L60.6575 89.8703C60.7697 89.8514 60.7935 89.8474 60.7681 89.8522C60.7556 89.8545 60.7314 89.8589 60.6974 89.8644C60.6649 89.8703 60.6247 89.877 60.5821 89.8845C60.4968 89.8995 60.4011 89.9165 60.3342 89.9283C60.2674 89.9406 60.2291 89.9477 60.2588 89.9437L60.3753 89.9433L62.2298 89.8845C62.5379 89.8743 62.8459 89.8478 63.1536 89.836C63.3076 89.8301 63.4612 89.8281 63.6149 89.8336C63.7685 89.8391 63.9222 89.8518 64.0758 89.8762C64.688 89.9023 65.2998 89.9453 65.9116 90.0061C70.1969 90.4292 74.4909 91.6996 78.8251 93.89C80.0593 94.5243 81.2907 95.224 82.5159 95.9822C83.7411 96.7403 84.96 97.5565 86.1683 98.424C87.9811 99.7252 89.7708 101.141 91.5245 102.647C92.1093 103.149 92.6898 103.66 93.2657 104.181C94.4189 105.224 95.5557 106.3 96.6757 107.404C97.7957 108.508 98.8985 109.639 99.9834 110.792C102.153 113.097 104.251 115.488 106.271 117.915C107.28 119.133 108.271 120.359 109.243 121.588C116.045 130.199 121.92 139.026 126.85 146.94C127.555 148.073 128.239 149.189 128.9 150.286C130.886 153.577 132.676 156.698 134.269 159.584C134.824 160.541 135.323 161.48 135.8 162.39C136.278 163.301 136.734 164.183 137.204 165.028C138.057 166.73 138.87 168.313 139.547 169.755C140.26 171.201 140.805 172.509 141.331 173.661C141.518 174.092 141.681 174.49 141.835 174.872C141.99 175.254 142.136 175.621 142.272 175.959C142.362 176.184 142.45 176.4 142.536 176.607C142.769 177.284 142.956 177.83 143.1 178.247L143.601 178.527C137.328 148.403 122.602 122.607 105.557 97.4823C88.5116 72.3576 49.649 72.0143 38.7401 94.3857Z" fill="url(#paint51_linear)"/>
<path d="M38.7401 94.3857C27.8308 116.757 40.7854 138.44 63.8936 134.144C63.8936 134.144 63.835 134.138 63.7201 134.125C63.6047 134.112 63.4331 134.092 63.2064 134.066C63.0938 134.048 62.9687 134.026 62.8315 133.999C62.4198 133.92 61.8987 133.803 61.2807 133.632C61.0754 133.576 60.8588 133.513 60.6325 133.443C60.1794 133.304 59.6849 133.137 59.1552 132.94C58.3604 132.645 57.4855 132.283 56.5496 131.847C55.9257 131.557 55.274 131.233 54.6008 130.875C53.9351 130.514 53.2428 130.116 52.5395 129.679C51.8366 129.242 51.1228 128.767 50.414 128.25C48.9965 127.216 47.5993 126.015 46.3472 124.63C45.1021 123.25 44.0196 121.729 43.301 120.096C43.138 119.681 42.9735 119.274 42.8296 118.864C42.6857 118.455 42.5626 118.043 42.4824 117.618C42.425 117.414 42.389 117.201 42.3573 116.988C42.3257 116.776 42.2979 116.563 42.2573 116.358C42.2319 115.939 42.1466 115.454 42.208 115.199L42.2201 114.977L42.2221 114.869L42.2143 114.628C42.1982 114.277 42.1822 113.923 42.1662 113.568L42.1537 113.301C42.2166 113.662 42.2123 113.621 42.2061 113.568C42.2037 113.547 42.2006 113.523 42.2014 113.522C42.2014 113.522 42.2033 113.528 42.2065 113.542L42.2092 113.483L42.2151 113.367L42.2377 112.899L42.2823 111.96C42.3069 111.338 42.3319 110.709 42.357 110.075C42.3976 109.451 42.4946 108.842 42.5575 108.224C42.6071 107.599 42.683 106.986 42.7784 106.383C43.0649 104.573 43.5301 102.856 44.0047 101.221C44.3906 100.17 44.8261 99.1865 45.3065 98.2855C45.787 97.384 46.3128 96.5647 46.8796 95.8405C47.1646 95.4762 47.4621 95.1384 47.7733 94.8226C48.0841 94.5069 48.4085 94.2137 48.7479 93.9382C49.4261 93.3876 50.163 92.9089 50.9672 92.4692L51.2498 92.2893L51.5841 92.1495L52.2369 91.8559C52.6353 91.6294 53.1583 91.496 53.627 91.3132C53.8698 91.2292 54.0903 91.1234 54.3456 91.0476L54.7443 90.947L55.1431 90.8463L55.5367 90.737L55.9304 90.6277C56.0602 90.5926 56.1747 90.5752 56.2857 90.5602C56.3964 90.5456 56.5031 90.5334 56.6169 90.5085C56.8373 90.4698 57.0555 90.426 57.2713 90.3767L57.613 90.2977L58.2697 90.2054L59.586 90.0207L60.2451 89.9279L60.575 89.8818L60.6575 89.8703C60.7697 89.8514 60.7935 89.8474 60.7681 89.8522C60.7556 89.8545 60.7314 89.8589 60.6974 89.8644C60.6649 89.8703 60.6247 89.877 60.5821 89.8845C60.4968 89.8995 60.4011 89.9165 60.3342 89.9283C60.2674 89.9406 60.2291 89.9477 60.2588 89.9437L60.3753 89.9433L62.2298 89.8845C62.5379 89.8743 62.8459 89.8478 63.1536 89.836C63.3076 89.8301 63.4612 89.8281 63.6149 89.8336C63.7685 89.8391 63.9222 89.8518 64.0758 89.8762C64.688 89.9023 65.2998 89.9453 65.9116 90.0061C70.1969 90.4292 74.4909 91.6996 78.8251 93.89C80.0593 94.5243 81.2907 95.224 82.5159 95.9822C83.7411 96.7403 84.96 97.5565 86.1683 98.424C87.9811 99.7252 89.7708 101.141 91.5245 102.647C92.1093 103.149 92.6898 103.66 93.2657 104.181C94.4189 105.224 95.5557 106.3 96.6757 107.404C97.7957 108.508 98.8985 109.639 99.9834 110.792C102.153 113.097 104.251 115.488 106.271 117.915C107.28 119.133 108.271 120.359 109.243 121.588C116.045 130.199 121.92 139.026 126.85 146.94C127.555 148.073 128.239 149.189 128.9 150.286C130.886 153.577 132.676 156.698 134.269 159.584C134.824 160.541 135.323 161.48 135.8 162.39C136.278 163.301 136.734 164.183 137.204 165.028C138.057 166.73 138.87 168.313 139.547 169.755C140.26 171.201 140.805 172.509 141.331 173.661C141.518 174.092 141.681 174.49 141.835 174.872C141.99 175.254 142.136 175.621 142.272 175.959C142.362 176.184 142.45 176.4 142.536 176.607C142.769 177.284 142.956 177.83 143.1 178.247L143.601 178.527C137.328 148.403 122.602 122.607 105.557 97.4823C88.5116 72.3576 49.649 72.0143 38.7401 94.3857Z" fill="url(#paint52_linear)"/>
<path d="M-17.3504 315.657C-12.5893 317.038 -8.1683 317.952 -4.23517 318.54C-0.298125 319.115 3.13227 319.437 5.97081 319.54C7.37971 319.623 8.6604 319.629 9.76126 319.633C10.8629 319.655 11.7921 319.618 12.5494 319.589C14.0669 319.514 14.8762 319.474 14.8762 319.474C-14.6128 312.677 -34.0447 305.525 -58.846 276.706C-83.6473 247.887 -102.595 236.97 -114.073 248.145C-125.551 259.32 -114.057 279.877 -99.2355 274.982C-99.6183 274.926 -100.186 274.797 -100.888 274.613C-102.293 274.232 -104.258 273.47 -106.241 271.975C-108.218 270.491 -110.211 268.258 -111.68 265.378C-112.411 263.945 -113.033 262.368 -113.388 260.717C-113.756 259.084 -113.912 257.378 -113.662 255.914C-113.449 254.447 -112.883 253.332 -112.208 252.859C-111.562 252.374 -110.916 252.138 -109.623 251.918C-108.361 251.706 -106.548 251.667 -104.49 251.901L-103.723 251.996C-103.494 252.039 -103.266 252.077 -103.038 252.109L-102.063 252.259L-101.53 252.342L-101.397 252.363C-101.705 252.338 -101.456 252.362 -101.513 252.36L-101.469 252.371L-101.289 252.415C-100.322 252.619 -99.4056 252.928 -98.4979 253.252C-96.6996 253.956 -94.9721 254.899 -93.1992 256.193C-91.4307 257.474 -89.6152 259.081 -87.7688 260.947C-84.062 264.662 -80.2266 269.324 -76.1504 274.088C-72.0644 278.869 -67.7001 283.766 -63.0051 288.335C-58.3186 292.91 -53.3038 297.143 -48.1251 300.785C-42.9391 304.419 -37.6396 307.519 -32.4117 309.947C-27.2073 312.424 -22.1018 314.262 -17.3504 315.657Z" fill="url(#paint53_linear)"/>
<path d="M-17.3504 315.657C-12.5893 317.038 -8.1683 317.952 -4.23517 318.54C-0.298125 319.115 3.13227 319.437 5.97081 319.54C7.37971 319.623 8.6604 319.629 9.76126 319.633C10.8629 319.655 11.7921 319.618 12.5494 319.589C14.0669 319.514 14.8762 319.474 14.8762 319.474C-14.6128 312.677 -34.0447 305.525 -58.846 276.706C-83.6473 247.887 -102.595 236.97 -114.073 248.145C-125.551 259.32 -114.057 279.877 -99.2355 274.982C-99.6183 274.926 -100.186 274.797 -100.888 274.613C-102.293 274.232 -104.258 273.47 -106.241 271.975C-108.218 270.491 -110.211 268.258 -111.68 265.378C-112.411 263.945 -113.033 262.368 -113.388 260.717C-113.756 259.084 -113.912 257.378 -113.662 255.914C-113.449 254.447 -112.883 253.332 -112.208 252.859C-111.562 252.374 -110.916 252.138 -109.623 251.918C-108.361 251.706 -106.548 251.667 -104.49 251.901L-103.723 251.996C-103.494 252.039 -103.266 252.077 -103.038 252.109L-102.063 252.259L-101.53 252.342L-101.397 252.363C-101.705 252.338 -101.456 252.362 -101.513 252.36L-101.469 252.371L-101.289 252.415C-100.322 252.619 -99.4056 252.928 -98.4979 253.252C-96.6996 253.956 -94.9721 254.899 -93.1992 256.193C-91.4307 257.474 -89.6152 259.081 -87.7688 260.947C-84.062 264.662 -80.2266 269.324 -76.1504 274.088C-72.0644 278.869 -67.7001 283.766 -63.0051 288.335C-58.3186 292.91 -53.3038 297.143 -48.1251 300.785C-42.9391 304.419 -37.6396 307.519 -32.4117 309.947C-27.2073 312.424 -22.1018 314.262 -17.3504 315.657Z" fill="url(#paint54_linear)"/>
<path d="M196.241 314.389C159.763 343.722 132.49 340.125 120.644 330.487C120.644 330.487 120.995 331.195 121.7 332.465C122.052 333.097 122.595 333.85 123.252 334.755C123.936 335.6 124.724 336.613 125.777 337.591C127.823 339.617 130.787 341.791 134.737 343.437C138.666 345.044 143.551 346.064 148.716 346.06C153.9 346.112 159.347 345.282 164.72 343.86C170.118 342.449 175.457 340.442 180.687 338.12C191.159 333.476 201.162 327.516 210.609 321.882C215.337 319.091 219.918 316.331 224.324 313.917C228.731 311.475 232.95 309.396 236.905 307.83C240.874 306.248 244.508 305.295 248.003 304.912C249.758 304.704 251.467 304.723 253.188 304.873C254.06 304.908 254.894 305.098 255.766 305.209C256.195 305.305 256.62 305.4 257.041 305.494L257.362 305.564L257.523 305.6L257.563 305.608C257.262 305.421 257.508 305.567 257.453 305.53L257.55 305.567C257.79 305.654 258.144 305.802 258.154 305.759L258.292 305.755C258.352 305.764 258.44 305.799 258.513 305.819C258.668 305.862 258.824 305.919 258.983 305.982C259.3 306.1 259.621 306.248 259.951 306.402C260.608 306.714 261.258 307.098 261.88 307.523C262.509 307.945 263.085 308.427 263.656 308.914C264.234 309.397 264.771 309.913 265.265 310.446C266.251 311.516 267.115 312.636 267.826 313.766C268.521 314.899 269.106 316.031 269.545 317.118C270.421 319.295 270.823 321.264 271.01 322.639C271.097 323.326 271.175 323.876 271.194 324.243C271.225 324.615 271.241 324.807 271.241 324.807C275.673 290.219 232.718 285.057 196.241 314.389Z" fill="url(#paint55_linear)"/>
<path d="M196.241 314.389C159.763 343.722 132.49 340.125 120.644 330.487C120.644 330.487 120.995 331.195 121.7 332.465C122.052 333.097 122.595 333.85 123.252 334.755C123.936 335.6 124.724 336.613 125.777 337.591C127.823 339.617 130.787 341.791 134.737 343.437C138.666 345.044 143.551 346.064 148.716 346.06C153.9 346.112 159.347 345.282 164.72 343.86C170.118 342.449 175.457 340.442 180.687 338.12C191.159 333.476 201.162 327.516 210.609 321.882C215.337 319.091 219.918 316.331 224.324 313.917C228.731 311.475 232.95 309.396 236.905 307.83C240.874 306.248 244.508 305.295 248.003 304.912C249.758 304.704 251.467 304.723 253.188 304.873C254.06 304.908 254.894 305.098 255.766 305.209C256.195 305.305 256.62 305.4 257.041 305.494L257.362 305.564L257.523 305.6L257.563 305.608C257.262 305.421 257.508 305.567 257.453 305.53L257.55 305.567C257.79 305.654 258.144 305.802 258.154 305.759L258.292 305.755C258.352 305.764 258.44 305.799 258.513 305.819C258.668 305.862 258.824 305.919 258.983 305.982C259.3 306.1 259.621 306.248 259.951 306.402C260.608 306.714 261.258 307.098 261.88 307.523C262.509 307.945 263.085 308.427 263.656 308.914C264.234 309.397 264.771 309.913 265.265 310.446C266.251 311.516 267.115 312.636 267.826 313.766C268.521 314.899 269.106 316.031 269.545 317.118C270.421 319.295 270.823 321.264 271.01 322.639C271.097 323.326 271.175 323.876 271.194 324.243C271.225 324.615 271.241 324.807 271.241 324.807C275.673 290.219 232.718 285.057 196.241 314.389Z" fill="url(#paint56_linear)"/>
</g>
<defs>
<linearGradient id="paint0_linear" x1="209.227" y1="276.878" x2="209.227" y2="123.557" gradientUnits="userSpaceOnUse">
<stop stop-color="#20CFED"/>
<stop offset="0.0093" stop-color="#22D0ED"/>
<stop offset="0.3329" stop-color="#52E3F5"/>
<stop offset="0.6176" stop-color="#76F0FA"/>
<stop offset="0.8496" stop-color="#8BF9FE"/>
<stop offset="1" stop-color="#93FCFF"/>
</linearGradient>
<linearGradient id="paint1_linear" x1="256.369" y1="276.88" x2="256.369" y2="121.919" gradientUnits="userSpaceOnUse">
<stop stop-color="#20CFED"/>
<stop offset="0.0093" stop-color="#22D0ED"/>
<stop offset="0.3329" stop-color="#52E3F5"/>
<stop offset="0.6176" stop-color="#76F0FA"/>
<stop offset="0.8496" stop-color="#8BF9FE"/>
<stop offset="1" stop-color="#93FCFF"/>
</linearGradient>
<linearGradient id="paint2_linear" x1="24.1038" y1="167.392" x2="144.761" y2="167.392" gradientUnits="userSpaceOnUse">
<stop stop-color="#93FCFF"/>
<stop offset="1" stop-color="#20CFED"/>
</linearGradient>
<linearGradient id="paint3_linear" x1="24.1239" y1="178.729" x2="144.761" y2="178.729" gradientUnits="userSpaceOnUse">
<stop stop-color="#93FCFF"/>
<stop offset="1" stop-color="#20CFED"/>
</linearGradient>
<linearGradient id="paint4_linear" x1="24.1041" y1="114.354" x2="144.761" y2="114.354" gradientUnits="userSpaceOnUse">
<stop stop-color="#93FCFF"/>
<stop offset="1" stop-color="#20CFED"/>
</linearGradient>
<linearGradient id="paint5_linear" x1="23.8478" y1="89.8584" x2="145.349" y2="89.8584" gradientUnits="userSpaceOnUse">
<stop stop-color="#93FCFF"/>
<stop offset="1" stop-color="#20CFED"/>
</linearGradient>
<linearGradient id="paint6_linear" x1="24.1053" y1="90.383" x2="144.758" y2="90.383" gradientUnits="userSpaceOnUse">
<stop stop-color="#93FCFF"/>
<stop offset="1" stop-color="#20CFED"/>
</linearGradient>
<linearGradient id="paint7_linear" x1="24.2172" y1="108.229" x2="144.126" y2="108.229" gradientUnits="userSpaceOnUse">
<stop stop-color="#93FCFF"/>
<stop offset="1" stop-color="#20CFED"/>
</linearGradient>
<linearGradient id="paint8_linear" x1="24.1062" y1="90.842" x2="144.754" y2="90.842" gradientUnits="userSpaceOnUse">
<stop stop-color="#93FCFF"/>
<stop offset="1" stop-color="#20CFED"/>
</linearGradient>
<linearGradient id="paint9_linear" x1="24.1025" y1="128.964" x2="144.765" y2="128.964" gradientUnits="userSpaceOnUse">
<stop stop-color="#93FCFF"/>
<stop offset="1" stop-color="#20CFED"/>
</linearGradient>
<linearGradient id="paint10_linear" x1="24.1038" y1="134.062" x2="144.761" y2="134.062" gradientUnits="userSpaceOnUse">
<stop stop-color="#93FCFF"/>
<stop offset="1" stop-color="#20CFED"/>
</linearGradient>
<linearGradient id="paint11_linear" x1="24.104" y1="135.938" x2="144.761" y2="135.938" gradientUnits="userSpaceOnUse">
<stop stop-color="#93FCFF"/>
<stop offset="1" stop-color="#20CFED"/>
</linearGradient>
<linearGradient id="paint12_linear" x1="22.6422" y1="113.546" x2="62.8869" y2="113.546" gradientUnits="userSpaceOnUse">
<stop stop-color="#93FCFF"/>
<stop offset="1" stop-color="#20CFED"/>
</linearGradient>
<linearGradient id="paint13_linear" x1="23.5833" y1="89.9366" x2="145.979" y2="89.9366" gradientUnits="userSpaceOnUse">
<stop stop-color="#93FCFF"/>
<stop offset="1" stop-color="#20CFED"/>
</linearGradient>
<linearGradient id="paint14_linear" x1="24.104" y1="121.131" x2="144.761" y2="121.131" gradientUnits="userSpaceOnUse">
<stop stop-color="#93FCFF"/>
<stop offset="1" stop-color="#20CFED"/>
</linearGradient>
<linearGradient id="paint15_linear" x1="24.099" y1="172.314" x2="144.761" y2="172.314" gradientUnits="userSpaceOnUse">
<stop stop-color="#93FCFF"/>
<stop offset="1" stop-color="#20CFED"/>
</linearGradient>
<linearGradient id="paint16_linear" x1="24.1046" y1="89.9201" x2="144.76" y2="89.9201" gradientUnits="userSpaceOnUse">
<stop stop-color="#93FCFF"/>
<stop offset="1" stop-color="#20CFED"/>
</linearGradient>
<linearGradient id="paint17_linear" x1="24.104" y1="92.9947" x2="144.761" y2="92.9947" gradientUnits="userSpaceOnUse">
<stop stop-color="#93FCFF"/>
<stop offset="1" stop-color="#20CFED"/>
</linearGradient>
<linearGradient id="paint18_linear" x1="24.2163" y1="111.487" x2="144.126" y2="111.487" gradientUnits="userSpaceOnUse">
<stop stop-color="#93FCFF"/>
<stop offset="1" stop-color="#20CFED"/>
</linearGradient>
<linearGradient id="paint19_linear" x1="24.1201" y1="89.9064" x2="144.723" y2="89.9064" gradientUnits="userSpaceOnUse">
<stop stop-color="#93FCFF"/>
<stop offset="1" stop-color="#20CFED"/>
</linearGradient>
<linearGradient id="paint20_linear" x1="83.8264" y1="320.147" x2="83.8264" y2="32.4865" gradientUnits="userSpaceOnUse">
<stop stop-color="#93FCFF"/>
<stop offset="1" stop-color="#20CFED"/>
</linearGradient>
<linearGradient id="paint21_linear" x1="233.495" y1="276.743" x2="233.495" y2="21.6122" gradientUnits="userSpaceOnUse">
<stop stop-color="#93FCFF"/>
<stop offset="1" stop-color="#20CFED"/>
</linearGradient>
<linearGradient id="paint22_linear" x1="261.345" y1="276.88" x2="261.345" y2="121.92" gradientUnits="userSpaceOnUse">
<stop stop-color="#20CFED"/>
<stop offset="0.0093" stop-color="#22D0ED"/>
<stop offset="0.3329" stop-color="#52E3F5"/>
<stop offset="0.6176" stop-color="#76F0FA"/>
<stop offset="0.8496" stop-color="#8BF9FE"/>
<stop offset="1" stop-color="#93FCFF"/>
</linearGradient>
<linearGradient id="paint23_linear" x1="261.345" y1="276.797" x2="261.345" y2="21.6122" gradientUnits="userSpaceOnUse">
<stop stop-color="#93FCFF"/>
<stop offset="1" stop-color="#20CFED"/>
</linearGradient>
<linearGradient id="paint24_linear" x1="224.977" y1="276.879" x2="224.977" y2="121.919" gradientUnits="userSpaceOnUse">
<stop stop-color="#20CFED"/>
<stop offset="0.0093" stop-color="#22D0ED"/>
<stop offset="0.3329" stop-color="#52E3F5"/>
<stop offset="0.6176" stop-color="#76F0FA"/>
<stop offset="0.8496" stop-color="#8BF9FE"/>
<stop offset="1" stop-color="#93FCFF"/>
</linearGradient>
<linearGradient id="paint25_linear" x1="224.977" y1="276.797" x2="224.977" y2="21.6115" gradientUnits="userSpaceOnUse">
<stop stop-color="#93FCFF"/>
<stop offset="1" stop-color="#20CFED"/>
</linearGradient>
<linearGradient id="paint26_linear" x1="-126.48" y1="276.624" x2="14.8763" y2="276.624" gradientUnits="userSpaceOnUse">
<stop stop-color="#93FCFF"/>
<stop offset="1" stop-color="#20CFED"/>
</linearGradient>
<linearGradient id="paint27_linear" x1="120.644" y1="310.08" x2="275.191" y2="310.08" gradientUnits="userSpaceOnUse">
<stop stop-color="#93FCFF"/>
<stop offset="1" stop-color="#20CFED"/>
</linearGradient>
<linearGradient id="paint28_linear" x1="61.9638" y1="320.147" x2="61.9638" y2="32.4853" gradientUnits="userSpaceOnUse">
<stop stop-color="#93FCFF"/>
<stop offset="1" stop-color="#20CFED"/>
</linearGradient>
<linearGradient id="paint29_linear" x1="-63.7036" y1="165.788" x2="187.631" y2="165.788" gradientUnits="userSpaceOnUse">
<stop stop-color="#93FCFF"/>
<stop offset="1" stop-color="#20CFED"/>
</linearGradient>
<linearGradient id="paint30_linear" x1="34.7932" y1="175.416" x2="143.604" y2="175.416" gradientUnits="userSpaceOnUse">
<stop stop-color="#20CFED"/>
<stop offset="1" stop-color="#93FCFF"/>
</linearGradient>
<linearGradient id="paint31_linear" x1="34.8172" y1="177.104" x2="143.603" y2="177.104" gradientUnits="userSpaceOnUse">
<stop stop-color="#20CFED"/>
<stop offset="1" stop-color="#93FCFF"/>
</linearGradient>
<linearGradient id="paint32_linear" x1="35.2353" y1="89.9439" x2="142.234" y2="89.9439" gradientUnits="userSpaceOnUse">
<stop stop-color="#20CFED"/>
<stop offset="1" stop-color="#93FCFF"/>
</linearGradient>
<linearGradient id="paint33_linear" x1="34.8182" y1="100.536" x2="143.602" y2="100.536" gradientUnits="userSpaceOnUse">
<stop stop-color="#20CFED"/>
<stop offset="1" stop-color="#93FCFF"/>
</linearGradient>
<linearGradient id="paint34_linear" x1="34.8173" y1="156.339" x2="143.603" y2="156.339" gradientUnits="userSpaceOnUse">
<stop stop-color="#20CFED"/>
<stop offset="1" stop-color="#93FCFF"/>
</linearGradient>
<linearGradient id="paint35_linear" x1="34.8168" y1="163.71" x2="143.603" y2="163.71" gradientUnits="userSpaceOnUse">
<stop stop-color="#20CFED"/>
<stop offset="1" stop-color="#93FCFF"/>
</linearGradient>
<linearGradient id="paint36_linear" x1="34.8177" y1="93.1134" x2="143.601" y2="93.1134" gradientUnits="userSpaceOnUse">
<stop stop-color="#20CFED"/>
<stop offset="1" stop-color="#93FCFF"/>
</linearGradient>
<linearGradient id="paint37_linear" x1="34.8171" y1="91.4009" x2="143.604" y2="91.4009" gradientUnits="userSpaceOnUse">
<stop stop-color="#20CFED"/>
<stop offset="1" stop-color="#93FCFF"/>
</linearGradient>
<linearGradient id="paint38_linear" x1="34.8178" y1="105.026" x2="143.603" y2="105.026" gradientUnits="userSpaceOnUse">
<stop stop-color="#20CFED"/>
<stop offset="1" stop-color="#93FCFF"/>
</linearGradient>
<linearGradient id="paint39_linear" x1="34.8181" y1="90.0669" x2="143.601" y2="90.0669" gradientUnits="userSpaceOnUse">
<stop stop-color="#20CFED"/>
<stop offset="1" stop-color="#93FCFF"/>
</linearGradient>
<linearGradient id="paint40_linear" x1="34.8144" y1="90.6484" x2="143.616" y2="90.6484" gradientUnits="userSpaceOnUse">
<stop stop-color="#20CFED"/>
<stop offset="1" stop-color="#93FCFF"/>
</linearGradient>
<linearGradient id="paint41_linear" x1="34.8161" y1="117.926" x2="143.62" y2="117.926" gradientUnits="userSpaceOnUse">
<stop stop-color="#20CFED"/>
<stop offset="1" stop-color="#93FCFF"/>
</linearGradient>
<linearGradient id="paint42_linear" x1="34.8176" y1="122.362" x2="143.602" y2="122.362" gradientUnits="userSpaceOnUse">
<stop stop-color="#20CFED"/>
<stop offset="1" stop-color="#93FCFF"/>
</linearGradient>
<linearGradient id="paint43_linear" x1="34.8517" y1="89.8894" x2="143.491" y2="89.8894" gradientUnits="userSpaceOnUse">
<stop stop-color="#20CFED"/>
<stop offset="1" stop-color="#93FCFF"/>
</linearGradient>
<linearGradient id="paint44_linear" x1="34.8172" y1="99.7531" x2="143.605" y2="99.7531" gradientUnits="userSpaceOnUse">
<stop stop-color="#20CFED"/>
<stop offset="1" stop-color="#93FCFF"/>
</linearGradient>
<linearGradient id="paint45_linear" x1="34.8161" y1="133.191" x2="143.608" y2="133.191" gradientUnits="userSpaceOnUse">
<stop stop-color="#20CFED"/>
<stop offset="1" stop-color="#93FCFF"/>
</linearGradient>
<linearGradient id="paint46_linear" x1="34.8167" y1="131.361" x2="143.606" y2="131.361" gradientUnits="userSpaceOnUse">
<stop stop-color="#20CFED"/>
<stop offset="1" stop-color="#93FCFF"/>
</linearGradient>
<linearGradient id="paint47_linear" x1="34.818" y1="132.393" x2="143.601" y2="132.393" gradientUnits="userSpaceOnUse">
<stop stop-color="#20CFED"/>
<stop offset="1" stop-color="#93FCFF"/>
</linearGradient>
<linearGradient id="paint48_linear" x1="34.8173" y1="96.554" x2="143.605" y2="96.554" gradientUnits="userSpaceOnUse">
<stop stop-color="#20CFED"/>
<stop offset="1" stop-color="#93FCFF"/>
</linearGradient>
<linearGradient id="paint49_linear" x1="34.8172" y1="89.8901" x2="143.604" y2="89.8901" gradientUnits="userSpaceOnUse">
<stop stop-color="#20CFED"/>
<stop offset="1" stop-color="#93FCFF"/>
</linearGradient>
<linearGradient id="paint50_linear" x1="34.6354" y1="89.8336" x2="144.12" y2="89.8336" gradientUnits="userSpaceOnUse">
<stop stop-color="#20CFED"/>
<stop offset="1" stop-color="#93FCFF"/>
</linearGradient>
<linearGradient id="paint51_linear" x1="24.1041" y1="128.314" x2="144.76" y2="128.314" gradientUnits="userSpaceOnUse">
<stop stop-color="#93FCFF"/>
<stop offset="1" stop-color="#20CFED"/>
</linearGradient>
<linearGradient id="paint52_linear" x1="34.8175" y1="128.314" x2="143.603" y2="128.314" gradientUnits="userSpaceOnUse">
<stop stop-color="#20CFED"/>
<stop offset="1" stop-color="#93FCFF"/>
</linearGradient>
<linearGradient id="paint53_linear" x1="-126.48" y1="281.737" x2="14.8757" y2="281.737" gradientUnits="userSpaceOnUse">
<stop stop-color="#93FCFF"/>
<stop offset="1" stop-color="#20CFED"/>
</linearGradient>
<linearGradient id="paint54_linear" x1="-118.744" y1="281.737" x2="14.8763" y2="281.737" gradientUnits="userSpaceOnUse">
<stop stop-color="#20CFED"/>
<stop offset="1" stop-color="#93FCFF"/>
</linearGradient>
<linearGradient id="paint55_linear" x1="120.644" y1="320.668" x2="275.192" y2="320.668" gradientUnits="userSpaceOnUse">
<stop stop-color="#93FCFF"/>
<stop offset="1" stop-color="#20CFED"/>
</linearGradient>
<linearGradient id="paint56_linear" x1="120.644" y1="320.668" x2="271.558" y2="320.668" gradientUnits="userSpaceOnUse">
<stop stop-color="#20CFED"/>
<stop offset="1" stop-color="#93FCFF"/>
</linearGradient>
</defs>
</svg>
