<svg width="310" height="452" viewBox="0 0 310 452" fill="none" xmlns="http://www.w3.org/2000/svg">
<mask id="mask0" mask-type="alpha" maskUnits="userSpaceOnUse" x="3" y="150" width="307" height="302">
<path d="M309.28 287.096C309.28 378.048 240.717 451.78 156.14 451.78C71.5631 451.78 2.99997 378.048 2.99997 287.096C2.99997 196.143 71.5631 161.963 156.14 161.963C240.717 161.963 309.28 196.143 309.28 287.096Z" fill="white"/>
<path d="M309.28 287.096C309.28 378.048 240.717 451.78 156.14 451.78C71.5631 451.78 2.99997 378.048 2.99997 287.096C2.99997 196.143 71.5631 161.963 156.14 161.963C240.717 161.963 309.28 196.143 309.28 287.096Z" fill="white"/>
<path d="M2.99997 170.253C2.99997 159.339 11.2275 150.491 21.3768 150.491H290.903C301.052 150.491 309.28 159.339 309.28 170.253V292.585C309.28 303.499 301.052 312.347 290.903 312.347H21.3768C11.2275 312.347 2.99997 303.499 2.99997 292.585V170.253Z" fill="white"/>
<path d="M2.99997 170.253C2.99997 159.339 11.2275 150.491 21.3768 150.491H290.903C301.052 150.491 309.28 159.339 309.28 170.253V292.585C309.28 303.499 301.052 312.347 290.903 312.347H21.3768C11.2275 312.347 2.99997 303.499 2.99997 292.585V170.253Z" fill="white"/>
</mask>
<g mask="url(#mask0)">
<path d="M212.195 427.287C212.195 427.287 212.221 427.265 212.259 427.234C212.221 427.266 212.195 427.287 212.195 427.287Z" fill="url(#paint0_linear)"/>
<path d="M304.582 299.312C302.537 287.21 301.173 272.41 288.559 272.41C287.178 272.41 285.97 272.532 284.896 272.737C284.941 303.567 279.249 342.94 264.696 366.37C256.725 379.202 249.786 389.322 243.793 397.317C243.787 397.325 243.78 397.335 243.775 397.343C243.77 397.349 243.764 397.356 243.759 397.362C221.324 427.279 212.195 427.288 212.195 427.288C212.195 427.288 245.945 431.074 279.695 387.364C313.446 343.654 306.628 311.414 304.582 299.312Z" fill="url(#paint1_linear)"/>
<path d="M142.549 320.247C141.872 318.805 141.059 317.222 140.206 315.52C141.059 317.222 141.872 318.805 142.549 320.247Z" fill="url(#paint2_linear)"/>
<path d="M146.432 329.701C146.432 329.701 146.491 329.468 146.603 329.018L146.102 328.739C146.318 329.368 146.432 329.701 146.432 329.701Z" fill="url(#paint3_linear)"/>
<path d="M109.272 268.406C107.253 265.979 105.155 263.588 102.985 261.283C105.155 263.588 107.253 265.979 109.272 268.406Z" fill="url(#paint4_linear)"/>
<path d="M63.7697 240.343C63.7567 240.345 63.7315 240.35 63.6985 240.355C63.7327 240.35 63.7571 240.345 63.7697 240.343Z" fill="url(#paint5_linear)"/>
<path d="M60.272 240.868C60.0558 240.917 59.8377 240.961 59.6176 241C59.5038 241.025 59.3971 241.037 59.2865 241.051C59.3971 241.037 59.5038 241.025 59.6176 241C59.8381 240.961 60.0558 240.917 60.272 240.868L60.6137 240.789L61.2705 240.697L60.6137 240.789L60.272 240.868Z" fill="url(#paint6_linear)"/>
<path d="M45.3576 260.566C45.398 259.942 45.4944 259.333 45.5569 258.715C45.6062 258.09 45.6816 257.477 45.7764 256.874C45.6816 257.477 45.6066 258.091 45.5569 258.715C45.4944 259.333 45.398 259.942 45.3576 260.566Z" fill="url(#paint7_linear)"/>
<path d="M57.7454 241.438L58.1437 241.337L58.5374 241.228L58.1437 241.337L57.7454 241.438Z" fill="url(#paint8_linear)"/>
<path d="M53.4138 278.74C54.1226 279.257 54.8365 279.733 55.5394 280.169C54.8361 279.733 54.1222 279.257 53.4138 278.74Z" fill="url(#paint9_linear)"/>
<path d="M66.7195 284.615C66.6042 284.602 66.4326 284.583 66.2059 284.557C66.0933 284.539 65.9681 284.516 65.8309 284.49C65.9681 284.516 66.0933 284.539 66.2059 284.557C66.4326 284.583 66.6046 284.602 66.7195 284.615Z" fill="url(#paint10_linear)"/>
<path d="M112.244 272.08C119.047 280.691 124.921 289.518 129.851 297.431C130.556 298.564 131.24 299.681 131.902 300.778C131.24 299.681 130.557 298.564 129.851 297.431C124.922 289.518 119.047 280.691 112.244 272.08Z" fill="url(#paint11_linear)"/>
<path d="M45.2021 264.013C45.2012 264.014 45.2042 264.039 45.2071 264.061C45.2042 264.039 45.2012 264.014 45.2021 264.013Z" fill="url(#paint12_linear)"/>
<path d="M63.3365 240.419C63.2687 240.432 63.2299 240.439 63.26 240.435C63.2299 240.439 63.2687 240.432 63.3365 240.419Z" fill="url(#paint13_linear)"/>
<path d="M27.3674 256.855C27.446 257.766 27.6137 258.633 27.7419 259.506C27.8862 260.371 28.0019 261.239 28.1731 262.069C28.3694 262.886 28.5641 263.695 28.7568 264.497C28.9773 265.378 29.1958 266.251 29.412 267.115C29.7005 267.939 29.9863 268.754 30.2689 269.561C30.6446 270.65 31.0656 271.435 31.4753 272.291C31.9319 273.114 32.3694 273.93 32.8979 274.671C33.8924 276.193 35.0476 277.51 36.2286 278.673C38.6383 280.956 41.1465 282.615 43.5945 283.717C48.4792 285.958 52.8435 286.52 56.3419 286.609C59.8485 286.684 62.5405 286.202 64.3067 285.682C65.1906 285.444 65.8415 285.145 66.2656 284.959C66.6796 284.745 66.8935 284.635 66.8935 284.635C43.7857 288.931 30.8311 267.247 41.7399 244.876C52.6488 222.505 91.5126 222.849 108.558 247.974C125.604 273.099 140.329 298.895 146.603 329.018C146.706 328.566 146.906 327.903 147.072 327.025C147.369 325.231 147.734 322.514 147.746 319.133C147.821 315.721 147.6 311.596 147.001 306.917C146.39 302.242 145.47 296.981 143.982 291.374C141.028 280.157 136.21 267.347 128.449 254.596C124.558 248.233 119.918 241.884 114.236 235.971C108.56 230.077 101.818 224.554 93.7616 220.397C85.7163 216.286 76.112 213.868 66.6554 214.27C65.4736 214.251 64.3122 214.433 63.1507 214.567C61.9932 214.718 60.8388 214.869 59.6867 215.019L59.4721 215.051C59.535 215.038 58.5139 215.218 58.9091 215.151L58.8278 215.171L58.5041 215.249L57.8568 215.406L56.5647 215.72L55.9201 215.877L54.9842 216.144L53.0925 216.714C52.4772 216.913 51.8149 217.098 51.2512 217.328L49.5773 218.026L47.9213 218.738C47.3721 218.995 46.8248 219.303 46.2818 219.588C45.1958 220.178 44.1183 220.72 43.0871 221.471L41.5441 222.538L40.7837 223.076L40.0531 223.689C36.1348 226.843 32.8424 230.948 30.8021 235.305C28.7083 239.647 27.697 244.066 27.2767 248.164C27.2118 249.18 27.1825 250.179 27.1458 251.169C27.1317 251.663 27.1176 252.155 27.104 252.645C27.1309 253.121 27.1575 253.595 27.1841 254.067C27.2459 255.003 27.3068 255.933 27.3674 256.855Z" fill="url(#paint14_linear)"/>
<path d="M142.549 320.247C143.262 321.692 143.806 323 144.333 324.153C144.519 324.584 144.683 324.982 144.837 325.364C144.683 324.982 144.519 324.584 144.333 324.153C143.806 323 143.262 321.692 142.549 320.247Z" fill="url(#paint15_linear)"/>
<path d="M66.616 240.325C66.7696 240.33 66.9232 240.343 67.0769 240.367C67.6887 240.393 68.3009 240.436 68.9127 240.497C68.3005 240.437 67.6887 240.393 67.0769 240.367C66.9236 240.343 66.77 240.33 66.616 240.325Z" fill="url(#paint16_linear)"/>
<path d="M68.9131 240.497C73.1984 240.92 77.4924 242.191 81.8266 244.381C83.0608 245.015 84.2922 245.715 85.5174 246.473C84.2922 245.715 83.0608 245.015 81.8266 244.381C77.4924 242.191 73.1981 240.921 68.9131 240.497Z" fill="url(#paint17_linear)"/>
<path d="M45.2384 263.389L45.2827 262.451C45.3072 261.828 45.3321 261.2 45.3569 260.566C45.3321 261.2 45.3072 261.828 45.2827 262.451L45.2384 263.389Z" fill="url(#paint18_linear)"/>
<path d="M63.3353 240.419C63.4021 240.407 63.4978 240.391 63.5831 240.375C63.4978 240.391 63.4021 240.407 63.3353 240.419Z" fill="url(#paint19_linear)"/>
<path d="M-57.5501 390.887C-56.9832 391.825 -56.3351 392.868 -55.6001 394.011C-54.8546 395.138 -54.0036 396.339 -53.0653 397.631C-51.1967 400.229 -48.9207 403.124 -46.1987 406.208C-35.3516 418.571 -17.4247 434.184 7.80541 447.378C20.4195 453.954 34.8444 459.948 51.1582 464.306C67.4615 468.624 85.7128 471.401 105.83 470.451C110.851 470.216 115.997 469.732 121.213 468.915C126.432 468.084 131.764 467.068 137.114 465.548C147.818 462.616 158.784 458.22 169.196 451.949C179.605 445.717 189.432 437.652 197.716 428.27C206.035 418.911 212.776 408.333 217.866 397.521C219.145 394.814 220.329 392.097 221.41 389.365C221.964 387.999 222.453 386.634 222.969 385.266L223.774 382.985L224.512 380.822L225.651 377.155L226.719 373.452C227.457 371.003 228.073 368.483 228.693 365.969C231.156 355.91 232.94 345.513 233.796 334.911C235.49 313.742 233.425 291.551 226.443 271.293C225.641 268.755 224.621 266.275 223.672 263.813C222.617 261.373 221.64 258.935 220.476 256.575C218.305 251.805 215.682 247.3 213.031 242.945C210.325 238.612 207.399 234.512 204.313 230.66C203.567 229.679 202.749 228.759 201.971 227.818C201.174 226.891 200.422 225.938 199.588 225.059C197.949 223.276 196.321 221.522 194.625 219.866C192.971 218.172 191.231 216.6 189.536 215.026C187.783 213.509 186.051 212.01 184.273 210.61C180.759 207.761 177.144 205.212 173.525 202.873C169.885 200.569 166.275 198.424 162.605 196.602C158.974 194.721 155.333 193.092 151.73 191.66C137.306 185.933 123.497 183.462 111.361 183.045C99.2151 182.611 88.7042 184.313 80.5135 186.863C78.4627 187.494 76.5553 188.221 74.7946 188.91C73.033 189.668 71.4244 190.415 69.9588 191.182C67.0252 192.689 64.6953 194.214 62.9224 195.589C62.4764 195.93 62.064 196.229 61.6781 196.544C61.3017 196.871 60.951 197.176 60.6257 197.459C59.9772 198.015 59.485 198.494 59.1046 198.902C58.3314 199.714 57.9326 200.133 57.9326 200.133C68.784 195.591 123.194 190.282 158.208 223.995C192.763 257.266 204.127 329.413 170.263 384.263C120.49 464.88 8.84175 439.677 -60.7041 384.954C-60.7041 384.954 -60.4684 385.488 -59.9656 386.502C-59.4457 387.498 -58.6943 389.022 -57.5501 390.887Z" fill="url(#paint20_linear)"/>
<path d="M243.759 397.362C243.771 397.347 243.782 397.332 243.793 397.317C251.072 387.943 276.969 282.047 276.969 282.047C276.969 282.047 276.167 274.41 284.897 272.737C284.884 263.647 284.377 255.293 283.446 248.318C279.355 217.687 249.137 188.222 241.855 190.497C235.707 192.418 237.272 200.369 239.881 207.068C234.567 197.308 225.147 182.917 212.878 176.042C198.151 167.789 182.536 172.944 190.037 187.399C197.537 201.854 238.787 219.407 246.969 305.45C254.977 389.674 213.996 425.746 212.259 427.233C213.567 426.117 236.692 406.337 243.759 397.362Z" fill="url(#paint21_linear)"/>
<path d="M276.968 282.048C276.968 282.048 251.072 387.943 243.793 397.317C249.786 389.322 256.725 379.202 264.696 366.37C279.249 342.941 284.941 303.567 284.896 272.737C276.166 274.41 276.968 282.048 276.968 282.048Z" fill="url(#paint22_linear)"/>
<path d="M276.968 282.048C276.968 282.048 251.072 387.943 243.793 397.317C249.786 389.322 256.725 379.202 264.696 366.37C279.249 342.941 284.941 303.567 284.896 272.737C276.166 274.41 276.968 282.048 276.968 282.048Z" fill="url(#paint23_linear)"/>
<path d="M243.759 397.362C236.692 406.337 213.567 426.117 212.259 427.234C212.221 427.266 212.195 427.288 212.195 427.288C212.195 427.288 221.324 427.279 243.759 397.362Z" fill="url(#paint24_linear)"/>
<path d="M243.759 397.362C236.692 406.337 213.567 426.117 212.259 427.234C212.221 427.266 212.195 427.288 212.195 427.288C212.195 427.288 221.324 427.279 243.759 397.362Z" fill="url(#paint25_linear)"/>
<path d="M-111.073 398.636C-99.5952 387.461 -80.6469 398.378 -55.846 427.198C-31.0451 456.017 -11.6124 463.168 17.8761 469.966C17.8761 469.966 17.1607 469.582 15.8191 468.862C14.4923 468.169 12.5462 467.152 10.0689 465.858C7.61307 464.577 4.67446 462.989 1.37933 461.152C-1.91268 459.306 -5.55106 457.181 -9.36574 454.736C-13.1824 452.297 -17.1929 449.571 -21.214 446.487C-25.2437 443.413 -29.2906 440.002 -33.2835 436.283C-37.2714 432.552 -41.1901 428.496 -45.081 424.167C-48.9797 419.84 -52.8194 415.206 -56.8898 410.426C-60.9922 405.658 -65.2553 400.665 -70.5813 395.928C-73.2505 393.582 -76.2071 391.3 -79.5691 389.375C-82.91 387.446 -86.6774 385.905 -90.5397 385.075C-92.4678 384.668 -94.406 384.38 -96.3055 384.309L-96.6617 384.288L-97.0014 384.264H-97.1363L-97.6754 384.265L-98.8376 384.269L-100.282 384.298L-101.636 384.384C-105.203 384.665 -108.961 385.362 -112.697 387.18C-114.548 388.086 -116.38 389.309 -117.984 390.847C-119.582 392.383 -120.962 394.227 -121.847 396.212C-122.746 398.188 -123.247 400.223 -123.405 402.12C-123.566 404.023 -123.463 405.803 -123.151 407.434C-121.833 413.939 -118.452 418.243 -115.085 421.295C-111.649 424.316 -107.976 425.944 -104.895 426.528C-101.803 427.142 -99.3865 426.779 -97.881 426.375C-97.1199 426.18 -96.5643 425.959 -96.198 425.802C-95.8349 425.648 -95.6472 425.568 -95.6472 425.568C-95.6472 425.568 -95.8474 425.536 -96.2356 425.473C-111.057 430.368 -122.551 409.811 -111.073 398.636Z" fill="url(#paint26_linear)"/>
<path d="M274.774 449.915C274.16 448.807 273.454 447.69 272.617 446.574C272.203 446.013 271.743 445.465 271.24 444.92C270.992 444.646 270.734 444.372 270.456 444.102L270.034 443.69L269.506 443.23C269.076 442.875 268.963 442.75 268.742 442.548L268.665 442.478C268.581 442.423 268.798 442.55 268.467 442.347L268.418 442.307L268.218 442.147L267.817 441.827C267.271 441.398 266.72 440.965 266.164 440.529C264.992 439.727 263.782 438.893 262.456 438.181C259.832 436.723 256.884 435.481 253.748 434.664C247.473 432.988 240.577 432.828 234.117 433.827C227.623 434.803 221.417 436.745 215.624 439.149C209.804 441.551 204.349 444.401 199.176 447.429C188.841 453.478 179.62 460.151 171.289 466.017C167.124 468.948 163.182 471.69 159.46 474.037C157.599 475.221 155.791 476.318 154.039 477.278C152.287 478.257 150.583 479.137 148.936 479.858C147.286 480.608 145.681 481.227 144.126 481.706C142.56 482.247 141.053 482.529 139.574 482.788C136.631 483.254 133.847 483.182 131.461 482.866C130.86 482.798 130.284 482.716 129.756 482.59C129.208 482.482 128.694 482.382 128.216 482.288C127.3 482.035 126.458 481.865 125.769 481.642C124.399 481.19 123.644 480.979 123.644 480.979C135.49 490.616 162.763 494.213 199.241 464.881C235.718 435.549 278.673 440.711 274.241 475.301C274.241 475.301 274.353 475.144 274.57 474.842C274.79 474.537 275.118 474.08 275.483 473.44C276.217 472.169 277.199 470.16 277.765 467.276C278.048 465.839 278.236 464.186 278.182 462.364C278.148 460.539 277.92 458.53 277.359 456.439C276.828 454.332 276.009 452.123 274.774 449.915Z" fill="url(#paint27_linear)"/>
<path d="M170.263 384.263C204.127 329.414 192.763 257.267 158.209 223.996C123.195 190.283 68.7848 195.591 57.933 200.134C57.933 200.134 58.5085 200.107 59.623 200.056C60.177 200.009 60.8712 199.986 61.6597 200.012C62.449 200.025 63.3302 200.029 64.363 200.093C66.3908 200.173 68.8747 200.488 71.662 200.949C74.4587 201.449 77.5975 202.224 80.981 203.287C87.7452 205.418 95.5275 208.776 103.587 213.624C104.592 214.245 105.608 214.835 106.615 215.514C107.631 216.152 108.65 216.805 109.663 217.511C111.696 218.888 113.723 220.384 115.754 221.915C117.763 223.505 119.785 225.118 121.76 226.86C122.251 227.294 122.745 227.73 123.241 228.169C123.724 228.62 124.21 229.074 124.699 229.53C125.69 230.407 126.63 231.373 127.594 232.301C129.475 234.232 131.358 236.17 133.138 238.241C134.935 240.292 136.638 242.446 138.306 244.619C139.104 245.743 139.935 246.834 140.691 247.988C141.49 249.102 142.237 250.258 142.972 251.42C144.418 253.765 145.807 256.135 147.06 258.575C148.336 261.002 149.437 263.521 150.51 266.026C151.013 267.3 151.528 268.561 151.956 269.865C152.43 271.143 152.836 272.452 153.266 273.742C154.815 278.994 156.024 284.336 156.635 289.904L156.883 291.986L157.048 294.098C157.198 295.49 157.181 296.942 157.277 298.357C157.373 301.227 157.4 304.125 157.219 307.094C156.985 313.014 156.269 319.115 155.103 325.404C153.932 331.688 152.36 338.14 150.388 344.697C149.895 346.336 149.405 347.976 148.84 349.632L148.03 352.113L147.164 354.592L146.534 356.239C146.264 356.879 146.022 357.543 145.744 358.167C145.204 359.43 144.672 360.674 144.091 361.857C141.814 366.636 139.219 370.725 136.345 374.356C133.462 377.984 130.215 381.138 126.41 384.029C122.605 386.894 118.234 389.539 113.241 391.76C110.747 392.845 108.13 393.932 105.389 394.854C102.637 395.751 99.7995 396.638 96.8574 397.38C85.0908 400.379 72.0889 401.841 59.2579 402.298C46.4006 402.759 33.6689 402.26 21.7326 401.291C9.78624 400.314 -1.38336 398.852 -11.3689 397.216C-21.3536 395.572 -30.1612 393.743 -37.454 391.957C-41.0978 391.06 -44.3777 390.194 -47.244 389.382C-50.09 388.542 -52.5438 387.784 -54.5387 387.127C-58.5137 385.789 -60.7033 384.954 -60.7033 384.954C8.84215 439.678 120.491 464.881 170.263 384.263Z" fill="url(#paint28_linear)"/>
<path d="M170.263 384.263C204.127 329.414 192.763 257.267 158.209 223.996C123.195 190.283 68.7848 195.591 57.933 200.134C57.933 200.134 58.5085 200.107 59.623 200.056C60.177 200.009 60.8712 199.986 61.6597 200.012C62.449 200.025 63.3302 200.029 64.363 200.093C66.3908 200.173 68.8747 200.488 71.662 200.949C74.4587 201.449 77.5975 202.224 80.981 203.287C87.7452 205.418 95.5275 208.776 103.587 213.624C104.592 214.245 105.608 214.835 106.615 215.514C107.631 216.152 108.65 216.805 109.663 217.511C111.696 218.888 113.723 220.384 115.754 221.915C117.763 223.505 119.785 225.118 121.76 226.86C122.251 227.294 122.745 227.73 123.241 228.169C123.724 228.62 124.21 229.074 124.699 229.53C125.69 230.407 126.63 231.373 127.594 232.301C129.475 234.232 131.358 236.17 133.138 238.241C134.935 240.292 136.638 242.446 138.306 244.619C139.104 245.743 139.935 246.834 140.691 247.988C141.49 249.102 142.237 250.258 142.972 251.42C144.418 253.765 145.807 256.135 147.06 258.575C148.336 261.002 149.437 263.521 150.51 266.026C151.013 267.3 151.528 268.561 151.956 269.865C152.43 271.143 152.836 272.452 153.266 273.742C154.815 278.994 156.024 284.336 156.635 289.904L156.883 291.986L157.048 294.098C157.198 295.49 157.181 296.942 157.277 298.357C157.373 301.227 157.4 304.125 157.219 307.094C156.985 313.014 156.269 319.115 155.103 325.404C153.932 331.688 152.36 338.14 150.388 344.697C149.895 346.336 149.405 347.976 148.84 349.632L148.03 352.113L147.164 354.592L146.534 356.239C146.264 356.879 146.022 357.543 145.744 358.167C145.204 359.43 144.672 360.674 144.091 361.857C141.814 366.636 139.219 370.725 136.345 374.356C133.462 377.984 130.215 381.138 126.41 384.029C122.605 386.894 118.234 389.539 113.241 391.76C110.747 392.845 108.13 393.932 105.389 394.854C102.637 395.751 99.7995 396.638 96.8574 397.38C85.0908 400.379 72.0889 401.841 59.2579 402.298C46.4006 402.759 33.6689 402.26 21.7326 401.291C9.78624 400.314 -1.38336 398.852 -11.3689 397.216C-21.3536 395.572 -30.1612 393.743 -37.454 391.957C-41.0978 391.06 -44.3777 390.194 -47.244 389.382C-50.09 388.542 -52.5438 387.784 -54.5387 387.127C-58.5137 385.789 -60.7033 384.954 -60.7033 384.954C8.84215 439.678 120.491 464.881 170.263 384.263Z" fill="url(#paint29_linear)"/>
<path d="M145.274 326.45C145.138 326.112 144.992 325.745 144.837 325.363C144.992 325.745 145.138 326.112 145.274 326.45Z" fill="url(#paint30_linear)"/>
<path d="M145.274 326.45C145.364 326.676 145.451 326.891 145.538 327.098C145.771 327.776 145.958 328.321 146.102 328.739C145.959 328.321 145.771 327.776 145.538 327.098C145.451 326.892 145.364 326.676 145.274 326.45Z" fill="url(#paint31_linear)"/>
<path d="M63.2599 240.435L63.3744 240.435L63.2599 240.435Z" fill="url(#paint32_linear)"/>
<path d="M94.526 253.138C92.7722 251.632 90.9826 250.217 89.1698 248.916C90.9822 250.217 92.7722 251.633 94.526 253.138Z" fill="url(#paint33_linear)"/>
<path d="M131.902 300.778C133.887 304.069 135.678 307.19 137.271 310.076C137.826 311.033 138.324 311.972 138.802 312.882C138.324 311.972 137.826 311.033 137.271 310.076C135.677 307.19 133.888 304.069 131.902 300.778Z" fill="url(#paint34_linear)"/>
<path d="M140.206 315.519C139.736 314.674 139.279 313.792 138.802 312.882C139.279 313.792 139.736 314.674 140.206 315.519Z" fill="url(#paint35_linear)"/>
<path d="M51.7486 244.429C52.4268 243.878 53.1637 243.399 53.9679 242.96L54.2505 242.78L53.9679 242.96C53.1637 243.399 52.4268 243.878 51.7486 244.429Z" fill="url(#paint36_linear)"/>
<path d="M56.6281 241.804C56.159 241.986 55.6359 242.12 55.2379 242.346C55.6359 242.119 56.159 241.986 56.6281 241.804C56.8708 241.72 57.0913 241.614 57.3466 241.538L57.7453 241.438L57.3466 241.538C57.0913 241.614 56.8704 241.72 56.6281 241.804Z" fill="url(#paint37_linear)"/>
<path d="M94.526 253.138C95.1108 253.64 95.6913 254.152 96.2671 254.673C97.4204 255.716 98.5572 256.792 99.6772 257.895C98.5572 256.792 97.4204 255.716 96.2671 254.673C95.6913 254.152 95.1104 253.64 94.526 253.138Z" fill="url(#paint38_linear)"/>
<path d="M61.2704 240.697L62.5867 240.512L63.2461 240.419L62.5867 240.512L61.2704 240.697Z" fill="url(#paint39_linear)"/>
<path d="M58.5374 241.228L58.9311 241.118C59.0608 241.083 59.1754 241.066 59.2864 241.051C59.1754 241.066 59.0608 241.083 58.9311 241.118L58.5374 241.228Z" fill="url(#paint40_linear)"/>
<path d="M45.8295 269.355C45.6856 268.945 45.5624 268.533 45.4823 268.108C45.4248 267.904 45.3889 267.691 45.3572 267.479C45.3889 267.691 45.4248 267.903 45.4823 268.108C45.5624 268.534 45.6856 268.945 45.8295 269.355Z" fill="url(#paint41_linear)"/>
<path d="M46.301 270.587C47.0191 272.219 48.102 273.74 49.3471 275.12C48.102 273.74 47.0195 272.219 46.301 270.587Z" fill="url(#paint42_linear)"/>
<path d="M63.658 240.362L63.5756 240.373L63.2461 240.419L63.5756 240.373L63.658 240.362C63.7681 240.343 63.7915 240.339 63.7684 240.343C63.7938 240.339 63.7704 240.342 63.658 240.362Z" fill="url(#paint43_linear)"/>
<path d="M48.3072 248.776C47.8263 249.677 47.3912 250.661 47.0054 251.712C47.3912 250.661 47.8263 249.677 48.3072 248.776Z" fill="url(#paint44_linear)"/>
<path d="M62.1551 283.431C62.6848 283.628 63.1793 283.795 63.6324 283.934C63.1789 283.795 62.6848 283.627 62.1551 283.431Z" fill="url(#paint45_linear)"/>
<path d="M57.6004 281.366C58.2735 281.724 58.9252 282.047 59.5491 282.337C58.9252 282.047 58.2735 281.724 57.6004 281.366Z" fill="url(#paint46_linear)"/>
<path d="M59.5492 282.337C60.4854 282.773 61.3603 283.135 62.1547 283.43C61.3603 283.135 60.4854 282.773 59.5492 282.337Z" fill="url(#paint47_linear)"/>
<path d="M48.3072 248.777C48.7876 247.875 49.3134 247.056 49.8803 246.332C50.1653 245.967 50.4628 245.629 50.774 245.314C50.4628 245.629 50.1653 245.967 49.8803 246.332C49.3134 247.056 48.7876 247.875 48.3072 248.777Z" fill="url(#paint48_linear)"/>
<path d="M63.3763 240.435L65.2309 240.376C65.539 240.365 65.847 240.339 66.1547 240.327C65.847 240.339 65.539 240.365 65.2309 240.376L63.3763 240.435Z" fill="url(#paint49_linear)"/>
<path d="M66.1546 240.328C66.3097 240.322 66.4643 240.32 66.619 240.325C66.4647 240.319 66.3097 240.322 66.1546 240.328Z" fill="url(#paint50_linear)"/>
<path d="M41.74 244.877C30.8307 267.248 43.7853 288.931 66.8935 284.635C66.8935 284.635 66.8349 284.629 66.72 284.616C66.6047 284.603 66.433 284.583 66.2063 284.557C66.0937 284.539 65.9686 284.517 65.8314 284.49C65.4197 284.411 64.8986 284.294 64.2806 284.123C64.0753 284.067 63.8588 284.004 63.6324 283.934C63.1793 283.795 62.6848 283.628 62.1551 283.431C61.3603 283.136 60.4854 282.774 59.5495 282.338C58.9256 282.047 58.2739 281.724 57.6008 281.366C56.935 281.005 56.2427 280.607 55.5394 280.17C54.8365 279.733 54.1227 279.258 53.4139 278.741C51.9964 277.706 50.5992 276.506 49.3471 275.121C48.102 273.741 47.0195 272.22 46.301 270.587C46.138 270.172 45.9734 269.765 45.8295 269.355C45.6857 268.946 45.5625 268.534 45.4824 268.109C45.4249 267.904 45.3889 267.692 45.3573 267.479C45.3256 267.267 45.2979 267.054 45.2572 266.849C45.2318 266.43 45.1466 265.945 45.2079 265.69L45.2201 265.468L45.222 265.36L45.2142 265.119C45.1982 264.768 45.1821 264.414 45.1661 264.059L45.1536 263.792C45.2165 264.153 45.2122 264.112 45.206 264.059C45.2036 264.038 45.2005 264.014 45.2013 264.013C45.2013 264.013 45.2032 264.019 45.2064 264.033L45.2091 263.974L45.215 263.858L45.2376 263.389L45.2822 262.451C45.3068 261.829 45.3319 261.2 45.3569 260.566C45.3975 259.942 45.4945 259.333 45.5574 258.715C45.6071 258.09 45.6829 257.477 45.7783 256.874C46.0648 255.064 46.5301 253.347 47.0047 251.712C47.3905 250.661 47.826 249.677 48.3064 248.776C48.7869 247.875 49.3127 247.056 49.8795 246.331C50.1645 245.967 50.462 245.629 50.7732 245.314C51.084 244.998 51.4085 244.705 51.7478 244.429C52.426 243.879 53.163 243.4 53.9671 242.96L54.2497 242.78L54.584 242.641L55.2368 242.347C55.6352 242.12 56.1582 241.987 56.627 241.804C56.8697 241.72 57.0902 241.614 57.3455 241.539L57.7442 241.438L58.143 241.337L58.5366 241.228L58.9303 241.119C59.0601 241.084 59.1746 241.066 59.2857 241.051C59.3963 241.037 59.503 241.024 59.6168 240.999C59.8373 240.961 60.0554 240.917 60.2712 240.868L60.6129 240.789L61.2696 240.696L62.5859 240.512L63.245 240.419L63.5749 240.373L63.6574 240.361C63.7696 240.342 63.7935 240.338 63.7681 240.343C63.7556 240.345 63.7313 240.35 63.6973 240.355C63.6649 240.361 63.6246 240.368 63.582 240.375C63.4968 240.39 63.401 240.407 63.3341 240.419C63.2673 240.432 63.229 240.439 63.2587 240.435L63.3752 240.434L65.2298 240.375C65.5378 240.365 65.8458 240.339 66.1535 240.327C66.3075 240.321 66.4612 240.319 66.6148 240.325C66.7684 240.33 66.9221 240.343 67.0757 240.367C67.6879 240.393 68.2997 240.436 68.9115 240.497C73.1969 240.92 77.4908 242.191 81.8251 244.381C83.0592 245.015 84.2906 245.715 85.5158 246.473C86.741 247.231 87.9599 248.047 89.1683 248.915C90.981 250.216 92.7707 251.632 94.5244 253.138C95.1092 253.64 95.6898 254.151 96.2656 254.672C97.4188 255.715 98.5556 256.791 99.6757 257.895C100.796 258.999 101.898 260.13 102.983 261.283C105.153 263.588 107.251 265.978 109.271 268.406C110.28 269.624 111.271 270.85 112.242 272.079C119.045 280.69 124.92 289.517 129.85 297.431C130.555 298.564 131.238 299.68 131.9 300.777C133.886 304.068 135.676 307.189 137.269 310.075C137.824 311.032 138.322 311.971 138.8 312.881C139.278 313.792 139.734 314.674 140.204 315.519C141.057 317.221 141.87 318.804 142.547 320.246C143.26 321.692 143.804 323 144.331 324.152C144.518 324.583 144.681 324.981 144.835 325.363C144.99 325.745 145.136 326.112 145.272 326.45C145.362 326.675 145.45 326.891 145.536 327.098C145.769 327.775 145.956 328.321 146.1 328.738L146.601 329.017C140.328 298.894 125.602 273.098 108.557 247.973C91.5115 222.849 52.6489 222.505 41.74 244.877Z" fill="url(#paint51_linear)"/>
<path d="M41.74 244.877C30.8307 267.248 43.7853 288.931 66.8935 284.635C66.8935 284.635 66.8349 284.629 66.72 284.616C66.6047 284.603 66.433 284.583 66.2063 284.557C66.0937 284.539 65.9686 284.517 65.8314 284.49C65.4197 284.411 64.8986 284.294 64.2806 284.123C64.0753 284.067 63.8588 284.004 63.6324 283.934C63.1793 283.795 62.6848 283.628 62.1551 283.431C61.3603 283.136 60.4854 282.774 59.5495 282.338C58.9256 282.047 58.2739 281.724 57.6008 281.366C56.935 281.005 56.2427 280.607 55.5394 280.17C54.8365 279.733 54.1227 279.258 53.4139 278.741C51.9964 277.706 50.5992 276.506 49.3471 275.121C48.102 273.741 47.0195 272.22 46.301 270.587C46.138 270.172 45.9734 269.765 45.8295 269.355C45.6857 268.946 45.5625 268.534 45.4824 268.109C45.4249 267.904 45.3889 267.692 45.3573 267.479C45.3256 267.267 45.2979 267.054 45.2572 266.849C45.2318 266.43 45.1466 265.945 45.2079 265.69L45.2201 265.468L45.222 265.36L45.2142 265.119C45.1982 264.768 45.1821 264.414 45.1661 264.059L45.1536 263.792C45.2165 264.153 45.2122 264.112 45.206 264.059C45.2036 264.038 45.2005 264.014 45.2013 264.013C45.2013 264.013 45.2032 264.019 45.2064 264.033L45.2091 263.974L45.215 263.858L45.2376 263.389L45.2822 262.451C45.3068 261.829 45.3319 261.2 45.3569 260.566C45.3975 259.942 45.4945 259.333 45.5574 258.715C45.6071 258.09 45.6829 257.477 45.7783 256.874C46.0648 255.064 46.5301 253.347 47.0047 251.712C47.3905 250.661 47.826 249.677 48.3064 248.776C48.7869 247.875 49.3127 247.056 49.8795 246.331C50.1645 245.967 50.462 245.629 50.7732 245.314C51.084 244.998 51.4085 244.705 51.7478 244.429C52.426 243.879 53.163 243.4 53.9671 242.96L54.2497 242.78L54.584 242.641L55.2368 242.347C55.6352 242.12 56.1582 241.987 56.627 241.804C56.8697 241.72 57.0902 241.614 57.3455 241.539L57.7442 241.438L58.143 241.337L58.5366 241.228L58.9303 241.119C59.0601 241.084 59.1746 241.066 59.2857 241.051C59.3963 241.037 59.503 241.024 59.6168 240.999C59.8373 240.961 60.0554 240.917 60.2712 240.868L60.6129 240.789L61.2696 240.696L62.5859 240.512L63.245 240.419L63.5749 240.373L63.6574 240.361C63.7696 240.342 63.7935 240.338 63.7681 240.343C63.7556 240.345 63.7313 240.35 63.6973 240.355C63.6649 240.361 63.6246 240.368 63.582 240.375C63.4968 240.39 63.401 240.407 63.3341 240.419C63.2673 240.432 63.229 240.439 63.2587 240.435L63.3752 240.434L65.2298 240.375C65.5378 240.365 65.8458 240.339 66.1535 240.327C66.3075 240.321 66.4612 240.319 66.6148 240.325C66.7684 240.33 66.9221 240.343 67.0757 240.367C67.6879 240.393 68.2997 240.436 68.9115 240.497C73.1969 240.92 77.4908 242.191 81.8251 244.381C83.0592 245.015 84.2906 245.715 85.5158 246.473C86.741 247.231 87.9599 248.047 89.1683 248.915C90.981 250.216 92.7707 251.632 94.5244 253.138C95.1092 253.64 95.6898 254.151 96.2656 254.672C97.4188 255.715 98.5556 256.791 99.6757 257.895C100.796 258.999 101.898 260.13 102.983 261.283C105.153 263.588 107.251 265.978 109.271 268.406C110.28 269.624 111.271 270.85 112.242 272.079C119.045 280.69 124.92 289.517 129.85 297.431C130.555 298.564 131.238 299.68 131.9 300.777C133.886 304.068 135.676 307.189 137.269 310.075C137.824 311.032 138.322 311.971 138.8 312.881C139.278 313.792 139.734 314.674 140.204 315.519C141.057 317.221 141.87 318.804 142.547 320.246C143.26 321.692 143.804 323 144.331 324.152C144.518 324.583 144.681 324.981 144.835 325.363C144.99 325.745 145.136 326.112 145.272 326.45C145.362 326.675 145.45 326.891 145.536 327.098C145.769 327.775 145.956 328.321 146.1 328.738L146.601 329.017C140.328 298.894 125.602 273.098 108.557 247.973C91.5115 222.849 52.6489 222.505 41.74 244.877Z" fill="url(#paint52_linear)"/>
<path d="M-14.3505 466.148C-9.58935 467.529 -5.16833 468.443 -1.2352 469.031C2.70184 469.606 6.13224 469.928 8.97078 470.031C10.3797 470.114 11.6604 470.12 12.7612 470.124C13.8629 470.146 14.7921 470.109 15.5493 470.08C17.0669 470.005 17.8761 469.965 17.8761 469.965C-11.6128 463.168 -31.0447 456.016 -55.846 427.197C-80.6473 398.378 -99.5952 387.461 -111.073 398.636C-122.551 409.811 -111.057 430.368 -96.2356 425.473C-96.6183 425.417 -97.1855 425.288 -97.8884 425.104C-99.2934 424.723 -101.258 423.961 -103.241 422.466C-105.218 420.982 -107.211 418.749 -108.68 415.869C-109.411 414.436 -110.033 412.859 -110.388 411.208C-110.756 409.575 -110.912 407.869 -110.662 406.405C-110.449 404.938 -109.883 403.823 -109.208 403.35C-108.562 402.865 -107.916 402.629 -106.623 402.409C-105.361 402.197 -103.548 402.158 -101.49 402.392L-100.723 402.487C-100.494 402.53 -100.266 402.568 -100.038 402.6L-99.0628 402.75L-98.5299 402.833L-98.3966 402.854C-98.7051 402.829 -98.4564 402.853 -98.5135 402.851L-98.4686 402.862L-98.2891 402.906C-97.3216 403.11 -96.4056 403.419 -95.4979 403.743C-93.6996 404.447 -91.9721 405.389 -90.1992 406.684C-88.4307 407.965 -86.6152 409.572 -84.7689 411.438C-81.0621 415.153 -77.2267 419.815 -73.1505 424.579C-69.0645 429.36 -64.7001 434.257 -60.0051 438.825C-55.3186 443.401 -50.3038 447.634 -45.1252 451.276C-39.9391 454.91 -34.6397 458.01 -29.4118 460.438C-24.2073 462.915 -19.1018 464.753 -14.3505 466.148Z" fill="url(#paint53_linear)"/>
<path d="M-14.3505 466.148C-9.58935 467.529 -5.16833 468.443 -1.2352 469.031C2.70184 469.606 6.13224 469.928 8.97078 470.031C10.3797 470.114 11.6604 470.12 12.7612 470.124C13.8629 470.146 14.7921 470.109 15.5493 470.08C17.0669 470.005 17.8761 469.965 17.8761 469.965C-11.6128 463.168 -31.0447 456.016 -55.846 427.197C-80.6473 398.378 -99.5952 387.461 -111.073 398.636C-122.551 409.811 -111.057 430.368 -96.2356 425.473C-96.6183 425.417 -97.1855 425.288 -97.8884 425.104C-99.2934 424.723 -101.258 423.961 -103.241 422.466C-105.218 420.982 -107.211 418.749 -108.68 415.869C-109.411 414.436 -110.033 412.859 -110.388 411.208C-110.756 409.575 -110.912 407.869 -110.662 406.405C-110.449 404.938 -109.883 403.823 -109.208 403.35C-108.562 402.865 -107.916 402.629 -106.623 402.409C-105.361 402.197 -103.548 402.158 -101.49 402.392L-100.723 402.487C-100.494 402.53 -100.266 402.568 -100.038 402.6L-99.0628 402.75L-98.5299 402.833L-98.3966 402.854C-98.7051 402.829 -98.4564 402.853 -98.5135 402.851L-98.4686 402.862L-98.2891 402.906C-97.3216 403.11 -96.4056 403.419 -95.4979 403.743C-93.6996 404.447 -91.9721 405.389 -90.1992 406.684C-88.4307 407.965 -86.6152 409.572 -84.7689 411.438C-81.0621 415.153 -77.2267 419.815 -73.1505 424.579C-69.0645 429.36 -64.7001 434.257 -60.0051 438.825C-55.3186 443.401 -50.3038 447.634 -45.1252 451.276C-39.9391 454.91 -34.6397 458.01 -29.4118 460.438C-24.2073 462.915 -19.1018 464.753 -14.3505 466.148Z" fill="url(#paint54_linear)"/>
<path d="M199.241 464.88C162.763 494.213 135.49 490.616 123.644 480.978C123.644 480.978 123.995 481.686 124.7 482.956C125.052 483.588 125.595 484.341 126.252 485.246C126.936 486.091 127.724 487.104 128.777 488.082C130.822 490.108 133.787 492.282 137.737 493.928C141.666 495.535 146.551 496.554 151.716 496.551C156.9 496.603 162.347 495.773 167.72 494.351C173.118 492.94 178.457 490.933 183.687 488.611C194.159 483.967 204.162 478.007 213.609 472.373C218.337 469.582 222.918 466.822 227.324 464.408C231.731 461.966 235.95 459.887 239.905 458.32C243.874 456.739 247.508 455.786 251.003 455.403C252.757 455.195 254.467 455.214 256.187 455.364C257.06 455.399 257.894 455.589 258.766 455.7C259.195 455.796 259.62 455.891 260.041 455.985L260.362 456.055L260.523 456.091L260.563 456.099C260.262 455.912 260.508 456.058 260.453 456.021L260.55 456.058C260.79 456.145 261.144 456.293 261.154 456.25L261.292 456.246C261.352 456.255 261.44 456.29 261.513 456.31C261.668 456.353 261.824 456.41 261.983 456.473C262.3 456.591 262.621 456.739 262.951 456.893C263.608 457.205 264.258 457.589 264.88 458.014C265.509 458.436 266.085 458.918 266.656 459.405C267.234 459.888 267.771 460.404 268.265 460.937C269.251 462.007 270.115 463.127 270.826 464.257C271.521 465.39 272.106 466.522 272.545 467.609C273.421 469.786 273.823 471.755 274.01 473.13C274.097 473.817 274.175 474.367 274.194 474.734C274.225 475.106 274.241 475.298 274.241 475.298C278.673 440.71 235.718 435.548 199.241 464.88Z" fill="url(#paint55_linear)"/>
<path d="M199.241 464.88C162.763 494.213 135.49 490.616 123.644 480.978C123.644 480.978 123.995 481.686 124.7 482.956C125.052 483.588 125.595 484.341 126.252 485.246C126.936 486.091 127.724 487.104 128.777 488.082C130.822 490.108 133.787 492.282 137.737 493.928C141.666 495.535 146.551 496.554 151.716 496.551C156.9 496.603 162.347 495.773 167.72 494.351C173.118 492.94 178.457 490.933 183.687 488.611C194.159 483.967 204.162 478.007 213.609 472.373C218.337 469.582 222.918 466.822 227.324 464.408C231.731 461.966 235.95 459.887 239.905 458.32C243.874 456.739 247.508 455.786 251.003 455.403C252.757 455.195 254.467 455.214 256.187 455.364C257.06 455.399 257.894 455.589 258.766 455.7C259.195 455.796 259.62 455.891 260.041 455.985L260.362 456.055L260.523 456.091L260.563 456.099C260.262 455.912 260.508 456.058 260.453 456.021L260.55 456.058C260.79 456.145 261.144 456.293 261.154 456.25L261.292 456.246C261.352 456.255 261.44 456.29 261.513 456.31C261.668 456.353 261.824 456.41 261.983 456.473C262.3 456.591 262.621 456.739 262.951 456.893C263.608 457.205 264.258 457.589 264.88 458.014C265.509 458.436 266.085 458.918 266.656 459.405C267.234 459.888 267.771 460.404 268.265 460.937C269.251 462.007 270.115 463.127 270.826 464.257C271.521 465.39 272.106 466.522 272.545 467.609C273.421 469.786 273.823 471.755 274.01 473.13C274.097 473.817 274.175 474.367 274.194 474.734C274.225 475.106 274.241 475.298 274.241 475.298C278.673 440.71 235.718 435.548 199.241 464.88Z" fill="url(#paint56_linear)"/>
</g>
<path d="M71.2363 141.519H66.6759V144.743H71.0753V146.646H66.6759V153.034H64.7009V139.616H71.2363V141.519Z" fill="#FBD499"/>
<path d="M75.5085 139.616V151.131H79.3569V153.034H73.5335V139.616H75.5085Z" fill="#FBD499"/>
<path d="M80.035 146.264C80.035 144.375 80.7103 142.753 82.0609 141.397C83.4058 140.042 85.022 139.364 86.9095 139.364C88.7743 139.364 90.3736 140.048 91.7072 141.415C93.0465 142.782 93.7162 144.425 93.7162 146.342C93.7162 148.271 93.0437 149.908 91.6987 151.252C90.3481 152.602 88.7178 153.277 86.8078 153.277C85.1181 153.277 83.6008 152.677 82.2559 151.478C80.7753 150.151 80.035 148.413 80.035 146.264ZM82.027 146.29C82.027 147.773 82.513 148.993 83.485 149.949C84.4513 150.905 85.5674 151.383 86.8332 151.383C88.2064 151.383 89.3649 150.896 90.3086 149.923C91.2523 148.938 91.7242 147.738 91.7242 146.325C91.7242 144.894 91.258 143.695 90.3255 142.727C89.3988 141.754 88.2516 141.267 86.8841 141.267C85.5222 141.267 84.3722 141.754 83.4341 142.727C82.496 143.689 82.027 144.876 82.027 146.29Z" fill="#FBD499"/>
<path d="M100.633 147.315L104.685 153.034H102.269L98.5309 147.541H98.1748V153.034H96.1998V139.616H98.5139C100.243 139.616 101.492 139.949 102.261 140.615C103.108 141.357 103.532 142.336 103.532 143.553C103.532 144.503 103.266 145.32 102.735 146.003C102.204 146.687 101.503 147.124 100.633 147.315ZM98.1748 145.777H98.8021C100.673 145.777 101.608 145.044 101.608 143.579C101.608 142.206 100.698 141.519 98.8784 141.519H98.1748V145.777Z" fill="#FBD499"/>
<path d="M108.635 139.616V153.034H106.66V139.616H108.635Z" fill="#FBD499"/>
<path d="M119.468 149.775H113.865L112.407 153.034H110.279L116.755 138.773L123.003 153.034H120.841L119.468 149.775ZM118.663 147.872L116.722 143.309L114.687 147.872H118.663Z" fill="#FBD499"/>
<path d="M124.647 153.034V138.703L134.192 148.941V139.616H136.167V153.851L126.622 143.64V153.034H124.647Z" fill="#FBD499"/>
<path d="M138.778 146.264C138.778 144.375 139.453 142.753 140.803 141.397C142.148 140.042 143.765 139.364 145.652 139.364C147.517 139.364 149.116 140.048 150.45 141.415C151.789 142.782 152.459 144.425 152.459 146.342C152.459 148.271 151.786 149.908 150.441 151.252C149.091 152.602 147.46 153.277 145.55 153.277C143.861 153.277 142.343 152.677 140.998 151.478C139.518 150.151 138.778 148.413 138.778 146.264ZM140.77 146.29C140.77 147.773 141.256 148.993 142.228 149.949C143.194 150.905 144.31 151.383 145.576 151.383C146.949 151.383 148.107 150.896 149.051 149.923C149.995 148.938 150.467 147.738 150.467 146.325C150.467 144.894 150.001 143.695 149.068 142.727C148.141 141.754 146.994 141.267 145.627 141.267C144.265 141.267 143.115 141.754 142.177 142.727C141.239 143.689 140.77 144.876 140.77 146.29ZM148.627 136.009L145.169 138.408L144.228 137.6L146.949 134.802L148.627 136.009Z" fill="#FBD499"/>
<path d="M156.917 147.585V153.034H154.942V139.616H157.18C158.276 139.616 159.104 139.694 159.664 139.851C160.229 140.007 160.726 140.302 161.156 140.737C161.907 141.49 162.283 142.44 162.283 143.587C162.283 144.816 161.882 145.789 161.079 146.507C160.277 147.226 159.195 147.585 157.833 147.585H156.917ZM156.917 145.708H157.655C159.469 145.708 160.376 144.992 160.376 143.561C160.376 142.177 159.441 141.484 157.57 141.484H156.917V145.708Z" fill="#FBD499"/>
<path d="M163.665 146.264C163.665 144.375 164.34 142.753 165.691 141.397C167.036 140.042 168.652 139.364 170.539 139.364C172.404 139.364 174.003 140.048 175.337 141.415C176.676 142.782 177.346 144.425 177.346 146.342C177.346 148.271 176.673 149.908 175.329 151.252C173.978 152.602 172.348 153.277 170.438 153.277C168.748 153.277 167.231 152.677 165.886 151.478C164.405 150.151 163.665 148.413 163.665 146.264ZM165.657 146.29C165.657 147.773 166.143 148.993 167.115 149.949C168.081 150.905 169.197 151.383 170.463 151.383C171.836 151.383 172.995 150.896 173.938 149.923C174.882 148.938 175.354 147.738 175.354 146.325C175.354 144.894 174.888 143.695 173.955 142.727C173.029 141.754 171.881 141.267 170.514 141.267C169.152 141.267 168.002 141.754 167.064 142.727C166.126 143.689 165.657 144.876 165.657 146.29Z" fill="#FBD499"/>
<path d="M181.805 139.616V151.131H185.653V153.034H179.83V139.616H181.805Z" fill="#FBD499"/>
<path d="M189.501 139.616V153.034H187.526V139.616H189.501Z" fill="#FBD499"/>
<path d="M200.046 141.615L198.444 142.588C198.145 142.055 197.859 141.707 197.588 141.545C197.305 141.36 196.941 141.267 196.494 141.267C195.946 141.267 195.491 141.426 195.13 141.745C194.768 142.058 194.587 142.452 194.587 142.927C194.587 143.582 195.062 144.109 196.011 144.509L197.317 145.056C198.379 145.496 199.156 146.035 199.648 146.672C200.139 147.304 200.385 148.08 200.385 149.001C200.385 150.235 199.984 151.255 199.182 152.06C198.373 152.871 197.37 153.277 196.172 153.277C195.037 153.277 194.098 152.932 193.358 152.243C192.629 151.553 192.174 150.583 191.993 149.332L193.994 148.88C194.084 149.668 194.243 150.212 194.469 150.513C194.875 151.093 195.469 151.383 196.249 151.383C196.865 151.383 197.376 151.171 197.783 150.748C198.19 150.325 198.393 149.789 198.393 149.14C198.393 148.88 198.357 148.642 198.283 148.428C198.215 148.208 198.105 148.008 197.952 147.828C197.806 147.643 197.613 147.472 197.376 147.315C197.139 147.153 196.856 147 196.528 146.855L195.265 146.316C193.474 145.54 192.578 144.404 192.578 142.91C192.578 141.901 192.954 141.058 193.706 140.381C194.457 139.697 195.393 139.355 196.511 139.355C198.02 139.355 199.199 140.108 200.046 141.615Z" fill="#FBD499"/>
<path d="M210.905 151.131H215.779V153.034H206.988L211.532 147.394C211.978 146.832 212.351 146.345 212.651 145.934C212.956 145.522 213.188 145.178 213.346 144.9C213.668 144.355 213.829 143.865 213.829 143.431C213.829 142.805 213.614 142.281 213.185 141.858C212.755 141.435 212.224 141.224 211.591 141.224C210.269 141.224 209.512 142.026 209.32 143.631H207.353C207.669 140.804 209.062 139.39 211.532 139.39C212.724 139.39 213.725 139.778 214.533 140.554C215.346 141.331 215.753 142.293 215.753 143.44C215.753 144.17 215.564 144.885 215.185 145.586C214.993 145.951 214.711 146.386 214.338 146.89C213.97 147.388 213.504 147.979 212.939 148.662L210.905 151.131Z" fill="#FBD499"/>
<path d="M218.008 146.238C218.008 144.1 218.494 142.394 219.466 141.119C220.336 139.966 221.39 139.39 222.628 139.39C223.865 139.39 224.919 139.966 225.789 141.119C226.761 142.394 227.247 144.129 227.247 146.325C227.247 148.515 226.761 150.247 225.789 151.522C224.919 152.674 223.868 153.251 222.636 153.251C221.404 153.251 220.348 152.674 219.466 151.522C218.494 150.247 218.008 148.486 218.008 146.238ZM219.949 146.247C219.949 147.736 220.201 148.972 220.704 149.957C221.206 150.925 221.848 151.409 222.628 151.409C223.402 151.409 224.043 150.925 224.552 149.957C225.061 148.996 225.315 147.782 225.315 146.316C225.315 144.85 225.061 143.634 224.552 142.666C224.043 141.704 223.402 141.224 222.628 141.224C221.859 141.224 221.221 141.704 220.712 142.666C220.203 143.622 219.949 144.816 219.949 146.247Z" fill="#FBD499"/>
<path d="M231.35 141.51H229.087L230.172 139.616H233.325V153.034H231.35V141.51Z" fill="#FBD499"/>
<path d="M239.852 153.494L238.403 152.391L241.53 148.019C241.361 148.043 241.217 148.06 241.098 148.072C240.979 148.083 240.883 148.089 240.81 148.089C239.753 148.089 238.838 147.675 238.064 146.846C237.295 146.024 236.911 145.033 236.911 143.874C236.911 142.64 237.337 141.586 238.191 140.711C239.05 139.83 240.078 139.39 241.276 139.39C242.469 139.39 243.506 139.824 244.387 140.694C245.269 141.557 245.709 142.576 245.709 143.752C245.709 144.795 245.28 145.922 244.421 147.133L239.852 153.494ZM238.835 143.726C238.835 144.451 239.075 145.059 239.555 145.551C240.041 146.05 240.626 146.299 241.31 146.299C241.994 146.299 242.576 146.053 243.056 145.56C243.542 145.062 243.785 144.462 243.785 143.761C243.785 143.06 243.542 142.461 243.056 141.962C242.576 141.47 241.991 141.224 241.302 141.224C240.623 141.224 240.044 141.47 239.564 141.962C239.078 142.461 238.835 143.049 238.835 143.726Z" fill="#FBD499"/>
<path d="M18.933 23.238L4.36297 0.86377H19.367L25.691 13.2586L33.503 0.86377H48.507L33.069 23.238L50.491 48.7903H35.673L26.311 33.1538L15.337 48.7903H0.642975L18.933 23.238Z" fill="#FD3D00"/>
<path d="M77.0711 30.9926L71.6151 15.0383L66.1591 30.9926H77.0711ZM80.2951 40.4635H62.9351L60.1451 48.7903H47.1871L64.9811 0.86377H78.2491L96.0431 48.7903H83.0851L80.2951 40.4635Z" fill="#FD3D00"/>
<path d="M95.532 48.7903L103.468 0.86377H115.496L124.858 26.4161L134.158 0.86377H146.186L154.122 48.7903H142.032L138.002 21.2039L126.966 48.7903H122.13L111.652 21.2039L107.622 48.7903H95.532Z" fill="#FD3D00"/>
<path d="M183.52 30.9926L178.064 15.0383L172.608 30.9926H183.52ZM186.744 40.4635H169.384L166.594 48.7903H153.636L171.43 0.86377H184.698L202.492 48.7903H189.534L186.744 40.4635Z" fill="#FD3D00"/>
<path d="M216.241 22.2845H218.535C220.932 22.2845 222.771 21.776 224.053 20.759C225.334 19.742 225.975 18.28 225.975 16.3731C225.975 14.4663 225.334 13.0043 224.053 11.9873C222.771 10.9703 220.932 10.4618 218.535 10.4618H216.241V22.2845ZM242.963 48.7903H227.835L216.241 30.357V48.7903H204.089V0.86377H222.999C225.603 0.86377 227.876 1.26634 229.819 2.07147C231.761 2.83422 233.353 3.89361 234.593 5.24961C235.874 6.60563 236.825 8.17352 237.445 9.95328C238.106 11.733 238.437 13.6399 238.437 15.674C238.437 19.3182 237.569 22.2845 235.833 24.5728C234.138 26.8187 231.617 28.3442 228.269 29.1493L242.963 48.7903Z" fill="#FD3D00"/>
<path d="M256.478 0.86377V48.7903H244.326V0.86377H256.478Z" fill="#FD3D00"/>
<path d="M262.524 48.7903V0.86377H274.676L297.12 30.1663V0.86377H309.21V48.7903H297.12L274.676 19.4877V48.7903H262.524Z" fill="#FD3D00"/>
<path d="M32.7527 75.3849L27.0311 78.861C25.9614 76.9574 24.9422 75.716 23.9734 75.1366C22.9643 74.4745 21.6626 74.1435 20.0682 74.1435C18.1105 74.1435 16.4858 74.7125 15.1942 75.8505C13.9025 76.9678 13.2567 78.3748 13.2567 80.0714C13.2567 82.4095 14.952 84.2924 18.3426 85.7201L23.0047 87.6754C26.799 89.2479 29.574 91.1722 31.3299 93.4482C33.0858 95.7036 33.9637 98.4762 33.9637 101.766C33.9637 106.173 32.5307 109.815 29.6649 112.691C26.7788 115.588 23.1964 117.036 18.9178 117.036C14.8611 117.036 11.5109 115.805 8.867 113.343C6.26349 110.88 4.63881 107.415 3.99298 102.945L11.1375 101.332C11.4604 104.146 12.0255 106.09 12.8328 107.166C14.2859 109.236 16.4051 110.27 19.1902 110.27C21.3901 110.27 23.2166 109.515 24.6697 108.004C26.1229 106.494 26.8494 104.58 26.8494 102.263C26.8494 101.332 26.7182 100.483 26.4559 99.7176C26.2137 98.9314 25.8201 98.2175 25.2752 97.5761C24.7505 96.914 24.0643 96.3036 23.2166 95.7449C22.369 95.1656 21.3598 94.6173 20.1893 94.1L15.6785 92.1757C9.28074 89.4031 6.08185 85.3477 6.08185 80.0094C6.08185 76.4091 7.42397 73.3986 10.1082 70.9777C12.7925 68.5362 16.1326 67.3154 20.1287 67.3154C25.5174 67.3154 29.7254 70.0052 32.7527 75.3849Z" fill="#FD9800"/>
<path d="M61.3042 68.2465V97.1106C61.3042 101.228 61.9602 104.239 63.272 106.142C65.2297 108.894 67.9846 110.27 71.5367 110.27C75.1089 110.27 77.8739 108.894 79.8316 106.142C81.1434 104.301 81.7993 101.29 81.7993 97.1106V68.2465H88.8531V99.0969C88.8531 104.146 87.3192 108.304 84.2515 111.574C80.8003 115.215 76.562 117.036 71.5367 117.036C66.5113 117.036 62.2831 115.215 58.8521 111.574C55.7844 108.304 54.2505 104.146 54.2505 99.0969V68.2465H61.3042Z" fill="#FD9800"/>
<path d="M110.23 116.167L120.069 64.6462L136.114 101.89L152.734 64.6462L161.573 116.167H154.338L149.827 87.2409L135.992 118.371L122.551 87.2099L117.526 116.167H110.23Z" fill="#FD9800"/>
<path d="M181.648 116.167L191.487 64.6462L207.532 101.89L224.152 64.6462L232.992 116.167H225.757L221.246 87.2409L207.411 118.371L193.97 87.2099L188.944 116.167H181.648Z" fill="#FD9800"/>
<path d="M261.756 68.2465V116.167H254.702V68.2465H261.756Z" fill="#FD9800"/>
<path d="M297.663 75.0435V116.167H290.61V75.0435H279.863V68.2465H308.38V75.0435H297.663Z" fill="#FD9800"/>
<line x1="257.2" y1="145.677" x2="309.28" y2="145.677" stroke="#FBD499" stroke-width="2"/>
<line x1="0.519974" y1="145.677" x2="52.6" y2="145.677" stroke="#FBD499" stroke-width="2"/>
<defs>
<linearGradient id="paint0_linear" x1="212.227" y1="427.369" x2="212.227" y2="274.048" gradientUnits="userSpaceOnUse">
<stop stop-color="#20CFED"/>
<stop offset="0.0093" stop-color="#22D0ED"/>
<stop offset="0.3329" stop-color="#52E3F5"/>
<stop offset="0.6176" stop-color="#76F0FA"/>
<stop offset="0.8496" stop-color="#8BF9FE"/>
<stop offset="1" stop-color="#93FCFF"/>
</linearGradient>
<linearGradient id="paint1_linear" x1="259.368" y1="427.371" x2="259.368" y2="272.41" gradientUnits="userSpaceOnUse">
<stop stop-color="#20CFED"/>
<stop offset="0.0093" stop-color="#22D0ED"/>
<stop offset="0.3329" stop-color="#52E3F5"/>
<stop offset="0.6176" stop-color="#76F0FA"/>
<stop offset="0.8496" stop-color="#8BF9FE"/>
<stop offset="1" stop-color="#93FCFF"/>
</linearGradient>
<linearGradient id="paint2_linear" x1="27.1037" y1="317.883" x2="147.761" y2="317.883" gradientUnits="userSpaceOnUse">
<stop stop-color="#93FCFF"/>
<stop offset="1" stop-color="#20CFED"/>
</linearGradient>
<linearGradient id="paint3_linear" x1="27.1239" y1="329.22" x2="147.761" y2="329.22" gradientUnits="userSpaceOnUse">
<stop stop-color="#93FCFF"/>
<stop offset="1" stop-color="#20CFED"/>
</linearGradient>
<linearGradient id="paint4_linear" x1="27.1041" y1="264.845" x2="147.761" y2="264.845" gradientUnits="userSpaceOnUse">
<stop stop-color="#93FCFF"/>
<stop offset="1" stop-color="#20CFED"/>
</linearGradient>
<linearGradient id="paint5_linear" x1="26.8478" y1="240.349" x2="148.349" y2="240.349" gradientUnits="userSpaceOnUse">
<stop stop-color="#93FCFF"/>
<stop offset="1" stop-color="#20CFED"/>
</linearGradient>
<linearGradient id="paint6_linear" x1="27.1053" y1="240.874" x2="147.758" y2="240.874" gradientUnits="userSpaceOnUse">
<stop stop-color="#93FCFF"/>
<stop offset="1" stop-color="#20CFED"/>
</linearGradient>
<linearGradient id="paint7_linear" x1="27.2171" y1="258.72" x2="147.126" y2="258.72" gradientUnits="userSpaceOnUse">
<stop stop-color="#93FCFF"/>
<stop offset="1" stop-color="#20CFED"/>
</linearGradient>
<linearGradient id="paint8_linear" x1="27.1062" y1="241.333" x2="147.755" y2="241.333" gradientUnits="userSpaceOnUse">
<stop stop-color="#93FCFF"/>
<stop offset="1" stop-color="#20CFED"/>
</linearGradient>
<linearGradient id="paint9_linear" x1="27.1025" y1="279.455" x2="147.765" y2="279.455" gradientUnits="userSpaceOnUse">
<stop stop-color="#93FCFF"/>
<stop offset="1" stop-color="#20CFED"/>
</linearGradient>
<linearGradient id="paint10_linear" x1="27.1038" y1="284.553" x2="147.761" y2="284.553" gradientUnits="userSpaceOnUse">
<stop stop-color="#93FCFF"/>
<stop offset="1" stop-color="#20CFED"/>
</linearGradient>
<linearGradient id="paint11_linear" x1="27.1039" y1="286.429" x2="147.761" y2="286.429" gradientUnits="userSpaceOnUse">
<stop stop-color="#93FCFF"/>
<stop offset="1" stop-color="#20CFED"/>
</linearGradient>
<linearGradient id="paint12_linear" x1="25.6422" y1="264.037" x2="65.8869" y2="264.037" gradientUnits="userSpaceOnUse">
<stop stop-color="#93FCFF"/>
<stop offset="1" stop-color="#20CFED"/>
</linearGradient>
<linearGradient id="paint13_linear" x1="26.5832" y1="240.428" x2="148.979" y2="240.428" gradientUnits="userSpaceOnUse">
<stop stop-color="#93FCFF"/>
<stop offset="1" stop-color="#20CFED"/>
</linearGradient>
<linearGradient id="paint14_linear" x1="27.1039" y1="271.622" x2="147.761" y2="271.622" gradientUnits="userSpaceOnUse">
<stop stop-color="#93FCFF"/>
<stop offset="1" stop-color="#20CFED"/>
</linearGradient>
<linearGradient id="paint15_linear" x1="27.0989" y1="322.805" x2="147.761" y2="322.805" gradientUnits="userSpaceOnUse">
<stop stop-color="#93FCFF"/>
<stop offset="1" stop-color="#20CFED"/>
</linearGradient>
<linearGradient id="paint16_linear" x1="27.1046" y1="240.411" x2="147.76" y2="240.411" gradientUnits="userSpaceOnUse">
<stop stop-color="#93FCFF"/>
<stop offset="1" stop-color="#20CFED"/>
</linearGradient>
<linearGradient id="paint17_linear" x1="27.104" y1="243.486" x2="147.761" y2="243.486" gradientUnits="userSpaceOnUse">
<stop stop-color="#93FCFF"/>
<stop offset="1" stop-color="#20CFED"/>
</linearGradient>
<linearGradient id="paint18_linear" x1="27.2163" y1="261.978" x2="147.126" y2="261.978" gradientUnits="userSpaceOnUse">
<stop stop-color="#93FCFF"/>
<stop offset="1" stop-color="#20CFED"/>
</linearGradient>
<linearGradient id="paint19_linear" x1="27.12" y1="240.397" x2="147.723" y2="240.397" gradientUnits="userSpaceOnUse">
<stop stop-color="#93FCFF"/>
<stop offset="1" stop-color="#20CFED"/>
</linearGradient>
<linearGradient id="paint20_linear" x1="86.8264" y1="470.638" x2="86.8264" y2="182.977" gradientUnits="userSpaceOnUse">
<stop stop-color="#93FCFF"/>
<stop offset="1" stop-color="#20CFED"/>
</linearGradient>
<linearGradient id="paint21_linear" x1="236.495" y1="427.234" x2="236.495" y2="172.103" gradientUnits="userSpaceOnUse">
<stop stop-color="#93FCFF"/>
<stop offset="1" stop-color="#20CFED"/>
</linearGradient>
<linearGradient id="paint22_linear" x1="264.345" y1="427.371" x2="264.345" y2="272.411" gradientUnits="userSpaceOnUse">
<stop stop-color="#20CFED"/>
<stop offset="0.0093" stop-color="#22D0ED"/>
<stop offset="0.3329" stop-color="#52E3F5"/>
<stop offset="0.6176" stop-color="#76F0FA"/>
<stop offset="0.8496" stop-color="#8BF9FE"/>
<stop offset="1" stop-color="#93FCFF"/>
</linearGradient>
<linearGradient id="paint23_linear" x1="264.345" y1="427.288" x2="264.345" y2="172.103" gradientUnits="userSpaceOnUse">
<stop stop-color="#93FCFF"/>
<stop offset="1" stop-color="#20CFED"/>
</linearGradient>
<linearGradient id="paint24_linear" x1="227.977" y1="427.37" x2="227.977" y2="272.41" gradientUnits="userSpaceOnUse">
<stop stop-color="#20CFED"/>
<stop offset="0.0093" stop-color="#22D0ED"/>
<stop offset="0.3329" stop-color="#52E3F5"/>
<stop offset="0.6176" stop-color="#76F0FA"/>
<stop offset="0.8496" stop-color="#8BF9FE"/>
<stop offset="1" stop-color="#93FCFF"/>
</linearGradient>
<linearGradient id="paint25_linear" x1="227.977" y1="427.288" x2="227.977" y2="172.102" gradientUnits="userSpaceOnUse">
<stop stop-color="#93FCFF"/>
<stop offset="1" stop-color="#20CFED"/>
</linearGradient>
<linearGradient id="paint26_linear" x1="-123.48" y1="427.115" x2="17.8763" y2="427.115" gradientUnits="userSpaceOnUse">
<stop stop-color="#93FCFF"/>
<stop offset="1" stop-color="#20CFED"/>
</linearGradient>
<linearGradient id="paint27_linear" x1="123.644" y1="460.57" x2="278.191" y2="460.57" gradientUnits="userSpaceOnUse">
<stop stop-color="#93FCFF"/>
<stop offset="1" stop-color="#20CFED"/>
</linearGradient>
<linearGradient id="paint28_linear" x1="64.9638" y1="470.638" x2="64.9638" y2="182.976" gradientUnits="userSpaceOnUse">
<stop stop-color="#93FCFF"/>
<stop offset="1" stop-color="#20CFED"/>
</linearGradient>
<linearGradient id="paint29_linear" x1="-60.7036" y1="316.279" x2="190.631" y2="316.279" gradientUnits="userSpaceOnUse">
<stop stop-color="#93FCFF"/>
<stop offset="1" stop-color="#20CFED"/>
</linearGradient>
<linearGradient id="paint30_linear" x1="37.7931" y1="325.907" x2="146.603" y2="325.907" gradientUnits="userSpaceOnUse">
<stop stop-color="#20CFED"/>
<stop offset="1" stop-color="#93FCFF"/>
</linearGradient>
<linearGradient id="paint31_linear" x1="37.8171" y1="327.595" x2="146.603" y2="327.595" gradientUnits="userSpaceOnUse">
<stop stop-color="#20CFED"/>
<stop offset="1" stop-color="#93FCFF"/>
</linearGradient>
<linearGradient id="paint32_linear" x1="38.2353" y1="240.435" x2="145.234" y2="240.435" gradientUnits="userSpaceOnUse">
<stop stop-color="#20CFED"/>
<stop offset="1" stop-color="#93FCFF"/>
</linearGradient>
<linearGradient id="paint33_linear" x1="37.8181" y1="251.027" x2="146.602" y2="251.027" gradientUnits="userSpaceOnUse">
<stop stop-color="#20CFED"/>
<stop offset="1" stop-color="#93FCFF"/>
</linearGradient>
<linearGradient id="paint34_linear" x1="37.8173" y1="306.83" x2="146.603" y2="306.83" gradientUnits="userSpaceOnUse">
<stop stop-color="#20CFED"/>
<stop offset="1" stop-color="#93FCFF"/>
</linearGradient>
<linearGradient id="paint35_linear" x1="37.8168" y1="314.201" x2="146.603" y2="314.201" gradientUnits="userSpaceOnUse">
<stop stop-color="#20CFED"/>
<stop offset="1" stop-color="#93FCFF"/>
</linearGradient>
<linearGradient id="paint36_linear" x1="37.8178" y1="243.604" x2="146.601" y2="243.604" gradientUnits="userSpaceOnUse">
<stop stop-color="#20CFED"/>
<stop offset="1" stop-color="#93FCFF"/>
</linearGradient>
<linearGradient id="paint37_linear" x1="37.8171" y1="241.892" x2="146.604" y2="241.892" gradientUnits="userSpaceOnUse">
<stop stop-color="#20CFED"/>
<stop offset="1" stop-color="#93FCFF"/>
</linearGradient>
<linearGradient id="paint38_linear" x1="37.8178" y1="255.517" x2="146.603" y2="255.517" gradientUnits="userSpaceOnUse">
<stop stop-color="#20CFED"/>
<stop offset="1" stop-color="#93FCFF"/>
</linearGradient>
<linearGradient id="paint39_linear" x1="37.818" y1="240.558" x2="146.601" y2="240.558" gradientUnits="userSpaceOnUse">
<stop stop-color="#20CFED"/>
<stop offset="1" stop-color="#93FCFF"/>
</linearGradient>
<linearGradient id="paint40_linear" x1="37.8144" y1="241.139" x2="146.616" y2="241.139" gradientUnits="userSpaceOnUse">
<stop stop-color="#20CFED"/>
<stop offset="1" stop-color="#93FCFF"/>
</linearGradient>
<linearGradient id="paint41_linear" x1="37.8161" y1="268.417" x2="146.62" y2="268.417" gradientUnits="userSpaceOnUse">
<stop stop-color="#20CFED"/>
<stop offset="1" stop-color="#93FCFF"/>
</linearGradient>
<linearGradient id="paint42_linear" x1="37.8175" y1="272.853" x2="146.602" y2="272.853" gradientUnits="userSpaceOnUse">
<stop stop-color="#20CFED"/>
<stop offset="1" stop-color="#93FCFF"/>
</linearGradient>
<linearGradient id="paint43_linear" x1="37.8517" y1="240.38" x2="146.491" y2="240.38" gradientUnits="userSpaceOnUse">
<stop stop-color="#20CFED"/>
<stop offset="1" stop-color="#93FCFF"/>
</linearGradient>
<linearGradient id="paint44_linear" x1="37.8173" y1="250.244" x2="146.605" y2="250.244" gradientUnits="userSpaceOnUse">
<stop stop-color="#20CFED"/>
<stop offset="1" stop-color="#93FCFF"/>
</linearGradient>
<linearGradient id="paint45_linear" x1="37.816" y1="283.682" x2="146.608" y2="283.682" gradientUnits="userSpaceOnUse">
<stop stop-color="#20CFED"/>
<stop offset="1" stop-color="#93FCFF"/>
</linearGradient>
<linearGradient id="paint46_linear" x1="37.8167" y1="281.852" x2="146.606" y2="281.852" gradientUnits="userSpaceOnUse">
<stop stop-color="#20CFED"/>
<stop offset="1" stop-color="#93FCFF"/>
</linearGradient>
<linearGradient id="paint47_linear" x1="37.818" y1="282.884" x2="146.601" y2="282.884" gradientUnits="userSpaceOnUse">
<stop stop-color="#20CFED"/>
<stop offset="1" stop-color="#93FCFF"/>
</linearGradient>
<linearGradient id="paint48_linear" x1="37.8172" y1="247.045" x2="146.605" y2="247.045" gradientUnits="userSpaceOnUse">
<stop stop-color="#20CFED"/>
<stop offset="1" stop-color="#93FCFF"/>
</linearGradient>
<linearGradient id="paint49_linear" x1="37.8172" y1="240.381" x2="146.604" y2="240.381" gradientUnits="userSpaceOnUse">
<stop stop-color="#20CFED"/>
<stop offset="1" stop-color="#93FCFF"/>
</linearGradient>
<linearGradient id="paint50_linear" x1="37.6354" y1="240.325" x2="147.12" y2="240.325" gradientUnits="userSpaceOnUse">
<stop stop-color="#20CFED"/>
<stop offset="1" stop-color="#93FCFF"/>
</linearGradient>
<linearGradient id="paint51_linear" x1="27.104" y1="278.805" x2="147.76" y2="278.805" gradientUnits="userSpaceOnUse">
<stop stop-color="#93FCFF"/>
<stop offset="1" stop-color="#20CFED"/>
</linearGradient>
<linearGradient id="paint52_linear" x1="37.8174" y1="278.805" x2="146.603" y2="278.805" gradientUnits="userSpaceOnUse">
<stop stop-color="#20CFED"/>
<stop offset="1" stop-color="#93FCFF"/>
</linearGradient>
<linearGradient id="paint53_linear" x1="-123.48" y1="432.228" x2="17.8756" y2="432.228" gradientUnits="userSpaceOnUse">
<stop stop-color="#93FCFF"/>
<stop offset="1" stop-color="#20CFED"/>
</linearGradient>
<linearGradient id="paint54_linear" x1="-115.744" y1="432.228" x2="17.8763" y2="432.228" gradientUnits="userSpaceOnUse">
<stop stop-color="#20CFED"/>
<stop offset="1" stop-color="#93FCFF"/>
</linearGradient>
<linearGradient id="paint55_linear" x1="123.644" y1="471.159" x2="278.192" y2="471.159" gradientUnits="userSpaceOnUse">
<stop stop-color="#93FCFF"/>
<stop offset="1" stop-color="#20CFED"/>
</linearGradient>
<linearGradient id="paint56_linear" x1="123.644" y1="471.159" x2="274.558" y2="471.159" gradientUnits="userSpaceOnUse">
<stop stop-color="#20CFED"/>
<stop offset="1" stop-color="#93FCFF"/>
</linearGradient>
</defs>
</svg>
